<?xml version="1.0" encoding="UTF-8" standalone="no"?>
<svg
   xmlns:dc="http://purl.org/dc/elements/1.1/"
   xmlns:cc="http://creativecommons.org/ns#"
   xmlns:rdf="http://www.w3.org/1999/02/22-rdf-syntax-ns#"
   xmlns:svg="http://www.w3.org/2000/svg"
   xmlns="http://www.w3.org/2000/svg"
   xmlns:sodipodi="http://sodipodi.sourceforge.net/DTD/sodipodi-0.dtd"
   xmlns:inkscape="http://www.inkscape.org/namespaces/inkscape"
   inkscape:export-ydpi="500"
   inkscape:export-xdpi="500"
   inkscape:export-filename="C:\Users\afann\Documents\PresentationsAndPapers\cumulativeCO2\Analysis\Figures\Figure S1andS2\FigureS1_GN-GS-WLDcumulativeCO2-fairShares_v4-labels.png"
   inkscape:version="1.0 (4035a4fb49, 2020-05-01)"
   sodipodi:docname="FigureS1_GN-GS-WLDcumulativeCO2-fairShares_v4.svg"
   viewBox="0 0 690.66669 301.33334"
   height="301.33334"
   width="690.66669"
   xml:space="preserve"
   id="svg2"
   version="1.1"><metadata
     id="metadata8"><rdf:RDF><cc:Work
         rdf:about=""><dc:format>image/svg+xml</dc:format><dc:type
           rdf:resource="http://purl.org/dc/dcmitype/StillImage" /><dc:title></dc:title></cc:Work></rdf:RDF></metadata><defs
     id="defs6"><clipPath
       id="clipPath46"
       clipPathUnits="userSpaceOnUse"><path
         id="path44"
         d="M 0,0 H 518.74 V 226.77 H 0 Z" /></clipPath><clipPath
       id="clipPath58"
       clipPathUnits="userSpaceOnUse"><path
         id="path56"
         d="M 33.5,29.88 H 154.45 V 203.3 H 33.5 Z" /></clipPath><clipPath
       id="clipPath92"
       clipPathUnits="userSpaceOnUse"><path
         id="path90"
         d="M 172.44,29.88 H 293.39 V 203.3 H 172.44 Z" /></clipPath><clipPath
       id="clipPath126"
       clipPathUnits="userSpaceOnUse"><path
         id="path124"
         d="M 311.39,29.88 H 432.34 V 203.3 H 311.39 Z" /></clipPath><clipPath
       id="clipPath160"
       clipPathUnits="userSpaceOnUse"><path
         id="path158"
         d="m 33.5,203.3 h 120.95 v 16.27 H 33.5 Z" /></clipPath><clipPath
       id="clipPath168"
       clipPathUnits="userSpaceOnUse"><path
         id="path166"
         d="m 33.5,203.3 h 120.95 v 16.27 H 33.5 Z" /></clipPath><clipPath
       id="clipPath182"
       clipPathUnits="userSpaceOnUse"><path
         id="path180"
         d="m 33.5,203.3 h 120.95 v 16.27 H 33.5 Z" /></clipPath><clipPath
       id="clipPath190"
       clipPathUnits="userSpaceOnUse"><path
         id="path188"
         d="m 33.5,203.3 h 120.95 v 16.27 H 33.5 Z" /></clipPath><clipPath
       id="clipPath200"
       clipPathUnits="userSpaceOnUse"><path
         id="path198"
         d="m 172.44,203.3 h 120.95 v 16.27 H 172.44 Z" /></clipPath><clipPath
       id="clipPath208"
       clipPathUnits="userSpaceOnUse"><path
         id="path206"
         d="m 172.44,203.3 h 120.95 v 16.27 H 172.44 Z" /></clipPath><clipPath
       id="clipPath222"
       clipPathUnits="userSpaceOnUse"><path
         id="path220"
         d="m 172.44,203.3 h 120.95 v 16.27 H 172.44 Z" /></clipPath><clipPath
       id="clipPath230"
       clipPathUnits="userSpaceOnUse"><path
         id="path228"
         d="m 172.44,203.3 h 120.95 v 16.27 H 172.44 Z" /></clipPath><clipPath
       id="clipPath240"
       clipPathUnits="userSpaceOnUse"><path
         id="path238"
         d="m 311.39,203.3 h 120.95 v 16.27 H 311.39 Z" /></clipPath><clipPath
       id="clipPath248"
       clipPathUnits="userSpaceOnUse"><path
         id="path246"
         d="m 311.39,203.3 h 120.95 v 16.27 H 311.39 Z" /></clipPath><clipPath
       id="clipPath262"
       clipPathUnits="userSpaceOnUse"><path
         id="path260"
         d="m 311.39,203.3 h 120.95 v 16.27 H 311.39 Z" /></clipPath><clipPath
       id="clipPath270"
       clipPathUnits="userSpaceOnUse"><path
         id="path268"
         d="m 311.39,203.3 h 120.95 v 16.27 H 311.39 Z" /></clipPath></defs><sodipodi:namedview
     inkscape:current-layer="g10"
     inkscape:window-maximized="1"
     inkscape:window-y="-9"
     inkscape:window-x="-9"
     inkscape:cy="258.39125"
     inkscape:cx="460.32985"
     inkscape:zoom="1.0692567"
     showgrid="false"
     id="namedview4"
     inkscape:window-height="1001"
     inkscape:window-width="1920"
     inkscape:pageshadow="2"
     inkscape:pageopacity="0"
     guidetolerance="10"
     gridtolerance="10"
     objecttolerance="10"
     borderopacity="1"
     bordercolor="#666666"
     pagecolor="#ffffff" /><g
     transform="matrix(1.3333333,0,0,-1.3333333,0,301.33333)"
     inkscape:label="FigureS1_GN-GS-WLDcumulativeCO2-fairShares_v4"
     inkscape:groupmode="layer"
     id="g10"><g
       id="g12" /><g
       id="g14" /><g
       id="g16" /><g
       id="g18" /><g
       id="g20" /><g
       id="g22" /><g
       id="g24" /><g
       id="g26" /><g
       id="g28" /><g
       id="g30" /><g
       id="g32" /><g
       id="g34" /><g
       id="g36" /><g
       id="g38" /><g
       id="g40"><g
         clip-path="url(#clipPath46)"
         id="g42"><path
           id="path48"
           style="fill:#ffffff;fill-opacity:1;fill-rule:nonzero;stroke:#ffffff;stroke-width:1.07;stroke-linecap:round;stroke-linejoin:round;stroke-miterlimit:10;stroke-dasharray:none;stroke-opacity:1"
           d="M 0,0 H 518.74 V 226.77 H 0 Z" /></g></g><g
       id="g50" /><g
       id="g52"><g
         clip-path="url(#clipPath58)"
         id="g54"><path
           id="path60"
           style="fill:#ffffff;fill-opacity:1;fill-rule:nonzero;stroke:#7f7f7f;stroke-width:1.07;stroke-linecap:round;stroke-linejoin:round;stroke-miterlimit:10;stroke-dasharray:none;stroke-opacity:1"
           d="M 33.5,29.88 H 154.45 V 203.3 H 33.5 Z" /><path
           id="path62"
           style="fill:#a1d99b;fill-opacity:0.298;fill-rule:nonzero;stroke:none"
           d="m 33.5,47.49 h 0.6 0.6 0.61 0.6 0.61 0.6 0.61 0.6 0.61 0.6 0.61 0.6 0.61 0.6 0.61 0.6 0.61 0.6 0.61 0.6 0.6 0.61 0.6 0.61 0.6 0.61 0.6 0.61 0.6 0.61 0.6 0.61 0.6 0.61 0.6 0.61 0.6 0.61 0.6 0.6 0.61 0.6 0.61 0.6 0.61 0.6 0.61 0.6 0.61 0.6 0.61 0.6 0.61 0.6 0.61 0.6 0.61 0.6 0.6 0.61 0.6 0.61 0.6 0.61 0.6 0.61 0.6 0.61 0.6 0.61 0.6 0.61 0.6 0.61 0.6 0.61 0.6 0.61 0.6 0.6 0.61 0.6 0.61 0.6 0.61 0.6 0.61 0.6 0.61 0.6 0.61 0.6 0.61 0.6 0.61 0.6 0.61 0.6 0.6 0.61 0.6 0.61 0.6 0.61 0.6 0.61 0.6 0.61 0.6 0.61 0.6 0.61 0.6 0.61 0.6 0.61 0.6 0.6 0.61 0.6 0.61 0.6 0.61 0.6 0.61 0.6 0.61 0.6 0.61 0.6 0.61 0.6 0.61 0.6 0.61 0.6 0.6 0.61 0.6 0.61 0.6 0.61 0.6 0.61 0.6 0.61 0.6 0.61 0.6 0.61 0.6 0.61 0.6 0.61 0.6 0.6 0.61 0.6 0.61 0.6 0.61 0.6 0.61 0.6 0.61 0.6 0.61 0.6 0.61 0.6 0.61 0.6 0.61 0.6 0.61 0.6 0.6 0.61 0.6 0.61 0.6 0.61 0.6 0.61 0.6 0.61 0.6 0.61 0.6 0.61 0.6 0.61 0.6 0.61 0.6 0.6 0.61 0.6 0.61 0.6 V 29.88 h -0.6 -0.61 -0.6 -0.61 -0.6 -0.6 -0.61 -0.6 -0.61 -0.6 -0.61 -0.6 -0.61 -0.6 -0.61 -0.6 -0.61 -0.6 -0.61 -0.6 -0.61 -0.6 -0.61 -0.6 -0.6 -0.61 -0.6 -0.61 -0.6 -0.61 -0.6 -0.61 -0.6 -0.61 -0.6 -0.61 -0.6 -0.61 -0.6 -0.61 -0.6 -0.61 -0.6 -0.61 -0.6 -0.6 -0.61 -0.6 -0.61 -0.6 -0.61 -0.6 -0.61 -0.6 -0.61 -0.6 -0.61 -0.6 -0.61 -0.6 -0.61 -0.6 -0.61 -0.6 -0.6 -0.61 -0.6 -0.61 -0.6 -0.61 -0.6 -0.61 -0.6 -0.61 -0.6 -0.61 -0.6 -0.61 -0.6 -0.61 -0.6 -0.61 -0.6 -0.6 -0.61 -0.6 -0.61 -0.6 -0.61 -0.6 -0.61 -0.6 -0.61 -0.6 -0.61 -0.6 -0.61 -0.6 -0.61 -0.6 -0.61 -0.6 -0.6 -0.61 -0.6 -0.61 -0.6 -0.61 -0.6 -0.61 -0.6 -0.61 -0.6 -0.61 -0.6 -0.61 -0.6 -0.61 -0.6 -0.61 -0.6 -0.6 -0.61 -0.6 -0.61 -0.6 -0.61 -0.6 -0.61 -0.6 -0.61 -0.6 -0.61 -0.6 -0.61 -0.6 -0.61 -0.6 -0.61 -0.6 -0.61 -0.6 -0.6 -0.61 -0.6 -0.61 -0.6 -0.61 -0.6 -0.61 -0.6 -0.61 -0.6 -0.61 -0.6 -0.61 -0.6 -0.61 -0.6 -0.61 -0.6 -0.6 -0.61 -0.6 -0.61 -0.6 -0.61 -0.6 -0.61 -0.6 -0.61 -0.6 -0.61 -0.6 -0.61 -0.6 -0.61 -0.6 -0.61 -0.6 -0.6 -0.61 -0.6 -0.61 -0.6 -0.61 -0.6 -0.61 -0.6 -0.61 -0.6 -0.61 -0.6 -0.61 -0.6 -0.61 -0.6 -0.61 -0.6 -0.6 z" /><path
           id="path64"
           style="fill:#ffeda0;fill-opacity:0.298;fill-rule:nonzero;stroke:none"
           d="m 33.5,76.12 h 0.6 0.6 0.61 0.6 0.61 0.6 0.61 0.6 0.61 0.6 0.61 0.6 0.61 0.6 0.61 0.6 0.61 0.6 0.61 0.6 0.6 0.61 0.6 0.61 0.6 0.61 0.6 0.61 0.6 0.61 0.6 0.61 0.6 0.61 0.6 0.61 0.6 0.61 0.6 0.6 0.61 0.6 0.61 0.6 0.61 0.6 0.61 0.6 0.61 0.6 0.61 0.6 0.61 0.6 0.61 0.6 0.61 0.6 0.6 0.61 0.6 0.61 0.6 0.61 0.6 0.61 0.6 0.61 0.6 0.61 0.6 0.61 0.6 0.61 0.6 0.61 0.6 0.61 0.6 0.6 0.61 0.6 0.61 0.6 0.61 0.6 0.61 0.6 0.61 0.6 0.61 0.6 0.61 0.6 0.61 0.6 0.61 0.6 0.6 0.61 0.6 0.61 0.6 0.61 0.6 0.61 0.6 0.61 0.6 0.61 0.6 0.61 0.6 0.61 0.6 0.61 0.6 0.6 0.61 0.6 0.61 0.6 0.61 0.6 0.61 0.6 0.61 0.6 0.61 0.6 0.61 0.6 0.61 0.6 0.61 0.6 0.6 0.61 0.6 0.61 0.6 0.61 0.6 0.61 0.6 0.61 0.6 0.61 0.6 0.61 0.6 0.61 0.6 0.61 0.6 0.6 0.61 0.6 0.61 0.6 0.61 0.6 0.61 0.6 0.61 0.6 0.61 0.6 0.61 0.6 0.61 0.6 0.61 0.6 0.61 0.6 0.6 0.61 0.6 0.61 0.6 0.61 0.6 0.61 0.6 0.61 0.6 0.61 0.6 0.61 0.6 0.61 0.6 0.61 0.6 0.6 0.61 0.6 0.61 0.6 V 47.49 h -0.6 -0.61 -0.6 -0.61 -0.6 -0.6 -0.61 -0.6 -0.61 -0.6 -0.61 -0.6 -0.61 -0.6 -0.61 -0.6 -0.61 -0.6 -0.61 -0.6 -0.61 -0.6 -0.61 -0.6 -0.6 -0.61 -0.6 -0.61 -0.6 -0.61 -0.6 -0.61 -0.6 -0.61 -0.6 -0.61 -0.6 -0.61 -0.6 -0.61 -0.6 -0.61 -0.6 -0.61 -0.6 -0.6 -0.61 -0.6 -0.61 -0.6 -0.61 -0.6 -0.61 -0.6 -0.61 -0.6 -0.61 -0.6 -0.61 -0.6 -0.61 -0.6 -0.61 -0.6 -0.6 -0.61 -0.6 -0.61 -0.6 -0.61 -0.6 -0.61 -0.6 -0.61 -0.6 -0.61 -0.6 -0.61 -0.6 -0.61 -0.6 -0.61 -0.6 -0.6 -0.61 -0.6 -0.61 -0.6 -0.61 -0.6 -0.61 -0.6 -0.61 -0.6 -0.61 -0.6 -0.61 -0.6 -0.61 -0.6 -0.61 -0.6 -0.6 -0.61 -0.6 -0.61 -0.6 -0.61 -0.6 -0.61 -0.6 -0.61 -0.6 -0.61 -0.6 -0.61 -0.6 -0.61 -0.6 -0.61 -0.6 -0.6 -0.61 -0.6 -0.61 -0.6 -0.61 -0.6 -0.61 -0.6 -0.61 -0.6 -0.61 -0.6 -0.61 -0.6 -0.61 -0.6 -0.61 -0.6 -0.61 -0.6 -0.6 -0.61 -0.6 -0.61 -0.6 -0.61 -0.6 -0.61 -0.6 -0.61 -0.6 -0.61 -0.6 -0.61 -0.6 -0.61 -0.6 -0.61 -0.6 -0.6 -0.61 -0.6 -0.61 -0.6 -0.61 -0.6 -0.61 -0.6 -0.61 -0.6 -0.61 -0.6 -0.61 -0.6 -0.61 -0.6 -0.61 -0.6 -0.6 -0.61 -0.6 -0.61 -0.6 -0.61 -0.6 -0.61 -0.6 -0.61 -0.6 -0.61 -0.6 -0.61 -0.6 -0.61 -0.6 -0.61 -0.6 -0.6 z" /><path
           id="path66"
           style="fill:#fc4e2a;fill-opacity:0.298;fill-rule:nonzero;stroke:none"
           d="m 33.5,91.11 h 0.6 0.6 0.61 0.6 0.61 0.6 0.61 0.6 0.61 0.6 0.61 0.6 0.61 0.6 0.61 0.6 0.61 0.6 0.61 0.6 0.6 0.61 0.6 0.61 0.6 0.61 0.6 0.61 0.6 0.61 0.6 0.61 0.6 0.61 0.6 0.61 0.6 0.61 0.6 0.6 0.61 0.6 0.61 0.6 0.61 0.6 0.61 0.6 0.61 0.6 0.61 0.6 0.61 0.6 0.61 0.6 0.61 0.6 0.6 0.61 0.6 0.61 0.6 0.61 0.6 0.61 0.6 0.61 0.6 0.61 0.6 0.61 0.6 0.61 0.6 0.61 0.6 0.61 0.6 0.6 0.61 0.6 0.61 0.6 0.61 0.6 0.61 0.6 0.61 0.6 0.61 0.6 0.61 0.6 0.61 0.6 0.61 0.6 0.6 0.61 0.6 0.61 0.6 0.61 0.6 0.61 0.6 0.61 0.6 0.61 0.6 0.61 0.6 0.61 0.6 0.61 0.6 0.6 0.61 0.6 0.61 0.6 0.61 0.6 0.61 0.6 0.61 0.6 0.61 0.6 0.61 0.6 0.61 0.6 0.61 0.6 0.6 0.61 0.6 0.61 0.6 0.61 0.6 0.61 0.6 0.61 0.6 0.61 0.6 0.61 0.6 0.61 0.6 0.61 0.6 0.6 0.61 0.6 0.61 0.6 0.61 0.6 0.61 0.6 0.61 0.6 0.61 0.6 0.61 0.6 0.61 0.6 0.61 0.6 0.61 0.6 0.6 0.61 0.6 0.61 0.6 0.61 0.6 0.61 0.6 0.61 0.6 0.61 0.6 0.61 0.6 0.61 0.6 0.61 0.6 0.6 0.61 0.6 0.61 0.6 V 76.12 h -0.6 -0.61 -0.6 -0.61 -0.6 -0.6 -0.61 -0.6 -0.61 -0.6 -0.61 -0.6 -0.61 -0.6 -0.61 -0.6 -0.61 -0.6 -0.61 -0.6 -0.61 -0.6 -0.61 -0.6 -0.6 -0.61 -0.6 -0.61 -0.6 -0.61 -0.6 -0.61 -0.6 -0.61 -0.6 -0.61 -0.6 -0.61 -0.6 -0.61 -0.6 -0.61 -0.6 -0.61 -0.6 -0.6 -0.61 -0.6 -0.61 -0.6 -0.61 -0.6 -0.61 -0.6 -0.61 -0.6 -0.61 -0.6 -0.61 -0.6 -0.61 -0.6 -0.61 -0.6 -0.6 -0.61 -0.6 -0.61 -0.6 -0.61 -0.6 -0.61 -0.6 -0.61 -0.6 -0.61 -0.6 -0.61 -0.6 -0.61 -0.6 -0.61 -0.6 -0.6 -0.61 -0.6 -0.61 -0.6 -0.61 -0.6 -0.61 -0.6 -0.61 -0.6 -0.61 -0.6 -0.61 -0.6 -0.61 -0.6 -0.61 -0.6 -0.6 -0.61 -0.6 -0.61 -0.6 -0.61 -0.6 -0.61 -0.6 -0.61 -0.6 -0.61 -0.6 -0.61 -0.6 -0.61 -0.6 -0.61 -0.6 -0.6 -0.61 -0.6 -0.61 -0.6 -0.61 -0.6 -0.61 -0.6 -0.61 -0.6 -0.61 -0.6 -0.61 -0.6 -0.61 -0.6 -0.61 -0.6 -0.61 -0.6 -0.6 -0.61 -0.6 -0.61 -0.6 -0.61 -0.6 -0.61 -0.6 -0.61 -0.6 -0.61 -0.6 -0.61 -0.6 -0.61 -0.6 -0.61 -0.6 -0.6 -0.61 -0.6 -0.61 -0.6 -0.61 -0.6 -0.61 -0.6 -0.61 -0.6 -0.61 -0.6 -0.61 -0.6 -0.61 -0.6 -0.61 -0.6 -0.6 -0.61 -0.6 -0.61 -0.6 -0.61 -0.6 -0.61 -0.6 -0.61 -0.6 -0.61 -0.6 -0.61 -0.6 -0.61 -0.6 -0.61 -0.6 -0.6 z" /><path
           id="path68"
           style="fill:#ce2029;fill-opacity:0.502;fill-rule:nonzero;stroke:none"
           d="m 33.5,203.3 h 0.6 0.6 0.61 0.6 0.61 0.6 0.61 0.6 0.61 0.6 0.61 0.6 0.61 0.6 0.61 0.6 0.61 0.6 0.61 0.6 0.6 0.61 0.6 0.61 0.6 0.61 0.6 0.61 0.6 0.61 0.6 0.61 0.6 0.61 0.6 0.61 0.6 0.61 0.6 0.6 0.61 0.6 0.61 0.6 0.61 0.6 0.61 0.6 0.61 0.6 0.61 0.6 0.61 0.6 0.61 0.6 0.61 0.6 0.6 0.61 0.6 0.61 0.6 0.61 0.6 0.61 0.6 0.61 0.6 0.61 0.6 0.61 0.6 0.61 0.6 0.61 0.6 0.61 0.6 0.6 0.61 0.6 0.61 0.6 0.61 0.6 0.61 0.6 0.61 0.6 0.61 0.6 0.61 0.6 0.61 0.6 0.61 0.6 0.6 0.61 0.6 0.61 0.6 0.61 0.6 0.61 0.6 0.61 0.6 0.61 0.6 0.61 0.6 0.61 0.6 0.61 0.6 0.6 0.61 0.6 0.61 0.6 0.61 0.6 0.61 0.6 0.61 0.6 0.61 0.6 0.61 0.6 0.61 0.6 0.61 0.6 0.6 0.61 0.6 0.61 0.6 0.61 0.6 0.61 0.6 0.61 0.6 0.61 0.6 0.61 0.6 0.61 0.6 0.61 0.6 0.6 0.61 0.6 0.61 0.6 0.61 0.6 0.61 0.6 0.61 0.6 0.61 0.6 0.61 0.6 0.61 0.6 0.61 0.6 0.61 0.6 0.6 0.61 0.6 0.61 0.6 0.61 0.6 0.61 0.6 0.61 0.6 0.61 0.6 0.61 0.6 0.61 0.6 0.61 0.6 0.6 0.61 0.6 0.61 0.6 V 91.11 h -0.6 -0.61 -0.6 -0.61 -0.6 -0.6 -0.61 -0.6 -0.61 -0.6 -0.61 -0.6 -0.61 -0.6 -0.61 -0.6 -0.61 -0.6 -0.61 -0.6 -0.61 -0.6 -0.61 -0.6 -0.6 -0.61 -0.6 -0.61 -0.6 -0.61 -0.6 -0.61 -0.6 -0.61 -0.6 -0.61 -0.6 -0.61 -0.6 -0.61 -0.6 -0.61 -0.6 -0.61 -0.6 -0.6 -0.61 -0.6 -0.61 -0.6 -0.61 -0.6 -0.61 -0.6 -0.61 -0.6 -0.61 -0.6 -0.61 -0.6 -0.61 -0.6 -0.61 -0.6 -0.6 -0.61 -0.6 -0.61 -0.6 -0.61 -0.6 -0.61 -0.6 -0.61 -0.6 -0.61 -0.6 -0.61 -0.6 -0.61 -0.6 -0.61 -0.6 -0.6 -0.61 -0.6 -0.61 -0.6 -0.61 -0.6 -0.61 -0.6 -0.61 -0.6 -0.61 -0.6 -0.61 -0.6 -0.61 -0.6 -0.61 -0.6 -0.6 -0.61 -0.6 -0.61 -0.6 -0.61 -0.6 -0.61 -0.6 -0.61 -0.6 -0.61 -0.6 -0.61 -0.6 -0.61 -0.6 -0.61 -0.6 -0.6 -0.61 -0.6 -0.61 -0.6 -0.61 -0.6 -0.61 -0.6 -0.61 -0.6 -0.61 -0.6 -0.61 -0.6 -0.61 -0.6 -0.61 -0.6 -0.61 -0.6 -0.6 -0.61 -0.6 -0.61 -0.6 -0.61 -0.6 -0.61 -0.6 -0.61 -0.6 -0.61 -0.6 -0.61 -0.6 -0.61 -0.6 -0.61 -0.6 -0.6 -0.61 -0.6 -0.61 -0.6 -0.61 -0.6 -0.61 -0.6 -0.61 -0.6 -0.61 -0.6 -0.61 -0.6 -0.61 -0.6 -0.61 -0.6 -0.6 -0.61 -0.6 -0.61 -0.6 -0.61 -0.6 -0.61 -0.6 -0.61 -0.6 -0.61 -0.6 -0.61 -0.6 -0.61 -0.6 -0.61 -0.6 -0.6 z" /><path
           id="path70"
           style="fill:#000000;fill-opacity:1;fill-rule:nonzero;stroke:none"
           d="m 33.5,29.88 h 0.6 0.6 0.61 0.6 0.61 0.6 0.61 0.6 0.61 0.6 0.61 0.6 0.61 0.6 0.61 0.6 0.61 0.6 0.61 0.6 0.6 0.61 0.6 l 0.61,0.46 h 0.6 0.61 0.6 0.61 0.6 0.61 0.6 0.61 0.6 0.61 0.6 0.61 0.6 0.61 0.6 0.6 0.61 0.6 0.61 l 0.6,0.46 h 0.61 0.6 0.61 0.6 0.61 0.6 0.61 0.6 0.61 l 0.6,0.47 h 0.61 0.6 0.61 0.6 0.6 0.61 l 0.6,0.46 h 0.61 0.6 0.61 0.6 0.61 l 0.6,0.46 h 0.61 0.6 0.61 0.6 0.61 l 0.6,0.46 h 0.61 0.6 0.61 0.6 l 0.61,0.47 h 0.6 0.6 0.61 0.6 l 0.61,0.46 h 0.6 0.61 0.6 0.61 l 0.6,0.46 h 0.61 0.6 0.61 l 0.6,0.46 h 0.61 0.6 0.61 l 0.6,0.47 h 0.61 0.6 0.6 l 0.61,0.46 h 0.6 0.61 l 0.6,0.46 h 0.61 0.6 l 0.61,0.46 h 0.6 l 0.61,0.47 h 0.6 0.61 l 0.6,0.46 h 0.61 l 0.6,0.46 h 0.61 l 0.6,0.46 0.61,0.47 h 0.6 l 0.6,0.46 0.61,0.46 h 0.6 l 0.61,0.46 0.6,0.47 0.61,0.46 0.6,0.46 h 0.61 l 0.6,0.46 0.61,0.47 0.6,0.46 0.61,0.46 0.6,0.46 0.61,0.47 0.6,0.46 0.61,0.46 0.6,0.46 0.61,0.47 0.6,0.46 0.6,0.46 0.61,0.46 0.6,0.47 0.61,0.46 0.6,0.46 0.61,0.46 0.6,0.46 0.61,0.47 0.6,0.46 0.61,0.92 0.6,0.47 0.61,0.46 0.6,0.46 0.61,0.46 0.6,0.47 0.61,0.92 0.6,0.46 0.61,0.47 0.6,0.92 0.6,0.46 0.61,0.93 0.6,0.46 0.61,0.93 0.6,0.46 0.61,0.92 0.6,0.47 0.61,0.92 0.6,0.93 0.61,0.46 0.6,0.92 0.61,0.47 0.6,0.92 0.61,0.93 v -37 h -0.61 -0.6 -0.61 -0.6 -0.61 -0.6 -0.61 -0.6 -0.61 -0.6 -0.61 -0.6 -0.61 -0.6 -0.6 -0.61 -0.6 -0.61 -0.6 -0.61 -0.6 -0.61 -0.6 -0.61 -0.6 -0.61 -0.6 -0.61 -0.6 -0.61 -0.6 -0.61 -0.6 -0.6 -0.61 -0.6 -0.61 -0.6 -0.61 -0.6 -0.61 -0.6 -0.61 -0.6 -0.61 -0.6 -0.61 -0.6 -0.61 -0.6 -0.61 -0.6 -0.6 -0.61 -0.6 -0.61 -0.6 -0.61 -0.6 -0.61 -0.6 -0.61 -0.6 -0.61 -0.6 -0.61 -0.6 -0.61 -0.6 -0.61 -0.6 -0.6 -0.61 -0.6 -0.61 -0.6 -0.61 -0.6 -0.61 -0.6 -0.61 -0.6 -0.61 -0.6 -0.61 -0.6 -0.61 -0.6 -0.61 -0.6 -0.6 -0.61 -0.6 -0.61 -0.6 -0.61 -0.6 -0.61 -0.6 -0.61 -0.6 -0.61 -0.6 -0.61 -0.6 -0.61 -0.6 -0.61 -0.6 -0.61 -0.6 -0.6 -0.61 -0.6 -0.61 -0.6 -0.61 -0.6 -0.61 -0.6 -0.61 -0.6 -0.61 -0.6 -0.61 -0.6 -0.61 -0.6 -0.61 -0.6 -0.6 -0.61 -0.6 -0.61 -0.6 -0.61 -0.6 -0.61 -0.6 -0.61 -0.6 -0.61 -0.6 -0.61 -0.6 -0.61 -0.6 -0.61 -0.6 -0.6 -0.61 -0.6 -0.61 -0.6 -0.61 -0.6 -0.61 -0.6 -0.61 -0.6 -0.61 -0.6 -0.61 -0.6 -0.61 -0.6 -0.61 -0.6 z" /><path
           id="path72"
           style="fill:none;stroke:#387f30;stroke-width:1.92;stroke-linecap:butt;stroke-linejoin:round;stroke-miterlimit:10;stroke-dasharray:none;stroke-opacity:1"
           d="m 33.5,47.49 h 0.6 0.6 0.61 0.6 0.61 0.6 0.61 0.6 0.61 0.6 0.61 0.6 0.61 0.6 0.61 0.6 0.61 0.6 0.61 0.6 0.6 0.61 0.6 0.61 0.6 0.61 0.6 0.61 0.6 0.61 0.6 0.61 0.6 0.61 0.6 0.61 0.6 0.61 0.6 0.6 0.61 0.6 0.61 0.6 0.61 0.6 0.61 0.6 0.61 0.6 0.61 0.6 0.61 0.6 0.61 0.6 0.61 0.6 0.6 0.61 0.6 0.61 0.6 0.61 0.6 0.61 0.6 0.61 0.6 0.61 0.6 0.61 0.6 0.61 0.6 0.61 0.6 0.61 0.6 0.6 0.61 0.6 0.61 0.6 0.61 0.6 0.61 0.6 0.61 0.6 0.61 0.6 0.61 0.6 0.61 0.6 0.61 0.6 0.6 0.61 0.6 0.61 0.6 0.61 0.6 0.61 0.6 0.61 0.6 0.61 0.6 0.61 0.6 0.61 0.6 0.61 0.6 0.6 0.61 0.6 0.61 0.6 0.61 0.6 0.61 0.6 0.61 0.6 0.61 0.6 0.61 0.6 0.61 0.6 0.61 0.6 0.6 0.61 0.6 0.61 0.6 0.61 0.6 0.61 0.6 0.61 0.6 0.61 0.6 0.61 0.6 0.61 0.6 0.61 0.6 0.6 0.61 0.6 0.61 0.6 0.61 0.6 0.61 0.6 0.61 0.6 0.61 0.6 0.61 0.6 0.61 0.6 0.61 0.6 0.61 0.6 0.6 0.61 0.6 0.61 0.6 0.61 0.6 0.61 0.6 0.61 0.6 0.61 0.6 0.61 0.6 0.61 0.6 0.61 0.6 0.6 0.61 0.6 0.61 0.6" /><path
           id="path74"
           style="fill:none;stroke:#feb24c;stroke-width:1.92;stroke-linecap:butt;stroke-linejoin:round;stroke-miterlimit:10;stroke-dasharray:none;stroke-opacity:1"
           d="m 33.5,76.12 h 0.6 0.6 0.61 0.6 0.61 0.6 0.61 0.6 0.61 0.6 0.61 0.6 0.61 0.6 0.61 0.6 0.61 0.6 0.61 0.6 0.6 0.61 0.6 0.61 0.6 0.61 0.6 0.61 0.6 0.61 0.6 0.61 0.6 0.61 0.6 0.61 0.6 0.61 0.6 0.6 0.61 0.6 0.61 0.6 0.61 0.6 0.61 0.6 0.61 0.6 0.61 0.6 0.61 0.6 0.61 0.6 0.61 0.6 0.6 0.61 0.6 0.61 0.6 0.61 0.6 0.61 0.6 0.61 0.6 0.61 0.6 0.61 0.6 0.61 0.6 0.61 0.6 0.61 0.6 0.6 0.61 0.6 0.61 0.6 0.61 0.6 0.61 0.6 0.61 0.6 0.61 0.6 0.61 0.6 0.61 0.6 0.61 0.6 0.6 0.61 0.6 0.61 0.6 0.61 0.6 0.61 0.6 0.61 0.6 0.61 0.6 0.61 0.6 0.61 0.6 0.61 0.6 0.6 0.61 0.6 0.61 0.6 0.61 0.6 0.61 0.6 0.61 0.6 0.61 0.6 0.61 0.6 0.61 0.6 0.61 0.6 0.6 0.61 0.6 0.61 0.6 0.61 0.6 0.61 0.6 0.61 0.6 0.61 0.6 0.61 0.6 0.61 0.6 0.61 0.6 0.6 0.61 0.6 0.61 0.6 0.61 0.6 0.61 0.6 0.61 0.6 0.61 0.6 0.61 0.6 0.61 0.6 0.61 0.6 0.61 0.6 0.6 0.61 0.6 0.61 0.6 0.61 0.6 0.61 0.6 0.61 0.6 0.61 0.6 0.61 0.6 0.61 0.6 0.61 0.6 0.6 0.61 0.6 0.61 0.6" /><path
           id="path76"
           style="fill:none;stroke:#e31a1c;stroke-width:1.92;stroke-linecap:butt;stroke-linejoin:round;stroke-miterlimit:10;stroke-dasharray:none;stroke-opacity:1"
           d="m 33.5,91.11 h 0.6 0.6 0.61 0.6 0.61 0.6 0.61 0.6 0.61 0.6 0.61 0.6 0.61 0.6 0.61 0.6 0.61 0.6 0.61 0.6 0.6 0.61 0.6 0.61 0.6 0.61 0.6 0.61 0.6 0.61 0.6 0.61 0.6 0.61 0.6 0.61 0.6 0.61 0.6 0.6 0.61 0.6 0.61 0.6 0.61 0.6 0.61 0.6 0.61 0.6 0.61 0.6 0.61 0.6 0.61 0.6 0.61 0.6 0.6 0.61 0.6 0.61 0.6 0.61 0.6 0.61 0.6 0.61 0.6 0.61 0.6 0.61 0.6 0.61 0.6 0.61 0.6 0.61 0.6 0.6 0.61 0.6 0.61 0.6 0.61 0.6 0.61 0.6 0.61 0.6 0.61 0.6 0.61 0.6 0.61 0.6 0.61 0.6 0.6 0.61 0.6 0.61 0.6 0.61 0.6 0.61 0.6 0.61 0.6 0.61 0.6 0.61 0.6 0.61 0.6 0.61 0.6 0.6 0.61 0.6 0.61 0.6 0.61 0.6 0.61 0.6 0.61 0.6 0.61 0.6 0.61 0.6 0.61 0.6 0.61 0.6 0.6 0.61 0.6 0.61 0.6 0.61 0.6 0.61 0.6 0.61 0.6 0.61 0.6 0.61 0.6 0.61 0.6 0.61 0.6 0.6 0.61 0.6 0.61 0.6 0.61 0.6 0.61 0.6 0.61 0.6 0.61 0.6 0.61 0.6 0.61 0.6 0.61 0.6 0.61 0.6 0.6 0.61 0.6 0.61 0.6 0.61 0.6 0.61 0.6 0.61 0.6 0.61 0.6 0.61 0.6 0.61 0.6 0.61 0.6 0.6 0.61 0.6 0.61 0.6" /><path
           id="path78"
           style="fill:#525252;fill-opacity:0.298;fill-rule:nonzero;stroke:none"
           d="m 136.3,67.8 0.61,0.46 0.6,0.93 0.61,0.92 0.6,1.39 0.61,0.93 0.6,0.92 0.6,0.93 0.61,1.38 0.6,0.93 0.61,0.92 0.6,1.39 0.61,1.39 0.6,0.92 0.61,1.39 0.6,1.39 0.61,1.38 0.6,1.39 0.61,1.39 0.6,1.39 0.61,1.38 0.6,1.85 0.61,1.39 0.6,1.85 0.61,1.39 0.6,1.85 0.6,1.39 0.61,1.84 0.6,1.85 0.61,1.85 0.6,1.85 V 90.46 l -0.6,-0.92 -0.61,-0.47 -0.6,-0.92 -0.61,-0.46 -0.6,-0.93 -0.6,-0.92 -0.61,-0.47 -0.6,-0.92 -0.61,-0.93 -0.6,-0.46 -0.61,-0.92 -0.6,-0.93 -0.61,-0.46 -0.6,-0.93 -0.61,-0.92 -0.6,-0.46 -0.61,-0.93 -0.6,-0.92 -0.61,-0.47 -0.6,-0.92 -0.61,-0.92 -0.6,-0.47 -0.61,-0.92 -0.6,-0.93 -0.6,-0.46 -0.61,-0.92 -0.6,-0.93 -0.61,-0.46 -0.6,-0.93 -0.61,-0.92 z" /><path
           id="path80"
           style="fill:none;stroke:#000000;stroke-width:1.92;stroke-linecap:butt;stroke-linejoin:round;stroke-miterlimit:10;stroke-dasharray:7.68, 7.68;stroke-dashoffset:0;stroke-opacity:1"
           d="m 136.3,67.8 0.61,0.46 0.6,0.93 0.61,0.92 0.6,0.93 0.61,0.92 0.6,0.93 0.6,0.92 0.61,0.93 0.6,0.92 0.61,0.93 0.6,0.92 0.61,0.93 0.6,0.92 0.61,0.93 0.6,1.38 0.61,0.93 0.6,0.92 0.61,1.39 0.6,0.93 0.61,1.38 0.6,0.93 0.61,1.39 0.6,0.92 0.61,1.39 0.6,0.92 0.6,1.39 0.61,1.39 0.6,0.92 0.61,1.39 0.6,1.39" /><path
           id="path82"
           style="fill:none;stroke:#0000a5;stroke-width:1.92;stroke-linecap:butt;stroke-linejoin:round;stroke-miterlimit:10;stroke-dasharray:none;stroke-opacity:1"
           d="m 136.3,67.8 0.61,0.46 0.6,0.47 0.61,0.92 0.6,0.46 h 0.61 l 0.6,0.47 0.6,0.46 h 0.61 l 0.6,0.46 h 0.61 l 0.6,0.46 h 0.61 0.6 l 0.61,0.47 h 0.6 0.61 0.6 l 0.61,0.46 h 0.6 0.61 0.6 0.61 0.6 0.61 0.6 0.6 0.61 l 0.6,0.46 h 0.61 0.6" /></g></g><g
       id="g84" /><g
       id="g86"><g
         clip-path="url(#clipPath92)"
         id="g88"><path
           id="path94"
           style="fill:#ffffff;fill-opacity:1;fill-rule:nonzero;stroke:#7f7f7f;stroke-width:1.07;stroke-linecap:round;stroke-linejoin:round;stroke-miterlimit:10;stroke-dasharray:none;stroke-opacity:1"
           d="M 172.44,29.88 H 293.39 V 203.3 H 172.44 Z" /><path
           id="path96"
           style="fill:#a1d99b;fill-opacity:0.298;fill-rule:nonzero;stroke:none"
           d="m 172.44,47.49 h 0.61 0.6 0.61 0.6 0.61 0.6 0.61 0.6 0.61 0.6 0.61 0.6 0.61 0.6 0.6 0.61 0.6 0.61 0.6 0.61 0.6 0.61 0.6 0.61 0.6 0.61 0.6 0.61 0.6 0.61 0.6 0.61 0.6 0.6 0.61 0.6 0.61 0.6 0.61 0.6 0.61 0.6 0.61 0.6 0.61 0.6 0.61 0.6 0.61 0.6 0.61 0.6 0.6 0.61 0.6 0.61 0.6 0.61 0.6 0.61 0.6 0.61 0.6 0.61 0.6 0.61 0.6 0.61 0.6 0.61 0.6 0.6 0.61 0.6 0.61 0.6 0.61 0.6 0.61 0.6 0.61 0.6 0.61 0.6 0.61 0.6 0.61 0.6 0.61 0.6 0.61 0.6 0.6 0.61 0.6 0.61 0.6 0.61 0.6 0.61 0.6 0.61 0.6 0.61 0.6 0.61 0.6 0.61 0.6 0.61 0.6 0.6 0.61 0.6 0.61 0.6 0.61 0.6 0.61 0.6 0.61 0.6 0.61 0.6 0.61 0.6 0.61 0.6 0.61 0.6 0.6 0.61 0.6 0.61 0.6 0.61 0.6 0.61 0.6 0.61 0.6 0.61 0.6 0.61 0.6 0.61 0.6 0.61 0.6 0.6 0.61 0.6 0.61 0.6 0.61 0.6 0.61 0.6 0.61 0.6 0.61 0.6 0.61 0.6 0.61 0.6 0.61 0.6 0.6 0.61 0.6 0.61 0.6 0.61 0.6 0.61 0.6 0.61 0.6 0.61 0.6 0.61 0.6 0.61 0.6 0.61 0.6 0.6 0.61 0.6 0.61 0.6 0.61 0.6 0.61 0.6 0.61 0.6 0.61 0.6 V 29.88 h -0.6 -0.61 -0.6 -0.61 -0.6 -0.61 -0.6 -0.61 -0.6 -0.61 -0.6 -0.61 -0.6 -0.6 -0.61 -0.6 -0.61 -0.6 -0.61 -0.6 -0.61 -0.6 -0.61 -0.6 -0.61 -0.6 -0.61 -0.6 -0.61 -0.6 -0.61 -0.6 -0.6 -0.61 -0.6 -0.61 -0.6 -0.61 -0.6 -0.61 -0.6 -0.61 -0.6 -0.61 -0.6 -0.61 -0.6 -0.61 -0.6 -0.61 -0.6 -0.6 -0.61 -0.6 -0.61 -0.6 -0.61 -0.6 -0.61 -0.6 -0.61 -0.6 -0.61 -0.6 -0.61 -0.6 -0.61 -0.6 -0.61 -0.6 -0.6 -0.61 -0.6 -0.61 -0.6 -0.61 -0.6 -0.61 -0.6 -0.61 -0.6 -0.61 -0.6 -0.61 -0.6 -0.61 -0.6 -0.61 -0.6 -0.6 -0.61 -0.6 -0.61 -0.6 -0.61 -0.6 -0.61 -0.6 -0.61 -0.6 -0.61 -0.6 -0.61 -0.6 -0.61 -0.6 -0.61 -0.6 -0.6 -0.61 -0.6 -0.61 -0.6 -0.61 -0.6 -0.61 -0.6 -0.61 -0.6 -0.61 -0.6 -0.61 -0.6 -0.61 -0.6 -0.61 -0.6 -0.61 -0.6 -0.6 -0.61 -0.6 -0.61 -0.6 -0.61 -0.6 -0.61 -0.6 -0.61 -0.6 -0.61 -0.6 -0.61 -0.6 -0.61 -0.6 -0.61 -0.6 -0.6 -0.61 -0.6 -0.61 -0.6 -0.61 -0.6 -0.61 -0.6 -0.61 -0.6 -0.61 -0.6 -0.61 -0.6 -0.61 -0.6 -0.61 -0.6 -0.6 -0.61 -0.6 -0.61 -0.6 -0.61 -0.6 -0.61 -0.6 -0.61 -0.6 -0.61 -0.6 -0.61 -0.6 -0.61 -0.6 -0.61 -0.6 -0.6 -0.61 -0.6 -0.61 -0.6 -0.61 -0.6 -0.61 -0.6 -0.61 -0.6 -0.61 -0.6 -0.61 z" /><path
           id="path98"
           style="fill:#ffeda0;fill-opacity:0.298;fill-rule:nonzero;stroke:none"
           d="m 172.44,76.12 h 0.61 0.6 0.61 0.6 0.61 0.6 0.61 0.6 0.61 0.6 0.61 0.6 0.61 0.6 0.6 0.61 0.6 0.61 0.6 0.61 0.6 0.61 0.6 0.61 0.6 0.61 0.6 0.61 0.6 0.61 0.6 0.61 0.6 0.6 0.61 0.6 0.61 0.6 0.61 0.6 0.61 0.6 0.61 0.6 0.61 0.6 0.61 0.6 0.61 0.6 0.61 0.6 0.6 0.61 0.6 0.61 0.6 0.61 0.6 0.61 0.6 0.61 0.6 0.61 0.6 0.61 0.6 0.61 0.6 0.61 0.6 0.6 0.61 0.6 0.61 0.6 0.61 0.6 0.61 0.6 0.61 0.6 0.61 0.6 0.61 0.6 0.61 0.6 0.61 0.6 0.61 0.6 0.6 0.61 0.6 0.61 0.6 0.61 0.6 0.61 0.6 0.61 0.6 0.61 0.6 0.61 0.6 0.61 0.6 0.61 0.6 0.6 0.61 0.6 0.61 0.6 0.61 0.6 0.61 0.6 0.61 0.6 0.61 0.6 0.61 0.6 0.61 0.6 0.61 0.6 0.6 0.61 0.6 0.61 0.6 0.61 0.6 0.61 0.6 0.61 0.6 0.61 0.6 0.61 0.6 0.61 0.6 0.61 0.6 0.6 0.61 0.6 0.61 0.6 0.61 0.6 0.61 0.6 0.61 0.6 0.61 0.6 0.61 0.6 0.61 0.6 0.61 0.6 0.6 0.61 0.6 0.61 0.6 0.61 0.6 0.61 0.6 0.61 0.6 0.61 0.6 0.61 0.6 0.61 0.6 0.61 0.6 0.6 0.61 0.6 0.61 0.6 0.61 0.6 0.61 0.6 0.61 0.6 0.61 0.6 V 47.49 h -0.6 -0.61 -0.6 -0.61 -0.6 -0.61 -0.6 -0.61 -0.6 -0.61 -0.6 -0.61 -0.6 -0.6 -0.61 -0.6 -0.61 -0.6 -0.61 -0.6 -0.61 -0.6 -0.61 -0.6 -0.61 -0.6 -0.61 -0.6 -0.61 -0.6 -0.61 -0.6 -0.6 -0.61 -0.6 -0.61 -0.6 -0.61 -0.6 -0.61 -0.6 -0.61 -0.6 -0.61 -0.6 -0.61 -0.6 -0.61 -0.6 -0.61 -0.6 -0.6 -0.61 -0.6 -0.61 -0.6 -0.61 -0.6 -0.61 -0.6 -0.61 -0.6 -0.61 -0.6 -0.61 -0.6 -0.61 -0.6 -0.61 -0.6 -0.6 -0.61 -0.6 -0.61 -0.6 -0.61 -0.6 -0.61 -0.6 -0.61 -0.6 -0.61 -0.6 -0.61 -0.6 -0.61 -0.6 -0.61 -0.6 -0.6 -0.61 -0.6 -0.61 -0.6 -0.61 -0.6 -0.61 -0.6 -0.61 -0.6 -0.61 -0.6 -0.61 -0.6 -0.61 -0.6 -0.61 -0.6 -0.6 -0.61 -0.6 -0.61 -0.6 -0.61 -0.6 -0.61 -0.6 -0.61 -0.6 -0.61 -0.6 -0.61 -0.6 -0.61 -0.6 -0.61 -0.6 -0.61 -0.6 -0.6 -0.61 -0.6 -0.61 -0.6 -0.61 -0.6 -0.61 -0.6 -0.61 -0.6 -0.61 -0.6 -0.61 -0.6 -0.61 -0.6 -0.61 -0.6 -0.6 -0.61 -0.6 -0.61 -0.6 -0.61 -0.6 -0.61 -0.6 -0.61 -0.6 -0.61 -0.6 -0.61 -0.6 -0.61 -0.6 -0.61 -0.6 -0.6 -0.61 -0.6 -0.61 -0.6 -0.61 -0.6 -0.61 -0.6 -0.61 -0.6 -0.61 -0.6 -0.61 -0.6 -0.61 -0.6 -0.61 -0.6 -0.6 -0.61 -0.6 -0.61 -0.6 -0.61 -0.6 -0.61 -0.6 -0.61 -0.6 -0.61 -0.6 -0.61 z" /><path
           id="path100"
           style="fill:#fc4e2a;fill-opacity:0.298;fill-rule:nonzero;stroke:none"
           d="m 172.44,91.11 h 0.61 0.6 0.61 0.6 0.61 0.6 0.61 0.6 0.61 0.6 0.61 0.6 0.61 0.6 0.6 0.61 0.6 0.61 0.6 0.61 0.6 0.61 0.6 0.61 0.6 0.61 0.6 0.61 0.6 0.61 0.6 0.61 0.6 0.6 0.61 0.6 0.61 0.6 0.61 0.6 0.61 0.6 0.61 0.6 0.61 0.6 0.61 0.6 0.61 0.6 0.61 0.6 0.6 0.61 0.6 0.61 0.6 0.61 0.6 0.61 0.6 0.61 0.6 0.61 0.6 0.61 0.6 0.61 0.6 0.61 0.6 0.6 0.61 0.6 0.61 0.6 0.61 0.6 0.61 0.6 0.61 0.6 0.61 0.6 0.61 0.6 0.61 0.6 0.61 0.6 0.61 0.6 0.6 0.61 0.6 0.61 0.6 0.61 0.6 0.61 0.6 0.61 0.6 0.61 0.6 0.61 0.6 0.61 0.6 0.61 0.6 0.6 0.61 0.6 0.61 0.6 0.61 0.6 0.61 0.6 0.61 0.6 0.61 0.6 0.61 0.6 0.61 0.6 0.61 0.6 0.6 0.61 0.6 0.61 0.6 0.61 0.6 0.61 0.6 0.61 0.6 0.61 0.6 0.61 0.6 0.61 0.6 0.61 0.6 0.6 0.61 0.6 0.61 0.6 0.61 0.6 0.61 0.6 0.61 0.6 0.61 0.6 0.61 0.6 0.61 0.6 0.61 0.6 0.6 0.61 0.6 0.61 0.6 0.61 0.6 0.61 0.6 0.61 0.6 0.61 0.6 0.61 0.6 0.61 0.6 0.61 0.6 0.6 0.61 0.6 0.61 0.6 0.61 0.6 0.61 0.6 0.61 0.6 0.61 0.6 V 76.12 h -0.6 -0.61 -0.6 -0.61 -0.6 -0.61 -0.6 -0.61 -0.6 -0.61 -0.6 -0.61 -0.6 -0.6 -0.61 -0.6 -0.61 -0.6 -0.61 -0.6 -0.61 -0.6 -0.61 -0.6 -0.61 -0.6 -0.61 -0.6 -0.61 -0.6 -0.61 -0.6 -0.6 -0.61 -0.6 -0.61 -0.6 -0.61 -0.6 -0.61 -0.6 -0.61 -0.6 -0.61 -0.6 -0.61 -0.6 -0.61 -0.6 -0.61 -0.6 -0.6 -0.61 -0.6 -0.61 -0.6 -0.61 -0.6 -0.61 -0.6 -0.61 -0.6 -0.61 -0.6 -0.61 -0.6 -0.61 -0.6 -0.61 -0.6 -0.6 -0.61 -0.6 -0.61 -0.6 -0.61 -0.6 -0.61 -0.6 -0.61 -0.6 -0.61 -0.6 -0.61 -0.6 -0.61 -0.6 -0.61 -0.6 -0.6 -0.61 -0.6 -0.61 -0.6 -0.61 -0.6 -0.61 -0.6 -0.61 -0.6 -0.61 -0.6 -0.61 -0.6 -0.61 -0.6 -0.61 -0.6 -0.6 -0.61 -0.6 -0.61 -0.6 -0.61 -0.6 -0.61 -0.6 -0.61 -0.6 -0.61 -0.6 -0.61 -0.6 -0.61 -0.6 -0.61 -0.6 -0.61 -0.6 -0.6 -0.61 -0.6 -0.61 -0.6 -0.61 -0.6 -0.61 -0.6 -0.61 -0.6 -0.61 -0.6 -0.61 -0.6 -0.61 -0.6 -0.61 -0.6 -0.6 -0.61 -0.6 -0.61 -0.6 -0.61 -0.6 -0.61 -0.6 -0.61 -0.6 -0.61 -0.6 -0.61 -0.6 -0.61 -0.6 -0.61 -0.6 -0.6 -0.61 -0.6 -0.61 -0.6 -0.61 -0.6 -0.61 -0.6 -0.61 -0.6 -0.61 -0.6 -0.61 -0.6 -0.61 -0.6 -0.61 -0.6 -0.6 -0.61 -0.6 -0.61 -0.6 -0.61 -0.6 -0.61 -0.6 -0.61 -0.6 -0.61 -0.6 -0.61 z" /><path
           id="path102"
           style="fill:#ce2029;fill-opacity:0.502;fill-rule:nonzero;stroke:none"
           d="m 172.44,203.3 h 0.61 0.6 0.61 0.6 0.61 0.6 0.61 0.6 0.61 0.6 0.61 0.6 0.61 0.6 0.6 0.61 0.6 0.61 0.6 0.61 0.6 0.61 0.6 0.61 0.6 0.61 0.6 0.61 0.6 0.61 0.6 0.61 0.6 0.6 0.61 0.6 0.61 0.6 0.61 0.6 0.61 0.6 0.61 0.6 0.61 0.6 0.61 0.6 0.61 0.6 0.61 0.6 0.6 0.61 0.6 0.61 0.6 0.61 0.6 0.61 0.6 0.61 0.6 0.61 0.6 0.61 0.6 0.61 0.6 0.61 0.6 0.6 0.61 0.6 0.61 0.6 0.61 0.6 0.61 0.6 0.61 0.6 0.61 0.6 0.61 0.6 0.61 0.6 0.61 0.6 0.61 0.6 0.6 0.61 0.6 0.61 0.6 0.61 0.6 0.61 0.6 0.61 0.6 0.61 0.6 0.61 0.6 0.61 0.6 0.61 0.6 0.6 0.61 0.6 0.61 0.6 0.61 0.6 0.61 0.6 0.61 0.6 0.61 0.6 0.61 0.6 0.61 0.6 0.61 0.6 0.6 0.61 0.6 0.61 0.6 0.61 0.6 0.61 0.6 0.61 0.6 0.61 0.6 0.61 0.6 0.61 0.6 0.61 0.6 0.6 0.61 0.6 0.61 0.6 0.61 0.6 0.61 0.6 0.61 0.6 0.61 0.6 0.61 0.6 0.61 0.6 0.61 0.6 0.6 0.61 0.6 0.61 0.6 0.61 0.6 0.61 0.6 0.61 0.6 0.61 0.6 0.61 0.6 0.61 0.6 0.61 0.6 0.6 0.61 0.6 0.61 0.6 0.61 0.6 0.61 0.6 0.61 0.6 0.61 0.6 V 91.11 h -0.6 -0.61 -0.6 -0.61 -0.6 -0.61 -0.6 -0.61 -0.6 -0.61 -0.6 -0.61 -0.6 -0.6 -0.61 -0.6 -0.61 -0.6 -0.61 -0.6 -0.61 -0.6 -0.61 -0.6 -0.61 -0.6 -0.61 -0.6 -0.61 -0.6 -0.61 -0.6 -0.6 -0.61 -0.6 -0.61 -0.6 -0.61 -0.6 -0.61 -0.6 -0.61 -0.6 -0.61 -0.6 -0.61 -0.6 -0.61 -0.6 -0.61 -0.6 -0.6 -0.61 -0.6 -0.61 -0.6 -0.61 -0.6 -0.61 -0.6 -0.61 -0.6 -0.61 -0.6 -0.61 -0.6 -0.61 -0.6 -0.61 -0.6 -0.6 -0.61 -0.6 -0.61 -0.6 -0.61 -0.6 -0.61 -0.6 -0.61 -0.6 -0.61 -0.6 -0.61 -0.6 -0.61 -0.6 -0.61 -0.6 -0.6 -0.61 -0.6 -0.61 -0.6 -0.61 -0.6 -0.61 -0.6 -0.61 -0.6 -0.61 -0.6 -0.61 -0.6 -0.61 -0.6 -0.61 -0.6 -0.6 -0.61 -0.6 -0.61 -0.6 -0.61 -0.6 -0.61 -0.6 -0.61 -0.6 -0.61 -0.6 -0.61 -0.6 -0.61 -0.6 -0.61 -0.6 -0.61 -0.6 -0.6 -0.61 -0.6 -0.61 -0.6 -0.61 -0.6 -0.61 -0.6 -0.61 -0.6 -0.61 -0.6 -0.61 -0.6 -0.61 -0.6 -0.61 -0.6 -0.6 -0.61 -0.6 -0.61 -0.6 -0.61 -0.6 -0.61 -0.6 -0.61 -0.6 -0.61 -0.6 -0.61 -0.6 -0.61 -0.6 -0.61 -0.6 -0.6 -0.61 -0.6 -0.61 -0.6 -0.61 -0.6 -0.61 -0.6 -0.61 -0.6 -0.61 -0.6 -0.61 -0.6 -0.61 -0.6 -0.61 -0.6 -0.6 -0.61 -0.6 -0.61 -0.6 -0.61 -0.6 -0.61 -0.6 -0.61 -0.6 -0.61 -0.6 -0.61 z" /><path
           id="path104"
           style="fill:#000000;fill-opacity:1;fill-rule:nonzero;stroke:none"
           d="m 172.44,29.88 h 0.61 0.6 0.61 0.6 0.61 0.6 0.61 0.6 0.61 0.6 0.61 0.6 0.61 0.6 0.6 0.61 0.6 0.61 0.6 0.61 0.6 0.61 0.6 0.61 0.6 0.61 0.6 0.61 0.6 0.61 0.6 0.61 0.6 0.6 0.61 0.6 0.61 0.6 0.61 0.6 0.61 0.6 0.61 0.6 0.61 0.6 0.61 0.6 0.61 0.6 0.61 0.6 0.6 0.61 0.6 0.61 0.6 0.61 0.6 0.61 0.6 0.61 0.6 0.61 0.6 0.61 0.6 0.61 0.6 0.61 0.6 0.6 0.61 0.6 0.61 0.6 0.61 0.6 0.61 0.6 0.61 0.6 0.61 0.6 l 0.61,0.46 h 0.6 0.61 0.6 0.61 0.6 0.61 0.6 0.6 0.61 0.6 0.61 0.6 0.61 0.6 0.61 0.6 0.61 0.6 0.61 0.6 0.61 l 0.6,0.46 h 0.61 0.6 0.61 0.6 0.6 0.61 0.6 l 0.61,0.47 h 0.6 0.61 0.6 0.61 l 0.6,0.46 h 0.61 0.6 0.61 l 0.6,0.46 h 0.61 0.6 l 0.61,0.46 h 0.6 l 0.61,0.47 h 0.6 0.6 l 0.61,0.46 h 0.6 l 0.61,0.46 h 0.6 0.61 l 0.6,0.46 h 0.61 l 0.6,0.47 h 0.61 l 0.6,0.46 h 0.61 l 0.6,0.46 h 0.61 l 0.6,0.46 h 0.61 l 0.6,0.47 h 0.61 l 0.6,0.46 h 0.6 l 0.61,0.46 0.6,0.46 h 0.61 l 0.6,0.47 0.61,0.46 h 0.6 l 0.61,0.46 0.6,0.46 0.61,0.47 0.6,0.46 0.61,0.46 0.6,0.46 0.61,0.47 0.6,0.92 0.61,0.46 0.6,0.47 0.61,0.46 0.6,0.46 0.6,0.93 V 29.88 h -0.6 -0.6 -0.61 -0.6 -0.61 -0.6 -0.61 -0.6 -0.61 -0.6 -0.61 -0.6 -0.61 -0.6 -0.61 -0.6 -0.61 -0.6 -0.61 -0.6 -0.6 -0.61 -0.6 -0.61 -0.6 -0.61 -0.6 -0.61 -0.6 -0.61 -0.6 -0.61 -0.6 -0.61 -0.6 -0.61 -0.6 -0.61 -0.6 -0.6 -0.61 -0.6 -0.61 -0.6 -0.61 -0.6 -0.61 -0.6 -0.61 -0.6 -0.61 -0.6 -0.61 -0.6 -0.61 -0.6 -0.61 -0.6 -0.6 -0.61 -0.6 -0.61 -0.6 -0.61 -0.6 -0.61 -0.6 -0.61 -0.6 -0.61 -0.6 -0.61 -0.6 -0.61 -0.6 -0.61 -0.6 -0.6 -0.61 -0.6 -0.61 -0.6 -0.61 -0.6 -0.61 -0.6 -0.61 -0.6 -0.61 -0.6 -0.61 -0.6 -0.61 -0.6 -0.61 -0.6 -0.61 -0.6 -0.6 -0.61 -0.6 -0.61 -0.6 -0.61 -0.6 -0.61 -0.6 -0.61 -0.6 -0.61 -0.6 -0.61 -0.6 -0.61 -0.6 -0.61 -0.6 -0.6 -0.61 -0.6 -0.61 -0.6 -0.61 -0.6 -0.61 -0.6 -0.61 -0.6 -0.61 -0.6 -0.61 -0.6 -0.61 -0.6 -0.61 -0.6 -0.6 -0.61 -0.6 -0.61 -0.6 -0.61 -0.6 -0.61 -0.6 -0.61 -0.6 -0.61 -0.6 -0.61 -0.6 -0.61 -0.6 -0.61 -0.6 -0.6 -0.61 -0.6 -0.61 -0.6 -0.61 -0.6 -0.61 -0.6 -0.61 -0.6 -0.61 -0.6 z" /><path
           id="path106"
           style="fill:none;stroke:#387f30;stroke-width:1.92;stroke-linecap:butt;stroke-linejoin:round;stroke-miterlimit:10;stroke-dasharray:none;stroke-opacity:1"
           d="m 172.44,47.49 h 0.61 0.6 0.61 0.6 0.61 0.6 0.61 0.6 0.61 0.6 0.61 0.6 0.61 0.6 0.6 0.61 0.6 0.61 0.6 0.61 0.6 0.61 0.6 0.61 0.6 0.61 0.6 0.61 0.6 0.61 0.6 0.61 0.6 0.6 0.61 0.6 0.61 0.6 0.61 0.6 0.61 0.6 0.61 0.6 0.61 0.6 0.61 0.6 0.61 0.6 0.61 0.6 0.6 0.61 0.6 0.61 0.6 0.61 0.6 0.61 0.6 0.61 0.6 0.61 0.6 0.61 0.6 0.61 0.6 0.61 0.6 0.6 0.61 0.6 0.61 0.6 0.61 0.6 0.61 0.6 0.61 0.6 0.61 0.6 0.61 0.6 0.61 0.6 0.61 0.6 0.61 0.6 0.6 0.61 0.6 0.61 0.6 0.61 0.6 0.61 0.6 0.61 0.6 0.61 0.6 0.61 0.6 0.61 0.6 0.61 0.6 0.6 0.61 0.6 0.61 0.6 0.61 0.6 0.61 0.6 0.61 0.6 0.61 0.6 0.61 0.6 0.61 0.6 0.61 0.6 0.6 0.61 0.6 0.61 0.6 0.61 0.6 0.61 0.6 0.61 0.6 0.61 0.6 0.61 0.6 0.61 0.6 0.61 0.6 0.6 0.61 0.6 0.61 0.6 0.61 0.6 0.61 0.6 0.61 0.6 0.61 0.6 0.61 0.6 0.61 0.6 0.61 0.6 0.6 0.61 0.6 0.61 0.6 0.61 0.6 0.61 0.6 0.61 0.6 0.61 0.6 0.61 0.6 0.61 0.6 0.61 0.6 0.6 0.61 0.6 0.61 0.6 0.61 0.6 0.61 0.6 0.61 0.6 0.61 0.6" /><path
           id="path108"
           style="fill:none;stroke:#feb24c;stroke-width:1.92;stroke-linecap:butt;stroke-linejoin:round;stroke-miterlimit:10;stroke-dasharray:none;stroke-opacity:1"
           d="m 172.44,76.12 h 0.61 0.6 0.61 0.6 0.61 0.6 0.61 0.6 0.61 0.6 0.61 0.6 0.61 0.6 0.6 0.61 0.6 0.61 0.6 0.61 0.6 0.61 0.6 0.61 0.6 0.61 0.6 0.61 0.6 0.61 0.6 0.61 0.6 0.6 0.61 0.6 0.61 0.6 0.61 0.6 0.61 0.6 0.61 0.6 0.61 0.6 0.61 0.6 0.61 0.6 0.61 0.6 0.6 0.61 0.6 0.61 0.6 0.61 0.6 0.61 0.6 0.61 0.6 0.61 0.6 0.61 0.6 0.61 0.6 0.61 0.6 0.6 0.61 0.6 0.61 0.6 0.61 0.6 0.61 0.6 0.61 0.6 0.61 0.6 0.61 0.6 0.61 0.6 0.61 0.6 0.61 0.6 0.6 0.61 0.6 0.61 0.6 0.61 0.6 0.61 0.6 0.61 0.6 0.61 0.6 0.61 0.6 0.61 0.6 0.61 0.6 0.6 0.61 0.6 0.61 0.6 0.61 0.6 0.61 0.6 0.61 0.6 0.61 0.6 0.61 0.6 0.61 0.6 0.61 0.6 0.6 0.61 0.6 0.61 0.6 0.61 0.6 0.61 0.6 0.61 0.6 0.61 0.6 0.61 0.6 0.61 0.6 0.61 0.6 0.6 0.61 0.6 0.61 0.6 0.61 0.6 0.61 0.6 0.61 0.6 0.61 0.6 0.61 0.6 0.61 0.6 0.61 0.6 0.6 0.61 0.6 0.61 0.6 0.61 0.6 0.61 0.6 0.61 0.6 0.61 0.6 0.61 0.6 0.61 0.6 0.61 0.6 0.6 0.61 0.6 0.61 0.6 0.61 0.6 0.61 0.6 0.61 0.6 0.61 0.6" /><path
           id="path110"
           style="fill:none;stroke:#e31a1c;stroke-width:1.92;stroke-linecap:butt;stroke-linejoin:round;stroke-miterlimit:10;stroke-dasharray:none;stroke-opacity:1"
           d="m 172.44,91.11 h 0.61 0.6 0.61 0.6 0.61 0.6 0.61 0.6 0.61 0.6 0.61 0.6 0.61 0.6 0.6 0.61 0.6 0.61 0.6 0.61 0.6 0.61 0.6 0.61 0.6 0.61 0.6 0.61 0.6 0.61 0.6 0.61 0.6 0.6 0.61 0.6 0.61 0.6 0.61 0.6 0.61 0.6 0.61 0.6 0.61 0.6 0.61 0.6 0.61 0.6 0.61 0.6 0.6 0.61 0.6 0.61 0.6 0.61 0.6 0.61 0.6 0.61 0.6 0.61 0.6 0.61 0.6 0.61 0.6 0.61 0.6 0.6 0.61 0.6 0.61 0.6 0.61 0.6 0.61 0.6 0.61 0.6 0.61 0.6 0.61 0.6 0.61 0.6 0.61 0.6 0.61 0.6 0.6 0.61 0.6 0.61 0.6 0.61 0.6 0.61 0.6 0.61 0.6 0.61 0.6 0.61 0.6 0.61 0.6 0.61 0.6 0.6 0.61 0.6 0.61 0.6 0.61 0.6 0.61 0.6 0.61 0.6 0.61 0.6 0.61 0.6 0.61 0.6 0.61 0.6 0.6 0.61 0.6 0.61 0.6 0.61 0.6 0.61 0.6 0.61 0.6 0.61 0.6 0.61 0.6 0.61 0.6 0.61 0.6 0.6 0.61 0.6 0.61 0.6 0.61 0.6 0.61 0.6 0.61 0.6 0.61 0.6 0.61 0.6 0.61 0.6 0.61 0.6 0.6 0.61 0.6 0.61 0.6 0.61 0.6 0.61 0.6 0.61 0.6 0.61 0.6 0.61 0.6 0.61 0.6 0.61 0.6 0.6 0.61 0.6 0.61 0.6 0.61 0.6 0.61 0.6 0.61 0.6 0.61 0.6" /><path
           id="path112"
           style="fill:#525252;fill-opacity:0.298;fill-rule:nonzero;stroke:none"
           d="m 275.25,46.53 0.6,0.92 0.61,0.47 0.6,0.92 0.61,0.46 0.6,0.93 0.61,0.92 0.6,0.93 0.61,0.92 0.6,0.93 0.61,0.92 0.6,0.93 0.61,1.38 0.6,0.93 0.61,1.39 0.6,0.92 0.61,1.39 0.6,1.39 0.6,0.92 0.61,1.39 0.6,1.39 0.61,1.38 0.6,1.39 0.61,1.85 0.6,1.39 0.61,1.85 0.6,1.38 0.61,1.85 0.6,1.39 0.61,1.85 0.6,1.85 V 66.41 l -0.6,-0.92 -0.61,-0.46 -0.6,-0.93 -0.61,-0.46 -0.6,-0.46 -0.61,-0.93 -0.6,-0.46 -0.61,-0.93 -0.6,-0.46 -0.61,-0.92 -0.6,-0.47 -0.61,-0.92 -0.6,-0.46 -0.6,-0.93 -0.61,-0.46 -0.6,-0.46 -0.61,-0.93 -0.6,-0.46 -0.61,-0.93 -0.6,-0.46 -0.61,-0.92 -0.6,-0.47 -0.61,-0.46 -0.6,-0.92 -0.61,-0.47 -0.6,-0.92 -0.61,-0.46 -0.6,-0.46 -0.61,-0.93 z" /><path
           id="path114"
           style="fill:none;stroke:#000000;stroke-width:1.92;stroke-linecap:butt;stroke-linejoin:round;stroke-miterlimit:10;stroke-dasharray:7.68, 7.68;stroke-dashoffset:0;stroke-opacity:1"
           d="m 275.25,46.53 0.6,0.92 0.61,0.47 0.6,0.46 0.61,0.92 0.6,0.93 0.61,0.46 0.6,0.92 0.61,0.47 0.6,0.92 0.61,0.93 0.6,0.92 0.61,0.93 0.6,0.92 0.61,0.93 0.6,0.92 0.61,0.93 0.6,0.92 0.6,0.93 0.61,0.92 0.6,0.93 0.61,1.38 0.6,0.93 0.61,0.92 0.6,1.39 0.61,0.93 0.6,1.38 0.61,0.93 0.6,1.39 0.61,0.92 0.6,1.39" /><path
           id="path116"
           style="fill:none;stroke:#0000a5;stroke-width:1.92;stroke-linecap:butt;stroke-linejoin:round;stroke-miterlimit:10;stroke-dasharray:none;stroke-opacity:1"
           d="m 275.25,46.53 0.6,0.46 0.61,0.46 0.6,0.47 0.61,0.46 0.6,0.46 h 0.61 l 0.6,0.46 0.61,0.46 h 0.6 0.61 l 0.6,0.47 h 0.61 0.6 l 0.61,0.46 h 0.6 0.61 0.6 0.6 l 0.61,0.46 h 0.6 0.61 0.6 0.61 0.6 0.61 0.6 0.61 0.6 0.61 0.6" /></g></g><g
       id="g118" /><g
       id="g120"><g
         clip-path="url(#clipPath126)"
         id="g122"><path
           id="path128"
           style="fill:#ffffff;fill-opacity:1;fill-rule:nonzero;stroke:#7f7f7f;stroke-width:1.07;stroke-linecap:round;stroke-linejoin:round;stroke-miterlimit:10;stroke-dasharray:none;stroke-opacity:1"
           d="M 311.39,29.88 H 432.34 V 203.3 H 311.39 Z" /><path
           id="path130"
           style="fill:#a1d99b;fill-opacity:0.298;fill-rule:nonzero;stroke:none"
           d="m 311.39,47.49 h 0.61 0.6 0.61 0.6 0.61 0.6 0.61 0.6 0.6 0.61 0.6 0.61 0.6 0.61 0.6 0.61 0.6 0.61 0.6 0.61 0.6 0.61 0.6 0.61 0.6 0.61 0.6 0.6 0.61 0.6 0.61 0.6 0.61 0.6 0.61 0.6 0.61 0.6 0.61 0.6 0.61 0.6 0.61 0.6 0.61 0.6 0.6 0.61 0.6 0.61 0.6 0.61 0.6 0.61 0.6 0.61 0.6 0.61 0.6 0.61 0.6 0.61 0.6 0.61 0.6 0.6 0.61 0.6 0.61 0.6 0.61 0.6 0.61 0.6 0.61 0.6 0.61 0.6 0.61 0.6 0.61 0.6 0.61 0.6 0.6 0.61 0.6 0.61 0.6 0.61 0.6 0.61 0.6 0.61 0.6 0.61 0.6 0.61 0.6 0.61 0.6 0.61 0.6 0.6 0.61 0.6 0.61 0.6 0.61 0.6 0.61 0.6 0.61 0.6 0.61 0.6 0.61 0.6 0.61 0.6 0.61 0.6 0.61 0.6 0.6 0.61 0.6 0.61 0.6 0.61 0.6 0.61 0.6 0.61 0.6 0.61 0.6 0.61 0.6 0.61 0.6 0.61 0.6 0.6 0.61 0.6 0.61 0.6 0.61 0.6 0.61 0.6 0.61 0.6 0.61 0.6 0.61 0.6 0.61 0.6 0.61 0.6 0.6 0.61 0.6 0.61 0.6 0.61 0.6 0.61 0.6 0.61 0.6 0.61 0.6 0.61 0.6 0.61 0.6 0.61 0.6 0.6 0.61 0.6 0.61 0.6 0.61 0.6 0.61 0.6 0.61 0.6 0.61 0.6 0.61 0.6 0.61 0.6 0.61 0.6 V 29.88 h -0.6 -0.61 -0.6 -0.61 -0.6 -0.61 -0.6 -0.61 -0.6 -0.61 -0.6 -0.61 -0.6 -0.61 -0.6 -0.61 -0.6 -0.61 -0.6 -0.6 -0.61 -0.6 -0.61 -0.6 -0.61 -0.6 -0.61 -0.6 -0.61 -0.6 -0.61 -0.6 -0.61 -0.6 -0.61 -0.6 -0.61 -0.6 -0.6 -0.61 -0.6 -0.61 -0.6 -0.61 -0.6 -0.61 -0.6 -0.61 -0.6 -0.61 -0.6 -0.61 -0.6 -0.61 -0.6 -0.61 -0.6 -0.6 -0.61 -0.6 -0.61 -0.6 -0.61 -0.6 -0.61 -0.6 -0.61 -0.6 -0.61 -0.6 -0.61 -0.6 -0.61 -0.6 -0.61 -0.6 -0.6 -0.61 -0.6 -0.61 -0.6 -0.61 -0.6 -0.61 -0.6 -0.61 -0.6 -0.61 -0.6 -0.61 -0.6 -0.61 -0.6 -0.61 -0.6 -0.61 -0.6 -0.6 -0.61 -0.6 -0.61 -0.6 -0.61 -0.6 -0.61 -0.6 -0.61 -0.6 -0.61 -0.6 -0.61 -0.6 -0.61 -0.6 -0.61 -0.6 -0.6 -0.61 -0.6 -0.61 -0.6 -0.61 -0.6 -0.61 -0.6 -0.61 -0.6 -0.61 -0.6 -0.61 -0.6 -0.61 -0.6 -0.61 -0.6 -0.6 -0.61 -0.6 -0.61 -0.6 -0.61 -0.6 -0.61 -0.6 -0.61 -0.6 -0.61 -0.6 -0.61 -0.6 -0.61 -0.6 -0.61 -0.6 -0.6 -0.61 -0.6 -0.61 -0.6 -0.61 -0.6 -0.61 -0.6 -0.61 -0.6 -0.61 -0.6 -0.61 -0.6 -0.61 -0.6 -0.61 -0.6 -0.6 -0.61 -0.6 -0.61 -0.6 -0.61 -0.6 -0.61 -0.6 -0.61 -0.6 -0.61 -0.6 -0.61 -0.6 -0.61 -0.6 -0.61 -0.6 -0.6 -0.61 -0.6 -0.61 -0.6 -0.61 -0.6 -0.61 z" /><path
           id="path132"
           style="fill:#ffeda0;fill-opacity:0.298;fill-rule:nonzero;stroke:none"
           d="m 311.39,76.12 h 0.61 0.6 0.61 0.6 0.61 0.6 0.61 0.6 0.6 0.61 0.6 0.61 0.6 0.61 0.6 0.61 0.6 0.61 0.6 0.61 0.6 0.61 0.6 0.61 0.6 0.61 0.6 0.6 0.61 0.6 0.61 0.6 0.61 0.6 0.61 0.6 0.61 0.6 0.61 0.6 0.61 0.6 0.61 0.6 0.61 0.6 0.6 0.61 0.6 0.61 0.6 0.61 0.6 0.61 0.6 0.61 0.6 0.61 0.6 0.61 0.6 0.61 0.6 0.61 0.6 0.6 0.61 0.6 0.61 0.6 0.61 0.6 0.61 0.6 0.61 0.6 0.61 0.6 0.61 0.6 0.61 0.6 0.61 0.6 0.6 0.61 0.6 0.61 0.6 0.61 0.6 0.61 0.6 0.61 0.6 0.61 0.6 0.61 0.6 0.61 0.6 0.61 0.6 0.6 0.61 0.6 0.61 0.6 0.61 0.6 0.61 0.6 0.61 0.6 0.61 0.6 0.61 0.6 0.61 0.6 0.61 0.6 0.61 0.6 0.6 0.61 0.6 0.61 0.6 0.61 0.6 0.61 0.6 0.61 0.6 0.61 0.6 0.61 0.6 0.61 0.6 0.61 0.6 0.6 0.61 0.6 0.61 0.6 0.61 0.6 0.61 0.6 0.61 0.6 0.61 0.6 0.61 0.6 0.61 0.6 0.61 0.6 0.6 0.61 0.6 0.61 0.6 0.61 0.6 0.61 0.6 0.61 0.6 0.61 0.6 0.61 0.6 0.61 0.6 0.61 0.6 0.6 0.61 0.6 0.61 0.6 0.61 0.6 0.61 0.6 0.61 0.6 0.61 0.6 0.61 0.6 0.61 0.6 0.61 0.6 V 47.49 h -0.6 -0.61 -0.6 -0.61 -0.6 -0.61 -0.6 -0.61 -0.6 -0.61 -0.6 -0.61 -0.6 -0.61 -0.6 -0.61 -0.6 -0.61 -0.6 -0.6 -0.61 -0.6 -0.61 -0.6 -0.61 -0.6 -0.61 -0.6 -0.61 -0.6 -0.61 -0.6 -0.61 -0.6 -0.61 -0.6 -0.61 -0.6 -0.6 -0.61 -0.6 -0.61 -0.6 -0.61 -0.6 -0.61 -0.6 -0.61 -0.6 -0.61 -0.6 -0.61 -0.6 -0.61 -0.6 -0.61 -0.6 -0.6 -0.61 -0.6 -0.61 -0.6 -0.61 -0.6 -0.61 -0.6 -0.61 -0.6 -0.61 -0.6 -0.61 -0.6 -0.61 -0.6 -0.61 -0.6 -0.6 -0.61 -0.6 -0.61 -0.6 -0.61 -0.6 -0.61 -0.6 -0.61 -0.6 -0.61 -0.6 -0.61 -0.6 -0.61 -0.6 -0.61 -0.6 -0.61 -0.6 -0.6 -0.61 -0.6 -0.61 -0.6 -0.61 -0.6 -0.61 -0.6 -0.61 -0.6 -0.61 -0.6 -0.61 -0.6 -0.61 -0.6 -0.61 -0.6 -0.6 -0.61 -0.6 -0.61 -0.6 -0.61 -0.6 -0.61 -0.6 -0.61 -0.6 -0.61 -0.6 -0.61 -0.6 -0.61 -0.6 -0.61 -0.6 -0.6 -0.61 -0.6 -0.61 -0.6 -0.61 -0.6 -0.61 -0.6 -0.61 -0.6 -0.61 -0.6 -0.61 -0.6 -0.61 -0.6 -0.61 -0.6 -0.6 -0.61 -0.6 -0.61 -0.6 -0.61 -0.6 -0.61 -0.6 -0.61 -0.6 -0.61 -0.6 -0.61 -0.6 -0.61 -0.6 -0.61 -0.6 -0.6 -0.61 -0.6 -0.61 -0.6 -0.61 -0.6 -0.61 -0.6 -0.61 -0.6 -0.61 -0.6 -0.61 -0.6 -0.61 -0.6 -0.61 -0.6 -0.6 -0.61 -0.6 -0.61 -0.6 -0.61 -0.6 -0.61 z" /><path
           id="path134"
           style="fill:#fc4e2a;fill-opacity:0.298;fill-rule:nonzero;stroke:none"
           d="m 311.39,91.11 h 0.61 0.6 0.61 0.6 0.61 0.6 0.61 0.6 0.6 0.61 0.6 0.61 0.6 0.61 0.6 0.61 0.6 0.61 0.6 0.61 0.6 0.61 0.6 0.61 0.6 0.61 0.6 0.6 0.61 0.6 0.61 0.6 0.61 0.6 0.61 0.6 0.61 0.6 0.61 0.6 0.61 0.6 0.61 0.6 0.61 0.6 0.6 0.61 0.6 0.61 0.6 0.61 0.6 0.61 0.6 0.61 0.6 0.61 0.6 0.61 0.6 0.61 0.6 0.61 0.6 0.6 0.61 0.6 0.61 0.6 0.61 0.6 0.61 0.6 0.61 0.6 0.61 0.6 0.61 0.6 0.61 0.6 0.61 0.6 0.6 0.61 0.6 0.61 0.6 0.61 0.6 0.61 0.6 0.61 0.6 0.61 0.6 0.61 0.6 0.61 0.6 0.61 0.6 0.6 0.61 0.6 0.61 0.6 0.61 0.6 0.61 0.6 0.61 0.6 0.61 0.6 0.61 0.6 0.61 0.6 0.61 0.6 0.61 0.6 0.6 0.61 0.6 0.61 0.6 0.61 0.6 0.61 0.6 0.61 0.6 0.61 0.6 0.61 0.6 0.61 0.6 0.61 0.6 0.6 0.61 0.6 0.61 0.6 0.61 0.6 0.61 0.6 0.61 0.6 0.61 0.6 0.61 0.6 0.61 0.6 0.61 0.6 0.6 0.61 0.6 0.61 0.6 0.61 0.6 0.61 0.6 0.61 0.6 0.61 0.6 0.61 0.6 0.61 0.6 0.61 0.6 0.6 0.61 0.6 0.61 0.6 0.61 0.6 0.61 0.6 0.61 0.6 0.61 0.6 0.61 0.6 0.61 0.6 0.61 0.6 V 76.12 h -0.6 -0.61 -0.6 -0.61 -0.6 -0.61 -0.6 -0.61 -0.6 -0.61 -0.6 -0.61 -0.6 -0.61 -0.6 -0.61 -0.6 -0.61 -0.6 -0.6 -0.61 -0.6 -0.61 -0.6 -0.61 -0.6 -0.61 -0.6 -0.61 -0.6 -0.61 -0.6 -0.61 -0.6 -0.61 -0.6 -0.61 -0.6 -0.6 -0.61 -0.6 -0.61 -0.6 -0.61 -0.6 -0.61 -0.6 -0.61 -0.6 -0.61 -0.6 -0.61 -0.6 -0.61 -0.6 -0.61 -0.6 -0.6 -0.61 -0.6 -0.61 -0.6 -0.61 -0.6 -0.61 -0.6 -0.61 -0.6 -0.61 -0.6 -0.61 -0.6 -0.61 -0.6 -0.61 -0.6 -0.6 -0.61 -0.6 -0.61 -0.6 -0.61 -0.6 -0.61 -0.6 -0.61 -0.6 -0.61 -0.6 -0.61 -0.6 -0.61 -0.6 -0.61 -0.6 -0.61 -0.6 -0.6 -0.61 -0.6 -0.61 -0.6 -0.61 -0.6 -0.61 -0.6 -0.61 -0.6 -0.61 -0.6 -0.61 -0.6 -0.61 -0.6 -0.61 -0.6 -0.6 -0.61 -0.6 -0.61 -0.6 -0.61 -0.6 -0.61 -0.6 -0.61 -0.6 -0.61 -0.6 -0.61 -0.6 -0.61 -0.6 -0.61 -0.6 -0.6 -0.61 -0.6 -0.61 -0.6 -0.61 -0.6 -0.61 -0.6 -0.61 -0.6 -0.61 -0.6 -0.61 -0.6 -0.61 -0.6 -0.61 -0.6 -0.6 -0.61 -0.6 -0.61 -0.6 -0.61 -0.6 -0.61 -0.6 -0.61 -0.6 -0.61 -0.6 -0.61 -0.6 -0.61 -0.6 -0.61 -0.6 -0.6 -0.61 -0.6 -0.61 -0.6 -0.61 -0.6 -0.61 -0.6 -0.61 -0.6 -0.61 -0.6 -0.61 -0.6 -0.61 -0.6 -0.61 -0.6 -0.6 -0.61 -0.6 -0.61 -0.6 -0.61 -0.6 -0.61 z" /><path
           id="path136"
           style="fill:#ce2029;fill-opacity:0.502;fill-rule:nonzero;stroke:none"
           d="m 311.39,203.3 h 0.61 0.6 0.61 0.6 0.61 0.6 0.61 0.6 0.6 0.61 0.6 0.61 0.6 0.61 0.6 0.61 0.6 0.61 0.6 0.61 0.6 0.61 0.6 0.61 0.6 0.61 0.6 0.6 0.61 0.6 0.61 0.6 0.61 0.6 0.61 0.6 0.61 0.6 0.61 0.6 0.61 0.6 0.61 0.6 0.61 0.6 0.6 0.61 0.6 0.61 0.6 0.61 0.6 0.61 0.6 0.61 0.6 0.61 0.6 0.61 0.6 0.61 0.6 0.61 0.6 0.6 0.61 0.6 0.61 0.6 0.61 0.6 0.61 0.6 0.61 0.6 0.61 0.6 0.61 0.6 0.61 0.6 0.61 0.6 0.6 0.61 0.6 0.61 0.6 0.61 0.6 0.61 0.6 0.61 0.6 0.61 0.6 0.61 0.6 0.61 0.6 0.61 0.6 0.6 0.61 0.6 0.61 0.6 0.61 0.6 0.61 0.6 0.61 0.6 0.61 0.6 0.61 0.6 0.61 0.6 0.61 0.6 0.61 0.6 0.6 0.61 0.6 0.61 0.6 0.61 0.6 0.61 0.6 0.61 0.6 0.61 0.6 0.61 0.6 0.61 0.6 0.61 0.6 0.6 0.61 0.6 0.61 0.6 0.61 0.6 0.61 0.6 0.61 0.6 0.61 0.6 0.61 0.6 0.61 0.6 0.61 0.6 0.6 0.61 0.6 0.61 0.6 0.61 0.6 0.61 0.6 0.61 0.6 0.61 0.6 0.61 0.6 0.61 0.6 0.61 0.6 0.6 0.61 0.6 0.61 0.6 0.61 0.6 0.61 0.6 0.61 0.6 0.61 0.6 0.61 0.6 0.61 0.6 0.61 0.6 V 91.11 h -0.6 -0.61 -0.6 -0.61 -0.6 -0.61 -0.6 -0.61 -0.6 -0.61 -0.6 -0.61 -0.6 -0.61 -0.6 -0.61 -0.6 -0.61 -0.6 -0.6 -0.61 -0.6 -0.61 -0.6 -0.61 -0.6 -0.61 -0.6 -0.61 -0.6 -0.61 -0.6 -0.61 -0.6 -0.61 -0.6 -0.61 -0.6 -0.6 -0.61 -0.6 -0.61 -0.6 -0.61 -0.6 -0.61 -0.6 -0.61 -0.6 -0.61 -0.6 -0.61 -0.6 -0.61 -0.6 -0.61 -0.6 -0.6 -0.61 -0.6 -0.61 -0.6 -0.61 -0.6 -0.61 -0.6 -0.61 -0.6 -0.61 -0.6 -0.61 -0.6 -0.61 -0.6 -0.61 -0.6 -0.6 -0.61 -0.6 -0.61 -0.6 -0.61 -0.6 -0.61 -0.6 -0.61 -0.6 -0.61 -0.6 -0.61 -0.6 -0.61 -0.6 -0.61 -0.6 -0.61 -0.6 -0.6 -0.61 -0.6 -0.61 -0.6 -0.61 -0.6 -0.61 -0.6 -0.61 -0.6 -0.61 -0.6 -0.61 -0.6 -0.61 -0.6 -0.61 -0.6 -0.6 -0.61 -0.6 -0.61 -0.6 -0.61 -0.6 -0.61 -0.6 -0.61 -0.6 -0.61 -0.6 -0.61 -0.6 -0.61 -0.6 -0.61 -0.6 -0.6 -0.61 -0.6 -0.61 -0.6 -0.61 -0.6 -0.61 -0.6 -0.61 -0.6 -0.61 -0.6 -0.61 -0.6 -0.61 -0.6 -0.61 -0.6 -0.6 -0.61 -0.6 -0.61 -0.6 -0.61 -0.6 -0.61 -0.6 -0.61 -0.6 -0.61 -0.6 -0.61 -0.6 -0.61 -0.6 -0.61 -0.6 -0.6 -0.61 -0.6 -0.61 -0.6 -0.61 -0.6 -0.61 -0.6 -0.61 -0.6 -0.61 -0.6 -0.61 -0.6 -0.61 -0.6 -0.61 -0.6 -0.6 -0.61 -0.6 -0.61 -0.6 -0.61 -0.6 -0.61 z" /><path
           id="path138"
           style="fill:#000000;fill-opacity:1;fill-rule:nonzero;stroke:none"
           d="m 311.39,29.88 h 0.61 0.6 0.61 0.6 0.61 0.6 0.61 l 0.6,0.46 h 0.6 0.61 0.6 0.61 0.6 0.61 0.6 0.61 0.6 l 0.61,0.46 h 0.6 0.61 0.6 0.61 0.6 0.61 l 0.6,0.47 h 0.61 0.6 0.6 0.61 0.6 l 0.61,0.46 h 0.6 0.61 0.6 l 0.61,0.46 h 0.6 0.61 0.6 l 0.61,0.46 h 0.6 0.61 l 0.6,0.47 h 0.61 0.6 l 0.61,0.46 h 0.6 l 0.6,0.46 h 0.61 0.6 l 0.61,0.46 h 0.6 l 0.61,0.47 h 0.6 l 0.61,0.46 0.6,0.46 h 0.61 l 0.6,0.46 0.61,0.47 h 0.6 l 0.61,0.46 0.6,0.46 h 0.61 l 0.6,0.46 0.61,0.47 0.6,0.46 0.6,0.46 h 0.61 l 0.6,0.46 0.61,0.47 0.6,0.46 h 0.61 l 0.6,0.46 0.61,0.46 0.6,0.47 0.61,0.46 0.6,0.46 h 0.61 l 0.6,0.46 0.61,0.47 0.6,0.46 0.61,0.46 0.6,0.46 0.61,0.47 h 0.6 l 0.6,0.46 0.61,0.46 0.6,0.46 0.61,0.47 0.6,0.46 0.61,0.46 0.6,0.46 0.61,0.46 0.6,0.47 0.61,0.46 0.6,0.46 0.61,0.46 0.6,0.47 0.61,0.92 0.6,0.46 0.61,0.47 0.6,0.46 0.61,0.92 0.6,0.47 0.6,0.46 0.61,0.92 0.6,0.47 0.61,0.92 0.6,0.93 0.61,0.46 0.6,0.92 0.61,0.93 0.6,0.46 0.61,0.93 0.6,0.92 0.61,0.93 0.6,1.38 0.61,0.93 0.6,0.92 0.61,1.39 0.6,1.39 0.61,0.92 0.6,1.39 0.61,1.39 0.6,1.38 0.6,1.39 0.61,1.39 0.6,1.39 0.61,1.38 0.6,1.39 0.61,1.85 0.6,1.39 0.61,1.39 0.6,1.38 0.61,1.39 0.6,1.39 0.61,1.39 0.6,1.38 0.61,1.85 0.6,1.39 0.61,1.39 0.6,1.85 0.61,1.38 0.6,1.39 0.6,1.39 0.61,1.39 0.6,1.85 0.61,1.38 0.6,1.85 0.61,1.39 0.6,1.85 0.61,1.39 0.6,1.85 0.61,1.85 0.6,1.39 0.61,1.85 0.6,1.85 0.61,1.85 0.6,1.84 0.61,1.39 0.6,1.85 0.61,1.39 0.6,1.85 0.6,1.39 0.61,1.85 0.6,1.38 0.61,1.39 0.6,1.39 0.61,1.85 0.6,1.39 V 29.88 h -0.6 -0.61 -0.6 -0.61 -0.6 -0.61 -0.6 -0.6 -0.61 -0.6 -0.61 -0.6 -0.61 -0.6 -0.61 -0.6 -0.61 -0.6 -0.61 -0.6 -0.61 -0.6 -0.61 -0.6 -0.61 -0.6 -0.6 -0.61 -0.6 -0.61 -0.6 -0.61 -0.6 -0.61 -0.6 -0.61 -0.6 -0.61 -0.6 -0.61 -0.6 -0.61 -0.6 -0.61 -0.6 -0.6 -0.61 -0.6 -0.61 -0.6 -0.61 -0.6 -0.61 -0.6 -0.61 -0.6 -0.61 -0.6 -0.61 -0.6 -0.61 -0.6 -0.61 -0.6 -0.61 -0.6 -0.6 -0.61 -0.6 -0.61 -0.6 -0.61 -0.6 -0.61 -0.6 -0.61 -0.6 -0.61 -0.6 -0.61 -0.6 -0.61 -0.6 -0.61 -0.6 -0.6 -0.61 -0.6 -0.61 -0.6 -0.61 -0.6 -0.61 -0.6 -0.61 -0.6 -0.61 -0.6 -0.61 -0.6 -0.61 -0.6 -0.61 -0.6 -0.6 -0.61 -0.6 -0.61 -0.6 -0.61 -0.6 -0.61 -0.6 -0.61 -0.6 -0.61 -0.6 -0.61 -0.6 -0.61 -0.6 -0.61 -0.6 -0.6 -0.61 -0.6 -0.61 -0.6 -0.61 -0.6 -0.61 -0.6 -0.61 -0.6 -0.61 -0.6 -0.61 -0.6 -0.61 -0.6 -0.61 -0.6 -0.6 -0.61 -0.6 -0.61 -0.6 -0.61 -0.6 -0.61 -0.6 -0.61 -0.6 -0.61 -0.6 -0.61 -0.6 -0.61 -0.6 -0.61 -0.6 -0.6 -0.61 -0.6 -0.61 -0.6 -0.61 -0.6 z" /><path
           id="path140"
           style="fill:none;stroke:#387f30;stroke-width:1.92;stroke-linecap:butt;stroke-linejoin:round;stroke-miterlimit:10;stroke-dasharray:none;stroke-opacity:1"
           d="m 311.39,47.49 h 0.61 0.6 0.61 0.6 0.61 0.6 0.61 0.6 0.6 0.61 0.6 0.61 0.6 0.61 0.6 0.61 0.6 0.61 0.6 0.61 0.6 0.61 0.6 0.61 0.6 0.61 0.6 0.6 0.61 0.6 0.61 0.6 0.61 0.6 0.61 0.6 0.61 0.6 0.61 0.6 0.61 0.6 0.61 0.6 0.61 0.6 0.6 0.61 0.6 0.61 0.6 0.61 0.6 0.61 0.6 0.61 0.6 0.61 0.6 0.61 0.6 0.61 0.6 0.61 0.6 0.6 0.61 0.6 0.61 0.6 0.61 0.6 0.61 0.6 0.61 0.6 0.61 0.6 0.61 0.6 0.61 0.6 0.61 0.6 0.6 0.61 0.6 0.61 0.6 0.61 0.6 0.61 0.6 0.61 0.6 0.61 0.6 0.61 0.6 0.61 0.6 0.61 0.6 0.6 0.61 0.6 0.61 0.6 0.61 0.6 0.61 0.6 0.61 0.6 0.61 0.6 0.61 0.6 0.61 0.6 0.61 0.6 0.61 0.6 0.6 0.61 0.6 0.61 0.6 0.61 0.6 0.61 0.6 0.61 0.6 0.61 0.6 0.61 0.6 0.61 0.6 0.61 0.6 0.6 0.61 0.6 0.61 0.6 0.61 0.6 0.61 0.6 0.61 0.6 0.61 0.6 0.61 0.6 0.61 0.6 0.61 0.6 0.6 0.61 0.6 0.61 0.6 0.61 0.6 0.61 0.6 0.61 0.6 0.61 0.6 0.61 0.6 0.61 0.6 0.61 0.6 0.6 0.61 0.6 0.61 0.6 0.61 0.6 0.61 0.6 0.61 0.6 0.61 0.6 0.61 0.6 0.61 0.6 0.61 0.6" /><path
           id="path142"
           style="fill:none;stroke:#feb24c;stroke-width:1.92;stroke-linecap:butt;stroke-linejoin:round;stroke-miterlimit:10;stroke-dasharray:none;stroke-opacity:1"
           d="m 311.39,76.12 h 0.61 0.6 0.61 0.6 0.61 0.6 0.61 0.6 0.6 0.61 0.6 0.61 0.6 0.61 0.6 0.61 0.6 0.61 0.6 0.61 0.6 0.61 0.6 0.61 0.6 0.61 0.6 0.6 0.61 0.6 0.61 0.6 0.61 0.6 0.61 0.6 0.61 0.6 0.61 0.6 0.61 0.6 0.61 0.6 0.61 0.6 0.6 0.61 0.6 0.61 0.6 0.61 0.6 0.61 0.6 0.61 0.6 0.61 0.6 0.61 0.6 0.61 0.6 0.61 0.6 0.6 0.61 0.6 0.61 0.6 0.61 0.6 0.61 0.6 0.61 0.6 0.61 0.6 0.61 0.6 0.61 0.6 0.61 0.6 0.6 0.61 0.6 0.61 0.6 0.61 0.6 0.61 0.6 0.61 0.6 0.61 0.6 0.61 0.6 0.61 0.6 0.61 0.6 0.6 0.61 0.6 0.61 0.6 0.61 0.6 0.61 0.6 0.61 0.6 0.61 0.6 0.61 0.6 0.61 0.6 0.61 0.6 0.61 0.6 0.6 0.61 0.6 0.61 0.6 0.61 0.6 0.61 0.6 0.61 0.6 0.61 0.6 0.61 0.6 0.61 0.6 0.61 0.6 0.6 0.61 0.6 0.61 0.6 0.61 0.6 0.61 0.6 0.61 0.6 0.61 0.6 0.61 0.6 0.61 0.6 0.61 0.6 0.6 0.61 0.6 0.61 0.6 0.61 0.6 0.61 0.6 0.61 0.6 0.61 0.6 0.61 0.6 0.61 0.6 0.61 0.6 0.6 0.61 0.6 0.61 0.6 0.61 0.6 0.61 0.6 0.61 0.6 0.61 0.6 0.61 0.6 0.61 0.6 0.61 0.6" /><path
           id="path144"
           style="fill:none;stroke:#e31a1c;stroke-width:1.92;stroke-linecap:butt;stroke-linejoin:round;stroke-miterlimit:10;stroke-dasharray:none;stroke-opacity:1"
           d="m 311.39,91.11 h 0.61 0.6 0.61 0.6 0.61 0.6 0.61 0.6 0.6 0.61 0.6 0.61 0.6 0.61 0.6 0.61 0.6 0.61 0.6 0.61 0.6 0.61 0.6 0.61 0.6 0.61 0.6 0.6 0.61 0.6 0.61 0.6 0.61 0.6 0.61 0.6 0.61 0.6 0.61 0.6 0.61 0.6 0.61 0.6 0.61 0.6 0.6 0.61 0.6 0.61 0.6 0.61 0.6 0.61 0.6 0.61 0.6 0.61 0.6 0.61 0.6 0.61 0.6 0.61 0.6 0.6 0.61 0.6 0.61 0.6 0.61 0.6 0.61 0.6 0.61 0.6 0.61 0.6 0.61 0.6 0.61 0.6 0.61 0.6 0.6 0.61 0.6 0.61 0.6 0.61 0.6 0.61 0.6 0.61 0.6 0.61 0.6 0.61 0.6 0.61 0.6 0.61 0.6 0.6 0.61 0.6 0.61 0.6 0.61 0.6 0.61 0.6 0.61 0.6 0.61 0.6 0.61 0.6 0.61 0.6 0.61 0.6 0.61 0.6 0.6 0.61 0.6 0.61 0.6 0.61 0.6 0.61 0.6 0.61 0.6 0.61 0.6 0.61 0.6 0.61 0.6 0.61 0.6 0.6 0.61 0.6 0.61 0.6 0.61 0.6 0.61 0.6 0.61 0.6 0.61 0.6 0.61 0.6 0.61 0.6 0.61 0.6 0.6 0.61 0.6 0.61 0.6 0.61 0.6 0.61 0.6 0.61 0.6 0.61 0.6 0.61 0.6 0.61 0.6 0.61 0.6 0.6 0.61 0.6 0.61 0.6 0.61 0.6 0.61 0.6 0.61 0.6 0.61 0.6 0.61 0.6 0.61 0.6 0.61 0.6" /><path
           id="path146"
           style="fill:#525252;fill-opacity:0.298;fill-rule:nonzero;stroke:none"
           d="m 414.2,147.34 0.6,1.85 0.61,1.39 0.6,1.85 0.61,1.39 0.6,1.85 0.61,1.38 0.6,1.85 0.61,1.85 0.6,1.85 0.61,1.85 0.6,1.39 0.6,1.85 0.61,1.85 0.6,1.85 0.61,1.85 0.6,1.85 0.61,1.85 0.6,1.85 0.61,1.85 0.6,2.31 0.61,1.85 0.6,1.85 0.61,1.85 0.6,1.85 0.61,2.31 0.6,1.85 0.61,1.85 0.6,2.32 0.61,1.85 0.6,2.31 v -20.81 l -0.6,-0.93 -0.61,-0.92 -0.6,-0.93 -0.61,-1.38 -0.6,-0.93 -0.61,-0.92 -0.6,-0.93 -0.61,-1.39 -0.6,-0.92 -0.61,-1.39 -0.6,-0.92 -0.61,-0.93 -0.6,-1.39 -0.61,-0.92 -0.6,-1.39 -0.61,-0.92 -0.6,-1.39 -0.61,-0.93 -0.6,-1.38 -0.6,-1.39 -0.61,-0.93 -0.6,-1.38 -0.61,-0.93 -0.6,-1.38 -0.61,-1.39 -0.6,-1.39 -0.61,-1.39 -0.6,-0.92 -0.61,-1.39 z" /><path
           id="path148"
           style="fill:none;stroke:#000000;stroke-width:1.92;stroke-linecap:butt;stroke-linejoin:round;stroke-miterlimit:10;stroke-dasharray:7.68, 7.68;stroke-dashoffset:0;stroke-opacity:1"
           d="m 414.2,147.34 0.6,1.39 0.61,1.39 0.6,1.85 0.61,1.39 0.6,1.38 0.61,1.39 0.6,1.39 0.61,1.85 0.6,1.38 0.61,1.39 0.6,1.39 0.6,1.39 0.61,1.85 0.6,1.38 0.61,1.39 0.6,1.39 0.61,1.85 0.6,1.39 0.61,1.38 0.6,1.85 0.61,1.39 0.6,1.39 0.61,1.39 0.6,1.84 0.61,1.39 0.6,1.39 0.61,1.85 0.6,1.39 0.61,1.38 0.6,1.39" /><path
           id="path150"
           style="fill:none;stroke:#0000a5;stroke-width:1.92;stroke-linecap:butt;stroke-linejoin:round;stroke-miterlimit:10;stroke-dasharray:none;stroke-opacity:1"
           d="m 414.2,147.34 0.6,1.39 0.61,0.93 0.6,0.92 0.61,0.93 0.6,0.46 0.61,0.46 0.6,0.46 0.61,0.47 0.6,0.46 0.61,0.46 h 0.6 l 0.6,0.46 h 0.61 l 0.6,0.47 h 0.61 0.6 0.61 l 0.6,0.46 h 0.61 0.6 0.61 0.6 0.61 0.6 0.61 0.6 0.61 0.6 0.61 0.6" /></g></g><g
       id="g152" /><g
       id="g154"><g
         clip-path="url(#clipPath160)"
         id="g156" /></g><g
       id="g162"><g
         clip-path="url(#clipPath168)"
         id="g164"><path
           id="path170"
           style="fill:#ffffff;fill-opacity:1;fill-rule:nonzero;stroke:#7f7f7f;stroke-width:1.07;stroke-linecap:round;stroke-linejoin:round;stroke-miterlimit:10;stroke-dasharray:none;stroke-opacity:1"
           d="m 33.5,203.3 h 120.95 v 16.27 H 33.5 Z" /><text
           id="text174"
           style="font-variant:normal;font-weight:normal;font-size:8px;font-family:Helvetica;-inkscape-font-specification:Helvetica;writing-mode:lr-tb;fill:#666666;fill-opacity:1;fill-rule:nonzero;stroke:none"
           transform="matrix(1,0,0,-1,83.59,208.56)"><tspan
             id="tspan172"
             sodipodi:role="line"
             y="0"
             x="0 7.3119998 11.76 14.544 16.32">World</tspan></text></g></g><g
       id="g176"><g
         clip-path="url(#clipPath182)"
         id="g178" /></g><g
       id="g184"><g
         clip-path="url(#clipPath190)"
         id="g186" /></g><g
       id="g192" /><g
       id="g194"><g
         clip-path="url(#clipPath200)"
         id="g196" /></g><g
       id="g202"><g
         clip-path="url(#clipPath208)"
         id="g204"><path
           id="path210"
           style="fill:#ffffff;fill-opacity:1;fill-rule:nonzero;stroke:#7f7f7f;stroke-width:1.07;stroke-linecap:round;stroke-linejoin:round;stroke-miterlimit:10;stroke-dasharray:none;stroke-opacity:1"
           d="m 172.44,203.3 h 120.95 v 16.27 H 172.44 Z" /><text
           id="text214"
           style="font-variant:normal;font-weight:normal;font-size:8px;font-family:Helvetica;-inkscape-font-specification:Helvetica;writing-mode:lr-tb;fill:#666666;fill-opacity:1;fill-rule:nonzero;stroke:none"
           transform="matrix(1,0,0,-1,209.79,208.56)"><tspan
             id="tspan212"
             sodipodi:role="line"
             y="0"
             x="0 6.224 8 12.448 16.896 21.344 23.120001 25.344 30.68 35.127998 39.576 41.799999">Global South</tspan></text></g></g><g
       id="g216"><g
         clip-path="url(#clipPath222)"
         id="g218" /></g><g
       id="g224"><g
         clip-path="url(#clipPath230)"
         id="g226" /></g><g
       id="g232" /><g
       id="g234"><g
         clip-path="url(#clipPath240)"
         id="g236" /></g><g
       id="g242"><g
         clip-path="url(#clipPath248)"
         id="g244"><path
           id="path250"
           style="fill:#ffffff;fill-opacity:1;fill-rule:nonzero;stroke:#7f7f7f;stroke-width:1.07;stroke-linecap:round;stroke-linejoin:round;stroke-miterlimit:10;stroke-dasharray:none;stroke-opacity:1"
           d="m 311.39,203.3 h 120.95 v 16.27 H 311.39 Z" /><text
           id="text254"
           style="font-variant:normal;font-weight:normal;font-size:8px;font-family:Helvetica;-inkscape-font-specification:Helvetica;writing-mode:lr-tb;fill:#666666;fill-opacity:1;fill-rule:nonzero;stroke:none"
           transform="matrix(1,0,0,-1,349.25,208.56)"><tspan
             id="tspan252"
             sodipodi:role="line"
             y="0"
             x="0 6.224 8 12.448 16.896 21.344 23.120001 25.344 31.120001 35.568001 38.551998 40.776001">Global North</tspan></text></g></g><g
       id="g256"><g
         clip-path="url(#clipPath262)"
         id="g258" /></g><g
       id="g264"><g
         clip-path="url(#clipPath270)"
         id="g266" /></g><g
       id="g272" /><g
       id="g274" /><g
       id="g276" /><g
       id="g278" /><g
       id="g280" /><g
       id="g282" /><g
       id="g284" /><g
       id="g286" /><g
       id="g288"><path
         id="path290"
         style="fill:none;stroke:#636363;stroke-width:1.49;stroke-linecap:butt;stroke-linejoin:round;stroke-miterlimit:10;stroke-dasharray:none;stroke-opacity:1"
         d="M 33.5,29.88 H 154.44" /></g><g
       id="g292" /><g
       id="g294" /><g
       id="g296"><path
         id="path298"
         style="fill:none;stroke:#636363;stroke-width:1.07;stroke-linecap:butt;stroke-linejoin:round;stroke-miterlimit:10;stroke-dasharray:none;stroke-opacity:1"
         d="m 33.5,27.14 v 2.74" /><path
         id="path300"
         style="fill:none;stroke:#636363;stroke-width:1.07;stroke-linecap:butt;stroke-linejoin:round;stroke-miterlimit:10;stroke-dasharray:none;stroke-opacity:1"
         d="m 63.73,27.14 v 2.74" /><path
         id="path302"
         style="fill:none;stroke:#636363;stroke-width:1.07;stroke-linecap:butt;stroke-linejoin:round;stroke-miterlimit:10;stroke-dasharray:none;stroke-opacity:1"
         d="m 93.97,27.14 v 2.74" /><path
         id="path304"
         style="fill:none;stroke:#636363;stroke-width:1.07;stroke-linecap:butt;stroke-linejoin:round;stroke-miterlimit:10;stroke-dasharray:none;stroke-opacity:1"
         d="m 124.21,27.14 v 2.74" /><path
         id="path306"
         style="fill:none;stroke:#636363;stroke-width:1.07;stroke-linecap:butt;stroke-linejoin:round;stroke-miterlimit:10;stroke-dasharray:none;stroke-opacity:1"
         d="m 154.44,27.14 v 2.74" /></g><g
       id="g308" /><g
       id="g310"><text
         id="text314"
         style="font-variant:normal;font-weight:normal;font-size:8px;font-family:Helvetica;-inkscape-font-specification:Helvetica;writing-mode:lr-tb;fill:#636363;fill-opacity:1;fill-rule:nonzero;stroke:none"
         transform="matrix(1,0,0,-1,24.6,19.2)"><tspan
           id="tspan312"
           sodipodi:role="line"
           y="0"
           x="0 4.448 8.8959999 13.344">1850</tspan></text><text
         id="text318"
         style="font-variant:normal;font-weight:normal;font-size:8px;font-family:Helvetica;-inkscape-font-specification:Helvetica;writing-mode:lr-tb;fill:#636363;fill-opacity:1;fill-rule:nonzero;stroke:none"
         transform="matrix(1,0,0,-1,54.84,19.2)"><tspan
           id="tspan316"
           sodipodi:role="line"
           y="0"
           x="0 4.448 8.8959999 13.344">1900</tspan></text><text
         id="text322"
         style="font-variant:normal;font-weight:normal;font-size:8px;font-family:Helvetica;-inkscape-font-specification:Helvetica;writing-mode:lr-tb;fill:#636363;fill-opacity:1;fill-rule:nonzero;stroke:none"
         transform="matrix(1,0,0,-1,85.07,19.2)"><tspan
           id="tspan320"
           sodipodi:role="line"
           y="0"
           x="0 4.448 8.8959999 13.344">1950</tspan></text><text
         id="text326"
         style="font-variant:normal;font-weight:normal;font-size:8px;font-family:Helvetica;-inkscape-font-specification:Helvetica;writing-mode:lr-tb;fill:#636363;fill-opacity:1;fill-rule:nonzero;stroke:none"
         transform="matrix(1,0,0,-1,115.31,19.2)"><tspan
           id="tspan324"
           sodipodi:role="line"
           y="0"
           x="0 4.448 8.8959999 13.344">2000</tspan></text><text
         id="text330"
         style="font-variant:normal;font-weight:normal;font-size:8px;font-family:Helvetica;-inkscape-font-specification:Helvetica;writing-mode:lr-tb;fill:#636363;fill-opacity:1;fill-rule:nonzero;stroke:none"
         transform="matrix(1,0,0,-1,145.55,19.2)"><tspan
           id="tspan328"
           sodipodi:role="line"
           y="0"
           x="0 4.448 8.8959999 13.344">2050</tspan></text></g><g
       id="g332" /><g
       id="g334" /><g
       id="g336" /><g
       id="g338" /><g
       id="g340"><path
         id="path342"
         style="fill:none;stroke:#636363;stroke-width:1.49;stroke-linecap:butt;stroke-linejoin:round;stroke-miterlimit:10;stroke-dasharray:none;stroke-opacity:1"
         d="M 172.44,29.88 H 293.39" /></g><g
       id="g344" /><g
       id="g346" /><g
       id="g348"><path
         id="path350"
         style="fill:none;stroke:#636363;stroke-width:1.07;stroke-linecap:butt;stroke-linejoin:round;stroke-miterlimit:10;stroke-dasharray:none;stroke-opacity:1"
         d="m 172.44,27.14 v 2.74" /><path
         id="path352"
         style="fill:none;stroke:#636363;stroke-width:1.07;stroke-linecap:butt;stroke-linejoin:round;stroke-miterlimit:10;stroke-dasharray:none;stroke-opacity:1"
         d="m 202.68,27.14 v 2.74" /><path
         id="path354"
         style="fill:none;stroke:#636363;stroke-width:1.07;stroke-linecap:butt;stroke-linejoin:round;stroke-miterlimit:10;stroke-dasharray:none;stroke-opacity:1"
         d="m 232.92,27.14 v 2.74" /><path
         id="path356"
         style="fill:none;stroke:#636363;stroke-width:1.07;stroke-linecap:butt;stroke-linejoin:round;stroke-miterlimit:10;stroke-dasharray:none;stroke-opacity:1"
         d="m 263.15,27.14 v 2.74" /><path
         id="path358"
         style="fill:none;stroke:#636363;stroke-width:1.07;stroke-linecap:butt;stroke-linejoin:round;stroke-miterlimit:10;stroke-dasharray:none;stroke-opacity:1"
         d="m 293.39,27.14 v 2.74" /></g><g
       id="g360" /><g
       id="g362"><text
         id="text366"
         style="font-variant:normal;font-weight:normal;font-size:8px;font-family:Helvetica;-inkscape-font-specification:Helvetica;writing-mode:lr-tb;fill:#636363;fill-opacity:1;fill-rule:nonzero;stroke:none"
         transform="matrix(1,0,0,-1,163.55,19.2)"><tspan
           id="tspan364"
           sodipodi:role="line"
           y="0"
           x="0 4.448 8.8959999 13.344">1850</tspan></text><text
         id="text370"
         style="font-variant:normal;font-weight:normal;font-size:8px;font-family:Helvetica;-inkscape-font-specification:Helvetica;writing-mode:lr-tb;fill:#636363;fill-opacity:1;fill-rule:nonzero;stroke:none"
         transform="matrix(1,0,0,-1,193.78,19.2)"><tspan
           id="tspan368"
           sodipodi:role="line"
           y="0"
           x="0 4.448 8.8959999 13.344">1900</tspan></text><text
         id="text374"
         style="font-variant:normal;font-weight:normal;font-size:8px;font-family:Helvetica;-inkscape-font-specification:Helvetica;writing-mode:lr-tb;fill:#636363;fill-opacity:1;fill-rule:nonzero;stroke:none"
         transform="matrix(1,0,0,-1,224.02,19.2)"><tspan
           id="tspan372"
           sodipodi:role="line"
           y="0"
           x="0 4.448 8.8959999 13.344">1950</tspan></text><text
         id="text378"
         style="font-variant:normal;font-weight:normal;font-size:8px;font-family:Helvetica;-inkscape-font-specification:Helvetica;writing-mode:lr-tb;fill:#636363;fill-opacity:1;fill-rule:nonzero;stroke:none"
         transform="matrix(1,0,0,-1,254.26,19.2)"><tspan
           id="tspan376"
           sodipodi:role="line"
           y="0"
           x="0 4.448 8.8959999 13.344">2000</tspan></text><text
         id="text382"
         style="font-variant:normal;font-weight:normal;font-size:8px;font-family:Helvetica;-inkscape-font-specification:Helvetica;writing-mode:lr-tb;fill:#636363;fill-opacity:1;fill-rule:nonzero;stroke:none"
         transform="matrix(1,0,0,-1,284.5,19.2)"><tspan
           id="tspan380"
           sodipodi:role="line"
           y="0"
           x="0 4.448 8.8959999 13.344">2050</tspan></text></g><g
       id="g384" /><g
       id="g386" /><g
       id="g388" /><g
       id="g390" /><g
       id="g392"><path
         id="path394"
         style="fill:none;stroke:#636363;stroke-width:1.49;stroke-linecap:butt;stroke-linejoin:round;stroke-miterlimit:10;stroke-dasharray:none;stroke-opacity:1"
         d="M 311.39,29.88 H 432.34" /></g><g
       id="g396" /><g
       id="g398" /><g
       id="g400"><path
         id="path402"
         style="fill:none;stroke:#636363;stroke-width:1.07;stroke-linecap:butt;stroke-linejoin:round;stroke-miterlimit:10;stroke-dasharray:none;stroke-opacity:1"
         d="m 311.39,27.14 v 2.74" /><path
         id="path404"
         style="fill:none;stroke:#636363;stroke-width:1.07;stroke-linecap:butt;stroke-linejoin:round;stroke-miterlimit:10;stroke-dasharray:none;stroke-opacity:1"
         d="m 341.63,27.14 v 2.74" /><path
         id="path406"
         style="fill:none;stroke:#636363;stroke-width:1.07;stroke-linecap:butt;stroke-linejoin:round;stroke-miterlimit:10;stroke-dasharray:none;stroke-opacity:1"
         d="m 371.87,27.14 v 2.74" /><path
         id="path408"
         style="fill:none;stroke:#636363;stroke-width:1.07;stroke-linecap:butt;stroke-linejoin:round;stroke-miterlimit:10;stroke-dasharray:none;stroke-opacity:1"
         d="m 402.1,27.14 v 2.74" /><path
         id="path410"
         style="fill:none;stroke:#636363;stroke-width:1.07;stroke-linecap:butt;stroke-linejoin:round;stroke-miterlimit:10;stroke-dasharray:none;stroke-opacity:1"
         d="m 432.34,27.14 v 2.74" /></g><g
       id="g412" /><g
       id="g414"><text
         id="text418"
         style="font-variant:normal;font-weight:normal;font-size:8px;font-family:Helvetica;-inkscape-font-specification:Helvetica;writing-mode:lr-tb;fill:#636363;fill-opacity:1;fill-rule:nonzero;stroke:none"
         transform="matrix(1,0,0,-1,302.5,19.2)"><tspan
           id="tspan416"
           sodipodi:role="line"
           y="0"
           x="0 4.448 8.8959999 13.344">1850</tspan></text><text
         id="text422"
         style="font-variant:normal;font-weight:normal;font-size:8px;font-family:Helvetica;-inkscape-font-specification:Helvetica;writing-mode:lr-tb;fill:#636363;fill-opacity:1;fill-rule:nonzero;stroke:none"
         transform="matrix(1,0,0,-1,332.73,19.2)"><tspan
           id="tspan420"
           sodipodi:role="line"
           y="0"
           x="0 4.448 8.8959999 13.344">1900</tspan></text><text
         id="text426"
         style="font-variant:normal;font-weight:normal;font-size:8px;font-family:Helvetica;-inkscape-font-specification:Helvetica;writing-mode:lr-tb;fill:#636363;fill-opacity:1;fill-rule:nonzero;stroke:none"
         transform="matrix(1,0,0,-1,362.97,19.2)"><tspan
           id="tspan424"
           sodipodi:role="line"
           y="0"
           x="0 4.448 8.8959999 13.344">1950</tspan></text><text
         id="text430"
         style="font-variant:normal;font-weight:normal;font-size:8px;font-family:Helvetica;-inkscape-font-specification:Helvetica;writing-mode:lr-tb;fill:#636363;fill-opacity:1;fill-rule:nonzero;stroke:none"
         transform="matrix(1,0,0,-1,393.21,19.2)"><tspan
           id="tspan428"
           sodipodi:role="line"
           y="0"
           x="0 4.448 8.8959999 13.344">2000</tspan></text><text
         id="text434"
         style="font-variant:normal;font-weight:normal;font-size:8px;font-family:Helvetica;-inkscape-font-specification:Helvetica;writing-mode:lr-tb;fill:#636363;fill-opacity:1;fill-rule:nonzero;stroke:none"
         transform="matrix(1,0,0,-1,423.44,19.2)"><tspan
           id="tspan432"
           sodipodi:role="line"
           y="0"
           x="0 4.448 8.8959999 13.344">2050</tspan></text></g><g
       id="g436" /><g
       id="g438" /><g
       id="g440" /><g
       id="g442" /><g
       id="g444" /><g
       id="g446" /><g
       id="g448" /><g
       id="g450" /><g
       id="g452"><path
         id="path454"
         style="fill:none;stroke:#636363;stroke-width:1.49;stroke-linecap:butt;stroke-linejoin:round;stroke-miterlimit:10;stroke-dasharray:none;stroke-opacity:1"
         d="M 33.5,29.88 V 203.3" /></g><g
       id="g456" /><g
       id="g458" /><g
       id="g460"><text
         id="text464"
         style="font-variant:normal;font-weight:normal;font-size:8px;font-family:Helvetica;-inkscape-font-specification:Helvetica;writing-mode:lr-tb;fill:#636363;fill-opacity:1;fill-rule:nonzero;stroke:none"
         transform="matrix(1,0,0,-1,17.44,27.01)"><tspan
           id="tspan462"
           sodipodi:role="line"
           y="0"
           x="0 4.448 6.6719999">0.0</tspan></text><text
         id="text468"
         style="font-variant:normal;font-weight:normal;font-size:8px;font-family:Helvetica;-inkscape-font-specification:Helvetica;writing-mode:lr-tb;fill:#636363;fill-opacity:1;fill-rule:nonzero;stroke:none"
         transform="matrix(1,0,0,-1,17.44,50.13)"><tspan
           id="tspan466"
           sodipodi:role="line"
           y="0"
           x="0 4.448 6.6719999">0.5</tspan></text><text
         id="text472"
         style="font-variant:normal;font-weight:normal;font-size:8px;font-family:Helvetica;-inkscape-font-specification:Helvetica;writing-mode:lr-tb;fill:#636363;fill-opacity:1;fill-rule:nonzero;stroke:none"
         transform="matrix(1,0,0,-1,17.44,73.25)"><tspan
           id="tspan470"
           sodipodi:role="line"
           y="0"
           x="0 4.448 6.6719999">1.0</tspan></text><text
         id="text476"
         style="font-variant:normal;font-weight:normal;font-size:8px;font-family:Helvetica;-inkscape-font-specification:Helvetica;writing-mode:lr-tb;fill:#636363;fill-opacity:1;fill-rule:nonzero;stroke:none"
         transform="matrix(1,0,0,-1,17.44,96.38)"><tspan
           id="tspan474"
           sodipodi:role="line"
           y="0"
           x="0 4.448 6.6719999">1.5</tspan></text><text
         id="text480"
         style="font-variant:normal;font-weight:normal;font-size:8px;font-family:Helvetica;-inkscape-font-specification:Helvetica;writing-mode:lr-tb;fill:#636363;fill-opacity:1;fill-rule:nonzero;stroke:none"
         transform="matrix(1,0,0,-1,17.44,119.5)"><tspan
           id="tspan478"
           sodipodi:role="line"
           y="0"
           x="0 4.448 6.6719999">2.0</tspan></text><text
         id="text484"
         style="font-variant:normal;font-weight:normal;font-size:8px;font-family:Helvetica;-inkscape-font-specification:Helvetica;writing-mode:lr-tb;fill:#636363;fill-opacity:1;fill-rule:nonzero;stroke:none"
         transform="matrix(1,0,0,-1,17.44,142.62)"><tspan
           id="tspan482"
           sodipodi:role="line"
           y="0"
           x="0 4.448 6.6719999">2.5</tspan></text><text
         id="text488"
         style="font-variant:normal;font-weight:normal;font-size:8px;font-family:Helvetica;-inkscape-font-specification:Helvetica;writing-mode:lr-tb;fill:#636363;fill-opacity:1;fill-rule:nonzero;stroke:none"
         transform="matrix(1,0,0,-1,17.44,165.74)"><tspan
           id="tspan486"
           sodipodi:role="line"
           y="0"
           x="0 4.448 6.6719999">3.0</tspan></text><text
         id="text492"
         style="font-variant:normal;font-weight:normal;font-size:8px;font-family:Helvetica;-inkscape-font-specification:Helvetica;writing-mode:lr-tb;fill:#636363;fill-opacity:1;fill-rule:nonzero;stroke:none"
         transform="matrix(1,0,0,-1,17.44,188.87)"><tspan
           id="tspan490"
           sodipodi:role="line"
           y="0"
           x="0 4.448 6.6719999">3.5</tspan></text></g><g
       id="g494" /><g
       id="g496"><path
         id="path498"
         style="fill:none;stroke:#636363;stroke-width:1.07;stroke-linecap:butt;stroke-linejoin:round;stroke-miterlimit:10;stroke-dasharray:none;stroke-opacity:1"
         d="M 30.76,29.88 H 33.5" /><path
         id="path500"
         style="fill:none;stroke:#636363;stroke-width:1.07;stroke-linecap:butt;stroke-linejoin:round;stroke-miterlimit:10;stroke-dasharray:none;stroke-opacity:1"
         d="M 30.76,53 H 33.5" /><path
         id="path502"
         style="fill:none;stroke:#636363;stroke-width:1.07;stroke-linecap:butt;stroke-linejoin:round;stroke-miterlimit:10;stroke-dasharray:none;stroke-opacity:1"
         d="M 30.76,76.12 H 33.5" /><path
         id="path504"
         style="fill:none;stroke:#636363;stroke-width:1.07;stroke-linecap:butt;stroke-linejoin:round;stroke-miterlimit:10;stroke-dasharray:none;stroke-opacity:1"
         d="M 30.76,99.25 H 33.5" /><path
         id="path506"
         style="fill:none;stroke:#636363;stroke-width:1.07;stroke-linecap:butt;stroke-linejoin:round;stroke-miterlimit:10;stroke-dasharray:none;stroke-opacity:1"
         d="M 30.76,122.37 H 33.5" /><path
         id="path508"
         style="fill:none;stroke:#636363;stroke-width:1.07;stroke-linecap:butt;stroke-linejoin:round;stroke-miterlimit:10;stroke-dasharray:none;stroke-opacity:1"
         d="M 30.76,145.49 H 33.5" /><path
         id="path510"
         style="fill:none;stroke:#636363;stroke-width:1.07;stroke-linecap:butt;stroke-linejoin:round;stroke-miterlimit:10;stroke-dasharray:none;stroke-opacity:1"
         d="M 30.76,168.62 H 33.5" /><path
         id="path512"
         style="fill:none;stroke:#636363;stroke-width:1.07;stroke-linecap:butt;stroke-linejoin:round;stroke-miterlimit:10;stroke-dasharray:none;stroke-opacity:1"
         d="M 30.76,191.74 H 33.5" /></g><g
       id="g514" /><g
       id="g516" /><g
       id="g518" /><g
       id="g520" /><g
       id="g522" /><g
       id="g524" /><g
       id="g526" /><g
       id="g528" /><g
       id="g530" /><g
       id="g532" /><g
       id="g534" /><g
       id="g536"><text
         id="text540"
         style="font-variant:normal;font-weight:normal;font-size:8px;font-family:Helvetica;-inkscape-font-specification:Helvetica;writing-mode:lr-tb;fill:#636363;fill-opacity:1;fill-rule:nonzero;stroke:none"
         transform="matrix(1,0,0,-1,225.03,8.96)"><tspan
           id="tspan538"
           sodipodi:role="line"
           y="0"
           x="0 4.2160001 8.6639996 13.112">Year</tspan></text></g><g
       id="g542" /><g
       id="g544"><text
         id="text548"
         style="font-variant:normal;font-weight:normal;font-size:8px;font-family:Helvetica;-inkscape-font-specification:Helvetica;writing-mode:lr-tb;fill:#636363;fill-opacity:1;fill-rule:nonzero;stroke:none"
         transform="matrix(0,1,1,0,12.94,12.51)"><tspan
           id="tspan546"
           sodipodi:role="line"
           y="0"
           x="0 5.776 10.224 16.808001 21.256001 23.032 27.48 29.704 31.48 35.279999 39.728001 41.952 47.728001 53.952 58.400002 60.624001 65.071999 71.736 73.512001 77.512001 81.512001 83.288002 87.736 92.183998 96.183998 98.407997 101.072 105.52 107.744 112.416 114.64 116.624 121.072 122.848 125.512 127.736 131.73599 136.18401 140.632 143.29601 147.744 149.968 154.416 156.64 158.864 163.312 165.536 169.98399 173.18401 178.96001 181.18401 185.472 189.92 194.368 198.81599 203.26401 205.48801">Cumulative CO2 emissions (1 = fair share of 1.5C budget)</tspan></text></g><g
       id="g550" /><g
       id="g552" /><g
       id="g554" /><g
       id="g556" /><g
       id="g558" /><g
       id="g560" /><g
       id="g562" /><g
       id="g564" /><g
       id="g566" /><g
       id="g568" /><g
       id="g570" /><g
       id="g572" /><text
       transform="scale(1,-1)"
       id="text1404"
       y="-192.23703"
       x="436.6832"
       style="font-size:7px;line-height:1.25;font-family:sans-serif;stroke-width:0.75"
       xml:space="preserve"><tspan
         style="font-size:7px;stroke-width:0.75"
         y="-192.23703"
         x="436.6832"
         id="tspan1402"
         sodipodi:role="line">Business-as-usual</tspan></text><text
       transform="scale(1,-1)"
       xml:space="preserve"
       style="font-size:7px;line-height:1.25;font-family:sans-serif;stroke-width:0.75"
       x="436.6832"
       y="-153.23703"
       id="text1408"><tspan
         sodipodi:role="line"
         id="tspan1406"
         x="436.6832"
         y="-153.23703"
         style="font-size:7px;fill:#0000a5;fill-opacity:1;stroke-width:0.75">Net zero</tspan></text><text
       transform="scale(1,-1)"
       id="text1412"
       y="-88.737045"
       x="436.6832"
       style="font-size:7px;line-height:1.25;font-family:sans-serif;stroke-width:0.75"
       xml:space="preserve"><tspan
         style="font-size:7px;fill:#e31a1c;fill-opacity:1;stroke-width:0.75"
         y="-88.737045"
         x="436.6832"
         id="tspan1410"
         sodipodi:role="line">2 C fair share</tspan></text><text
       transform="scale(1,-1)"
       xml:space="preserve"
       style="font-size:7px;line-height:1.25;font-family:sans-serif;stroke-width:0.75"
       x="436.6832"
       y="-73.73703"
       id="text1416"><tspan
         sodipodi:role="line"
         id="tspan1414"
         x="436.6832"
         y="-73.73703"
         style="font-size:7px;fill:#feb24c;fill-opacity:1;stroke-width:0.75">1.5 C fair share</tspan></text><text
       transform="scale(1,-1)"
       id="text1420"
       y="-45.23703"
       x="436.6832"
       style="font-size:7px;line-height:1.25;font-family:sans-serif;stroke-width:0.75"
       xml:space="preserve"><tspan
         style="font-size:7px;fill:#387f30;fill-opacity:1;stroke-width:0.75"
         y="-45.23703"
         x="436.6832"
         id="tspan1418"
         sodipodi:role="line">350 ppm fair share</tspan></text><text
       transform="scale(1,-1)"
       id="text1424"
       y="-213.75677"
       x="24.860741"
       style="font-size:8.00003px;line-height:1.25;font-family:sans-serif;stroke-width:0.75"
       xml:space="preserve"><tspan
         style="font-weight:bold;font-size:8.00003px;stroke-width:0.75"
         y="-213.75677"
         x="24.860741"
         id="tspan1422"
         sodipodi:role="line">a</tspan></text><text
       transform="scale(1,-1)"
       xml:space="preserve"
       style="font-size:8.00003px;line-height:1.25;font-family:sans-serif;stroke-width:0.75"
       x="164.28961"
       y="-212.95795"
       id="text1428"><tspan
         sodipodi:role="line"
         id="tspan1426"
         x="164.28961"
         y="-212.95795"
         style="font-weight:bold;font-size:8.00003px;stroke-width:0.75">b</tspan></text><text
       transform="scale(1,-1)"
       id="text1432"
       y="-213.75873"
       x="303.28094"
       style="font-size:8.00003px;line-height:1.25;font-family:sans-serif;stroke-width:0.75"
       xml:space="preserve"><tspan
         style="font-weight:bold;font-size:8.00003px;stroke-width:0.75"
         y="-213.75873"
         x="303.28094"
         id="tspan1430"
         sodipodi:role="line">c</tspan></text></g></svg>
