<?xml version="1.0" encoding="UTF-8" standalone="no"?>
<svg
   xmlns:dc="http://purl.org/dc/elements/1.1/"
   xmlns:cc="http://creativecommons.org/ns#"
   xmlns:rdf="http://www.w3.org/1999/02/22-rdf-syntax-ns#"
   xmlns:svg="http://www.w3.org/2000/svg"
   xmlns="http://www.w3.org/2000/svg"
   xmlns:sodipodi="http://sodipodi.sourceforge.net/DTD/sodipodi-0.dtd"
   xmlns:inkscape="http://www.inkscape.org/namespaces/inkscape"
   inkscape:export-ydpi="300.10001"
   inkscape:export-xdpi="300.10001"
   inkscape:export-filename="C:\Users\afann\Documents\PresentationsAndPapers\cumulativeCO2\Analysis\Figures\Figure 1\Figure1_GN-GS-WLDcumulativeCO2-fairShares_v4-labels.png"
   inkscape:version="1.0 (4035a4fb49, 2020-05-01)"
   sodipodi:docname="Figure1_GN-GS-WLDcumulativeCO2-fairShares_v4.svg"
   viewBox="0 0 690.66669 301.33334"
   height="301.33334"
   width="690.66669"
   xml:space="preserve"
   id="svg2"
   version="1.1"><metadata
     id="metadata8"><rdf:RDF><cc:Work
         rdf:about=""><dc:format>image/svg+xml</dc:format><dc:type
           rdf:resource="http://purl.org/dc/dcmitype/StillImage" /><dc:title></dc:title></cc:Work></rdf:RDF></metadata><defs
     id="defs6"><clipPath
       id="clipPath46"
       clipPathUnits="userSpaceOnUse"><path
         id="path44"
         d="M 0,0 H 518.74 V 226.77 H 0 Z" /></clipPath><clipPath
       id="clipPath58"
       clipPathUnits="userSpaceOnUse"><path
         id="path56"
         d="M 33.5,29.88 H 154.45 V 203.3 H 33.5 Z" /></clipPath><clipPath
       id="clipPath92"
       clipPathUnits="userSpaceOnUse"><path
         id="path90"
         d="M 172.44,29.88 H 293.39 V 203.3 H 172.44 Z" /></clipPath><clipPath
       id="clipPath126"
       clipPathUnits="userSpaceOnUse"><path
         id="path124"
         d="M 311.39,29.88 H 432.34 V 203.3 H 311.39 Z" /></clipPath><clipPath
       id="clipPath160"
       clipPathUnits="userSpaceOnUse"><path
         id="path158"
         d="m 33.5,203.3 h 120.95 v 16.27 H 33.5 Z" /></clipPath><clipPath
       id="clipPath168"
       clipPathUnits="userSpaceOnUse"><path
         id="path166"
         d="m 33.5,203.3 h 120.95 v 16.27 H 33.5 Z" /></clipPath><clipPath
       id="clipPath182"
       clipPathUnits="userSpaceOnUse"><path
         id="path180"
         d="m 33.5,203.3 h 120.95 v 16.27 H 33.5 Z" /></clipPath><clipPath
       id="clipPath190"
       clipPathUnits="userSpaceOnUse"><path
         id="path188"
         d="m 33.5,203.3 h 120.95 v 16.27 H 33.5 Z" /></clipPath><clipPath
       id="clipPath200"
       clipPathUnits="userSpaceOnUse"><path
         id="path198"
         d="m 172.44,203.3 h 120.95 v 16.27 H 172.44 Z" /></clipPath><clipPath
       id="clipPath208"
       clipPathUnits="userSpaceOnUse"><path
         id="path206"
         d="m 172.44,203.3 h 120.95 v 16.27 H 172.44 Z" /></clipPath><clipPath
       id="clipPath222"
       clipPathUnits="userSpaceOnUse"><path
         id="path220"
         d="m 172.44,203.3 h 120.95 v 16.27 H 172.44 Z" /></clipPath><clipPath
       id="clipPath230"
       clipPathUnits="userSpaceOnUse"><path
         id="path228"
         d="m 172.44,203.3 h 120.95 v 16.27 H 172.44 Z" /></clipPath><clipPath
       id="clipPath240"
       clipPathUnits="userSpaceOnUse"><path
         id="path238"
         d="m 311.39,203.3 h 120.95 v 16.27 H 311.39 Z" /></clipPath><clipPath
       id="clipPath248"
       clipPathUnits="userSpaceOnUse"><path
         id="path246"
         d="m 311.39,203.3 h 120.95 v 16.27 H 311.39 Z" /></clipPath><clipPath
       id="clipPath262"
       clipPathUnits="userSpaceOnUse"><path
         id="path260"
         d="m 311.39,203.3 h 120.95 v 16.27 H 311.39 Z" /></clipPath><clipPath
       id="clipPath270"
       clipPathUnits="userSpaceOnUse"><path
         id="path268"
         d="m 311.39,203.3 h 120.95 v 16.27 H 311.39 Z" /></clipPath></defs><sodipodi:namedview
     inkscape:current-layer="g10"
     inkscape:window-maximized="1"
     inkscape:window-y="-9"
     inkscape:window-x="-9"
     inkscape:cy="170.00674"
     inkscape:cx="280.13849"
     inkscape:zoom="1.5049907"
     showgrid="false"
     id="namedview4"
     inkscape:window-height="1001"
     inkscape:window-width="1920"
     inkscape:pageshadow="2"
     inkscape:pageopacity="0"
     guidetolerance="10"
     gridtolerance="10"
     objecttolerance="10"
     borderopacity="1"
     bordercolor="#666666"
     pagecolor="#ffffff" /><g
     transform="matrix(1.3333333,0,0,-1.3333333,0,301.33333)"
     inkscape:label="Figure1_GN-GS-WLDcumulativeCO2-fairShares_v4"
     inkscape:groupmode="layer"
     id="g10"><g
       id="g12" /><g
       id="g14" /><g
       id="g16" /><g
       id="g18" /><g
       id="g20" /><g
       id="g22" /><g
       id="g24" /><g
       id="g26" /><g
       id="g28" /><g
       id="g30" /><g
       id="g32" /><g
       id="g34" /><g
       id="g36" /><g
       id="g38" /><g
       id="g40"><g
         clip-path="url(#clipPath46)"
         id="g42"><path
           id="path48"
           style="fill:#ffffff;fill-opacity:1;fill-rule:nonzero;stroke:#ffffff;stroke-width:1.07;stroke-linecap:round;stroke-linejoin:round;stroke-miterlimit:10;stroke-dasharray:none;stroke-opacity:1"
           d="M 0,0 H 518.74 V 226.77 H 0 Z" /></g></g><g
       id="g50" /><g
       id="g52"><g
         clip-path="url(#clipPath58)"
         id="g54"><path
           id="path60"
           style="fill:#ffffff;fill-opacity:1;fill-rule:nonzero;stroke:#7f7f7f;stroke-width:1.07;stroke-linecap:round;stroke-linejoin:round;stroke-miterlimit:10;stroke-dasharray:none;stroke-opacity:1"
           d="M 33.5,29.88 H 154.45 V 203.3 H 33.5 Z" /><path
           id="path62"
           style="fill:#a1d99b;fill-opacity:0.298;fill-rule:nonzero;stroke:none"
           d="m 33.5,40.34 h 1.34 1.34 1.35 1.34 1.34 1.35 1.34 1.35 1.34 1.34 1.35 1.34 1.35 1.34 1.34 1.35 1.34 1.34 1.35 1.34 1.35 1.34 1.34 1.35 1.34 1.35 1.34 1.34 1.35 1.34 1.35 1.34 1.34 1.35 1.34 1.34 1.35 1.34 1.35 1.34 1.34 1.35 1.34 1.35 1.34 1.34 1.35 1.34 1.34 1.35 1.34 1.35 1.34 1.34 1.35 1.34 1.35 1.34 1.34 1.35 1.34 1.35 1.34 1.34 1.35 1.34 1.34 1.35 1.34 1.35 1.34 1.34 1.35 1.34 1.35 1.34 1.34 1.35 1.34 1.34 1.35 1.34 1.35 1.34 1.34 1.35 1.34 1.35 1.34 1.34 V 29.88 h -1.34 -1.34 -1.35 -1.34 -1.35 -1.34 -1.34 -1.35 -1.34 -1.35 -1.34 -1.34 -1.35 -1.34 -1.34 -1.35 -1.34 -1.35 -1.34 -1.34 -1.35 -1.34 -1.35 -1.34 -1.34 -1.35 -1.34 -1.34 -1.35 -1.34 -1.35 -1.34 -1.34 -1.35 -1.34 -1.35 -1.34 -1.34 -1.35 -1.34 H 99.34 98 96.66 95.31 93.97 92.63 91.28 89.94 88.59 87.25 85.91 84.56 83.22 81.87 80.53 79.19 77.84 76.5 75.16 73.81 72.47 71.12 69.78 68.44 67.09 65.75 64.4 63.06 61.72 60.37 59.03 57.68 56.34 55 53.65 52.31 50.97 49.62 48.28 46.93 45.59 44.25 42.9 41.56 40.21 38.87 37.53 36.18 34.84 33.5 Z" /><path
           id="path64"
           style="fill:#ffeda0;fill-opacity:0.298;fill-rule:nonzero;stroke:none"
           d="m 33.5,68.42 h 1.34 1.34 1.35 1.34 1.34 1.35 1.34 1.35 1.34 1.34 1.35 1.34 1.35 1.34 1.34 1.35 1.34 1.34 1.35 1.34 1.35 1.34 1.34 1.35 1.34 1.35 1.34 1.34 1.35 1.34 1.35 1.34 1.34 1.35 1.34 1.34 1.35 1.34 1.35 1.34 1.34 1.35 1.34 1.35 1.34 1.34 1.35 1.34 1.34 1.35 1.34 1.35 1.34 1.34 1.35 1.34 1.35 1.34 1.34 1.35 1.34 1.35 1.34 1.34 1.35 1.34 1.34 1.35 1.34 1.35 1.34 1.34 1.35 1.34 1.35 1.34 1.34 1.35 1.34 1.34 1.35 1.34 1.35 1.34 1.34 1.35 1.34 1.35 1.34 1.34 V 40.34 h -1.34 -1.34 -1.35 -1.34 -1.35 -1.34 -1.34 -1.35 -1.34 -1.35 -1.34 -1.34 -1.35 -1.34 -1.34 -1.35 -1.34 -1.35 -1.34 -1.34 -1.35 -1.34 -1.35 -1.34 -1.34 -1.35 -1.34 -1.34 -1.35 -1.34 -1.35 -1.34 -1.34 -1.35 -1.34 -1.35 -1.34 -1.34 -1.35 -1.34 H 99.34 98 96.66 95.31 93.97 92.63 91.28 89.94 88.59 87.25 85.91 84.56 83.22 81.87 80.53 79.19 77.84 76.5 75.16 73.81 72.47 71.12 69.78 68.44 67.09 65.75 64.4 63.06 61.72 60.37 59.03 57.68 56.34 55 53.65 52.31 50.97 49.62 48.28 46.93 45.59 44.25 42.9 41.56 40.21 38.87 37.53 36.18 34.84 33.5 Z" /><path
           id="path66"
           style="fill:#fc4e2a;fill-opacity:0.298;fill-rule:nonzero;stroke:none"
           d="m 33.5,83.11 h 1.34 1.34 1.35 1.34 1.34 1.35 1.34 1.35 1.34 1.34 1.35 1.34 1.35 1.34 1.34 1.35 1.34 1.34 1.35 1.34 1.35 1.34 1.34 1.35 1.34 1.35 1.34 1.34 1.35 1.34 1.35 1.34 1.34 1.35 1.34 1.34 1.35 1.34 1.35 1.34 1.34 1.35 1.34 1.35 1.34 1.34 1.35 1.34 1.34 1.35 1.34 1.35 1.34 1.34 1.35 1.34 1.35 1.34 1.34 1.35 1.34 1.35 1.34 1.34 1.35 1.34 1.34 1.35 1.34 1.35 1.34 1.34 1.35 1.34 1.35 1.34 1.34 1.35 1.34 1.34 1.35 1.34 1.35 1.34 1.34 1.35 1.34 1.35 1.34 1.34 V 68.42 h -1.34 -1.34 -1.35 -1.34 -1.35 -1.34 -1.34 -1.35 -1.34 -1.35 -1.34 -1.34 -1.35 -1.34 -1.34 -1.35 -1.34 -1.35 -1.34 -1.34 -1.35 -1.34 -1.35 -1.34 -1.34 -1.35 -1.34 -1.34 -1.35 -1.34 -1.35 -1.34 -1.34 -1.35 -1.34 -1.35 -1.34 -1.34 -1.35 -1.34 H 99.34 98 96.66 95.31 93.97 92.63 91.28 89.94 88.59 87.25 85.91 84.56 83.22 81.87 80.53 79.19 77.84 76.5 75.16 73.81 72.47 71.12 69.78 68.44 67.09 65.75 64.4 63.06 61.72 60.37 59.03 57.68 56.34 55 53.65 52.31 50.97 49.62 48.28 46.93 45.59 44.25 42.9 41.56 40.21 38.87 37.53 36.18 34.84 33.5 Z" /><path
           id="path68"
           style="fill:#ce2029;fill-opacity:0.502;fill-rule:nonzero;stroke:none"
           d="m 33.5,203.3 h 1.34 1.34 1.35 1.34 1.34 1.35 1.34 1.35 1.34 1.34 1.35 1.34 1.35 1.34 1.34 1.35 1.34 1.34 1.35 1.34 1.35 1.34 1.34 1.35 1.34 1.35 1.34 1.34 1.35 1.34 1.35 1.34 1.34 1.35 1.34 1.34 1.35 1.34 1.35 1.34 1.34 1.35 1.34 1.35 1.34 1.34 1.35 1.34 1.34 1.35 1.34 1.35 1.34 1.34 1.35 1.34 1.35 1.34 1.34 1.35 1.34 1.35 1.34 1.34 1.35 1.34 1.34 1.35 1.34 1.35 1.34 1.34 1.35 1.34 1.35 1.34 1.34 1.35 1.34 1.34 1.35 1.34 1.35 1.34 1.34 1.35 1.34 1.35 1.34 1.34 V 83.11 h -1.34 -1.34 -1.35 -1.34 -1.35 -1.34 -1.34 -1.35 -1.34 -1.35 -1.34 -1.34 -1.35 -1.34 -1.34 -1.35 -1.34 -1.35 -1.34 -1.34 -1.35 -1.34 -1.35 -1.34 -1.34 -1.35 -1.34 -1.34 -1.35 -1.34 -1.35 -1.34 -1.34 -1.35 -1.34 -1.35 -1.34 -1.34 -1.35 -1.34 H 99.34 98 96.66 95.31 93.97 92.63 91.28 89.94 88.59 87.25 85.91 84.56 83.22 81.87 80.53 79.19 77.84 76.5 75.16 73.81 72.47 71.12 69.78 68.44 67.09 65.75 64.4 63.06 61.72 60.37 59.03 57.68 56.34 55 53.65 52.31 50.97 49.62 48.28 46.93 45.59 44.25 42.9 41.56 40.21 38.87 37.53 36.18 34.84 33.5 Z" /><path
           id="path70"
           style="fill:#000000;fill-opacity:1;fill-rule:nonzero;stroke:none"
           d="m 33.5,30.26 h 1.34 l 1.34,0.39 h 1.35 l 1.34,0.39 1.34,0.38 h 1.35 l 1.34,0.39 1.35,0.38 h 1.34 l 1.34,0.39 1.35,0.38 1.34,0.39 1.35,0.38 1.34,0.39 1.34,0.38 1.35,0.39 1.34,0.38 1.34,0.78 1.35,0.38 1.34,0.39 1.35,0.38 1.34,0.39 1.34,0.38 1.35,0.39 1.34,0.38 1.35,0.77 1.34,0.39 1.34,0.38 1.35,0.39 1.34,0.77 1.35,0.39 1.34,0.38 1.34,0.39 1.35,0.77 1.34,0.38 1.34,0.39 1.35,0.77 1.34,0.38 1.35,0.39 1.34,0.77 1.34,0.39 1.35,0.38 1.34,0.77 1.35,0.77 1.34,0.39 1.34,0.77 1.35,0.77 1.34,0.39 1.34,0.77 1.35,0.77 1.34,0.77 1.35,0.77 1.34,0.77 1.34,0.77 1.35,0.77 1.34,0.39 1.35,0.77 1.34,0.77 1.34,0.77 V 29.88 h -1.34 -1.34 -1.35 -1.34 -1.35 -1.34 -1.34 -1.35 -1.34 H 99.34 98 96.66 95.31 93.97 92.63 91.28 89.94 88.59 87.25 85.91 84.56 83.22 81.87 80.53 79.19 77.84 76.5 75.16 73.81 72.47 71.12 69.78 68.44 67.09 65.75 64.4 63.06 61.72 60.37 59.03 57.68 56.34 55 53.65 52.31 50.97 49.62 48.28 46.93 45.59 44.25 42.9 41.56 40.21 38.87 37.53 36.18 34.84 33.5 Z" /><path
           id="path72"
           style="fill:none;stroke:#387f30;stroke-width:1.92;stroke-linecap:butt;stroke-linejoin:round;stroke-miterlimit:10;stroke-dasharray:none;stroke-opacity:1"
           d="m 33.5,40.34 h 1.34 1.34 1.35 1.34 1.34 1.35 1.34 1.35 1.34 1.34 1.35 1.34 1.35 1.34 1.34 1.35 1.34 1.34 1.35 1.34 1.35 1.34 1.34 1.35 1.34 1.35 1.34 1.34 1.35 1.34 1.35 1.34 1.34 1.35 1.34 1.34 1.35 1.34 1.35 1.34 1.34 1.35 1.34 1.35 1.34 1.34 1.35 1.34 1.34 1.35 1.34 1.35 1.34 1.34 1.35 1.34 1.35 1.34 1.34 1.35 1.34 1.35 1.34 1.34 1.35 1.34 1.34 1.35 1.34 1.35 1.34 1.34 1.35 1.34 1.35 1.34 1.34 1.35 1.34 1.34 1.35 1.34 1.35 1.34 1.34 1.35 1.34 1.35 1.34 1.34" /><path
           id="path74"
           style="fill:none;stroke:#feb24c;stroke-width:1.92;stroke-linecap:butt;stroke-linejoin:round;stroke-miterlimit:10;stroke-dasharray:none;stroke-opacity:1"
           d="m 33.5,68.42 h 1.34 1.34 1.35 1.34 1.34 1.35 1.34 1.35 1.34 1.34 1.35 1.34 1.35 1.34 1.34 1.35 1.34 1.34 1.35 1.34 1.35 1.34 1.34 1.35 1.34 1.35 1.34 1.34 1.35 1.34 1.35 1.34 1.34 1.35 1.34 1.34 1.35 1.34 1.35 1.34 1.34 1.35 1.34 1.35 1.34 1.34 1.35 1.34 1.34 1.35 1.34 1.35 1.34 1.34 1.35 1.34 1.35 1.34 1.34 1.35 1.34 1.35 1.34 1.34 1.35 1.34 1.34 1.35 1.34 1.35 1.34 1.34 1.35 1.34 1.35 1.34 1.34 1.35 1.34 1.34 1.35 1.34 1.35 1.34 1.34 1.35 1.34 1.35 1.34 1.34" /><path
           id="path76"
           style="fill:none;stroke:#e31a1c;stroke-width:1.92;stroke-linecap:butt;stroke-linejoin:round;stroke-miterlimit:10;stroke-dasharray:none;stroke-opacity:1"
           d="m 33.5,83.11 h 1.34 1.34 1.35 1.34 1.34 1.35 1.34 1.35 1.34 1.34 1.35 1.34 1.35 1.34 1.34 1.35 1.34 1.34 1.35 1.34 1.35 1.34 1.34 1.35 1.34 1.35 1.34 1.34 1.35 1.34 1.35 1.34 1.34 1.35 1.34 1.34 1.35 1.34 1.35 1.34 1.34 1.35 1.34 1.35 1.34 1.34 1.35 1.34 1.34 1.35 1.34 1.35 1.34 1.34 1.35 1.34 1.35 1.34 1.34 1.35 1.34 1.35 1.34 1.34 1.35 1.34 1.34 1.35 1.34 1.35 1.34 1.34 1.35 1.34 1.35 1.34 1.34 1.35 1.34 1.34 1.35 1.34 1.35 1.34 1.34 1.35 1.34 1.35 1.34 1.34" /><path
           id="path78"
           style="fill:#525252;fill-opacity:0.298;fill-rule:nonzero;stroke:none"
           d="m 114.13,59.94 1.34,1.16 1.35,0.77 1.34,0.77 1.34,1.15 1.35,0.77 1.34,1.16 1.34,1.16 1.35,0.77 1.34,1.15 1.35,1.16 1.34,1.15 1.34,1.16 1.35,1.16 1.34,1.54 1.35,1.15 1.34,1.55 1.34,1.15 1.35,1.54 1.34,1.16 1.34,1.54 1.35,1.54 1.34,1.54 1.35,1.55 1.34,1.54 1.34,1.92 1.35,1.55 1.34,1.54 1.35,1.92 1.34,1.93 1.34,1.54 V 82.29 l -1.34,-0.38 -1.34,-0.78 -1.35,-0.77 -1.34,-0.77 -1.35,-0.77 -1.34,-0.77 -1.34,-0.77 -1.35,-0.77 -1.34,-0.77 -1.35,-0.77 -1.34,-0.77 -1.34,-0.39 -1.35,-0.77 -1.34,-0.77 -1.34,-0.77 -1.35,-0.77 -1.34,-0.77 -1.35,-0.77 -1.34,-0.77 -1.34,-0.77 -1.35,-0.77 -1.34,-0.77 -1.35,-0.78 -1.34,-0.77 -1.34,-0.77 -1.35,-0.77 -1.34,-0.77 -1.34,-0.77 -1.35,-0.77 z" /><path
           id="path80"
           style="fill:none;stroke:#000000;stroke-width:1.92;stroke-linecap:butt;stroke-linejoin:round;stroke-miterlimit:10;stroke-dasharray:7.68, 7.68;stroke-dashoffset:0;stroke-opacity:1"
           d="m 114.13,59.94 1.34,0.77 1.35,0.77 1.34,1.16 1.34,0.77 1.35,0.77 1.34,0.77 1.34,1.16 1.35,0.77 1.34,0.77 1.35,1.15 1.34,0.77 1.34,1.16 1.35,1.16 1.34,0.77 1.35,1.15 1.34,1.16 1.34,0.77 1.35,1.16 1.34,1.15 1.34,1.16 1.35,1.15 1.34,1.16 1.35,1.16 1.34,1.15 1.34,1.16 1.35,1.15 1.34,1.16 1.35,1.16 1.34,1.54 1.34,1.15" /><path
           id="path82"
           style="fill:none;stroke:#0000a5;stroke-width:1.92;stroke-linecap:butt;stroke-linejoin:round;stroke-miterlimit:10;stroke-dasharray:none;stroke-opacity:1"
           d="m 114.13,59.94 1.34,0.77 1.35,0.77 1.34,0.39 1.34,0.38 1.35,0.39 1.34,0.38 1.34,0.39 1.35,0.38 h 1.34 l 1.35,0.39 h 1.34 l 1.34,0.38 h 1.35 1.34 l 1.35,0.39 h 1.34 1.34 1.35 1.34 l 1.34,0.38 h 1.35 1.34 1.35 1.34 1.34 1.35 1.34 1.35 1.34 1.34" /></g></g><g
       id="g84" /><g
       id="g86"><g
         clip-path="url(#clipPath92)"
         id="g88"><path
           id="path94"
           style="fill:#ffffff;fill-opacity:1;fill-rule:nonzero;stroke:#7f7f7f;stroke-width:1.07;stroke-linecap:round;stroke-linejoin:round;stroke-miterlimit:10;stroke-dasharray:none;stroke-opacity:1"
           d="M 172.44,29.88 H 293.39 V 203.3 H 172.44 Z" /><path
           id="path96"
           style="fill:#a1d99b;fill-opacity:0.298;fill-rule:nonzero;stroke:none"
           d="m 172.44,40.34 h 1.35 1.34 1.35 1.34 1.34 1.35 1.34 1.34 1.35 1.34 1.35 1.34 1.34 1.35 1.34 1.35 1.34 1.34 1.35 1.34 1.34 1.35 1.34 1.35 1.34 1.34 1.35 1.34 1.35 1.34 1.34 1.35 1.34 1.35 1.34 1.34 1.35 1.34 1.34 1.35 1.34 1.35 1.34 1.34 1.35 1.34 1.35 1.34 1.34 1.35 1.34 1.34 1.35 1.34 1.35 1.34 1.34 1.35 1.34 1.35 1.34 1.34 1.35 1.34 1.35 1.34 1.34 1.35 1.34 1.34 1.35 1.34 1.35 1.34 1.34 1.35 1.34 1.35 1.34 1.34 1.35 1.34 1.34 1.35 1.34 1.35 1.34 1.34 1.35 1.34 V 29.88 h -1.34 -1.35 -1.34 -1.34 -1.35 -1.34 -1.35 -1.34 -1.34 -1.35 -1.34 -1.34 -1.35 -1.34 -1.35 -1.34 -1.34 -1.35 -1.34 -1.35 -1.34 -1.34 -1.35 -1.34 -1.34 -1.35 -1.34 -1.35 -1.34 -1.34 -1.35 -1.34 -1.35 -1.34 -1.34 -1.35 -1.34 -1.35 -1.34 -1.34 -1.35 -1.34 -1.34 -1.35 -1.34 -1.35 -1.34 -1.34 -1.35 -1.34 -1.35 -1.34 -1.34 -1.35 -1.34 -1.34 -1.35 -1.34 -1.35 -1.34 -1.34 -1.35 -1.34 -1.35 -1.34 -1.34 -1.35 -1.34 -1.35 -1.34 -1.34 -1.35 -1.34 -1.34 -1.35 -1.34 -1.35 -1.34 -1.34 -1.35 -1.34 -1.35 -1.34 -1.34 -1.35 -1.34 -1.34 -1.35 -1.34 -1.35 z" /><path
           id="path98"
           style="fill:#ffeda0;fill-opacity:0.298;fill-rule:nonzero;stroke:none"
           d="m 172.44,68.42 h 1.35 1.34 1.35 1.34 1.34 1.35 1.34 1.34 1.35 1.34 1.35 1.34 1.34 1.35 1.34 1.35 1.34 1.34 1.35 1.34 1.34 1.35 1.34 1.35 1.34 1.34 1.35 1.34 1.35 1.34 1.34 1.35 1.34 1.35 1.34 1.34 1.35 1.34 1.34 1.35 1.34 1.35 1.34 1.34 1.35 1.34 1.35 1.34 1.34 1.35 1.34 1.34 1.35 1.34 1.35 1.34 1.34 1.35 1.34 1.35 1.34 1.34 1.35 1.34 1.35 1.34 1.34 1.35 1.34 1.34 1.35 1.34 1.35 1.34 1.34 1.35 1.34 1.35 1.34 1.34 1.35 1.34 1.34 1.35 1.34 1.35 1.34 1.34 1.35 1.34 V 40.34 h -1.34 -1.35 -1.34 -1.34 -1.35 -1.34 -1.35 -1.34 -1.34 -1.35 -1.34 -1.34 -1.35 -1.34 -1.35 -1.34 -1.34 -1.35 -1.34 -1.35 -1.34 -1.34 -1.35 -1.34 -1.34 -1.35 -1.34 -1.35 -1.34 -1.34 -1.35 -1.34 -1.35 -1.34 -1.34 -1.35 -1.34 -1.35 -1.34 -1.34 -1.35 -1.34 -1.34 -1.35 -1.34 -1.35 -1.34 -1.34 -1.35 -1.34 -1.35 -1.34 -1.34 -1.35 -1.34 -1.34 -1.35 -1.34 -1.35 -1.34 -1.34 -1.35 -1.34 -1.35 -1.34 -1.34 -1.35 -1.34 -1.35 -1.34 -1.34 -1.35 -1.34 -1.34 -1.35 -1.34 -1.35 -1.34 -1.34 -1.35 -1.34 -1.35 -1.34 -1.34 -1.35 -1.34 -1.34 -1.35 -1.34 -1.35 z" /><path
           id="path100"
           style="fill:#fc4e2a;fill-opacity:0.298;fill-rule:nonzero;stroke:none"
           d="m 172.44,83.11 h 1.35 1.34 1.35 1.34 1.34 1.35 1.34 1.34 1.35 1.34 1.35 1.34 1.34 1.35 1.34 1.35 1.34 1.34 1.35 1.34 1.34 1.35 1.34 1.35 1.34 1.34 1.35 1.34 1.35 1.34 1.34 1.35 1.34 1.35 1.34 1.34 1.35 1.34 1.34 1.35 1.34 1.35 1.34 1.34 1.35 1.34 1.35 1.34 1.34 1.35 1.34 1.34 1.35 1.34 1.35 1.34 1.34 1.35 1.34 1.35 1.34 1.34 1.35 1.34 1.35 1.34 1.34 1.35 1.34 1.34 1.35 1.34 1.35 1.34 1.34 1.35 1.34 1.35 1.34 1.34 1.35 1.34 1.34 1.35 1.34 1.35 1.34 1.34 1.35 1.34 V 68.42 h -1.34 -1.35 -1.34 -1.34 -1.35 -1.34 -1.35 -1.34 -1.34 -1.35 -1.34 -1.34 -1.35 -1.34 -1.35 -1.34 -1.34 -1.35 -1.34 -1.35 -1.34 -1.34 -1.35 -1.34 -1.34 -1.35 -1.34 -1.35 -1.34 -1.34 -1.35 -1.34 -1.35 -1.34 -1.34 -1.35 -1.34 -1.35 -1.34 -1.34 -1.35 -1.34 -1.34 -1.35 -1.34 -1.35 -1.34 -1.34 -1.35 -1.34 -1.35 -1.34 -1.34 -1.35 -1.34 -1.34 -1.35 -1.34 -1.35 -1.34 -1.34 -1.35 -1.34 -1.35 -1.34 -1.34 -1.35 -1.34 -1.35 -1.34 -1.34 -1.35 -1.34 -1.34 -1.35 -1.34 -1.35 -1.34 -1.34 -1.35 -1.34 -1.35 -1.34 -1.34 -1.35 -1.34 -1.34 -1.35 -1.34 -1.35 z" /><path
           id="path102"
           style="fill:#ce2029;fill-opacity:0.502;fill-rule:nonzero;stroke:none"
           d="m 172.44,203.3 h 1.35 1.34 1.35 1.34 1.34 1.35 1.34 1.34 1.35 1.34 1.35 1.34 1.34 1.35 1.34 1.35 1.34 1.34 1.35 1.34 1.34 1.35 1.34 1.35 1.34 1.34 1.35 1.34 1.35 1.34 1.34 1.35 1.34 1.35 1.34 1.34 1.35 1.34 1.34 1.35 1.34 1.35 1.34 1.34 1.35 1.34 1.35 1.34 1.34 1.35 1.34 1.34 1.35 1.34 1.35 1.34 1.34 1.35 1.34 1.35 1.34 1.34 1.35 1.34 1.35 1.34 1.34 1.35 1.34 1.34 1.35 1.34 1.35 1.34 1.34 1.35 1.34 1.35 1.34 1.34 1.35 1.34 1.34 1.35 1.34 1.35 1.34 1.34 1.35 1.34 V 83.11 h -1.34 -1.35 -1.34 -1.34 -1.35 -1.34 -1.35 -1.34 -1.34 -1.35 -1.34 -1.34 -1.35 -1.34 -1.35 -1.34 -1.34 -1.35 -1.34 -1.35 -1.34 -1.34 -1.35 -1.34 -1.34 -1.35 -1.34 -1.35 -1.34 -1.34 -1.35 -1.34 -1.35 -1.34 -1.34 -1.35 -1.34 -1.35 -1.34 -1.34 -1.35 -1.34 -1.34 -1.35 -1.34 -1.35 -1.34 -1.34 -1.35 -1.34 -1.35 -1.34 -1.34 -1.35 -1.34 -1.34 -1.35 -1.34 -1.35 -1.34 -1.34 -1.35 -1.34 -1.35 -1.34 -1.34 -1.35 -1.34 -1.35 -1.34 -1.34 -1.35 -1.34 -1.34 -1.35 -1.34 -1.35 -1.34 -1.34 -1.35 -1.34 -1.35 -1.34 -1.34 -1.35 -1.34 -1.34 -1.35 -1.34 -1.35 z" /><path
           id="path104"
           style="fill:#000000;fill-opacity:1;fill-rule:nonzero;stroke:none"
           d="m 172.44,29.88 h 1.35 1.34 l 1.35,0.38 h 1.34 1.34 1.35 1.34 1.34 l 1.35,0.39 h 1.34 1.35 l 1.34,0.39 h 1.34 1.35 l 1.34,0.38 h 1.35 l 1.34,0.39 h 1.34 1.35 l 1.34,0.38 h 1.34 l 1.35,0.39 h 1.34 l 1.35,0.38 h 1.34 l 1.34,0.39 h 1.35 l 1.34,0.38 h 1.35 l 1.34,0.39 h 1.34 l 1.35,0.38 h 1.34 l 1.35,0.39 h 1.34 l 1.34,0.38 1.35,0.39 h 1.34 l 1.34,0.39 h 1.35 l 1.34,0.38 1.35,0.39 h 1.34 l 1.34,0.38 1.35,0.39 1.34,0.38 1.35,0.39 1.34,0.38 1.34,0.39 1.35,0.38 1.34,0.39 1.34,0.77 1.35,0.39 1.34,0.38 1.35,0.77 1.34,0.39 1.34,0.38 1.35,0.77 1.34,0.39 V 29.88 h -1.34 -1.35 -1.34 -1.34 -1.35 -1.34 -1.35 -1.34 -1.34 -1.35 -1.34 -1.34 -1.35 -1.34 -1.35 -1.34 -1.34 -1.35 -1.34 -1.35 -1.34 -1.34 -1.35 -1.34 -1.34 -1.35 -1.34 -1.35 -1.34 -1.34 -1.35 -1.34 -1.35 -1.34 -1.34 -1.35 -1.34 -1.35 -1.34 -1.34 -1.35 -1.34 -1.34 -1.35 -1.34 -1.35 -1.34 -1.34 -1.35 -1.34 -1.35 -1.34 -1.34 -1.35 -1.34 -1.34 -1.35 -1.34 z" /><path
           id="path106"
           style="fill:none;stroke:#387f30;stroke-width:1.92;stroke-linecap:butt;stroke-linejoin:round;stroke-miterlimit:10;stroke-dasharray:none;stroke-opacity:1"
           d="m 172.44,40.34 h 1.35 1.34 1.35 1.34 1.34 1.35 1.34 1.34 1.35 1.34 1.35 1.34 1.34 1.35 1.34 1.35 1.34 1.34 1.35 1.34 1.34 1.35 1.34 1.35 1.34 1.34 1.35 1.34 1.35 1.34 1.34 1.35 1.34 1.35 1.34 1.34 1.35 1.34 1.34 1.35 1.34 1.35 1.34 1.34 1.35 1.34 1.35 1.34 1.34 1.35 1.34 1.34 1.35 1.34 1.35 1.34 1.34 1.35 1.34 1.35 1.34 1.34 1.35 1.34 1.35 1.34 1.34 1.35 1.34 1.34 1.35 1.34 1.35 1.34 1.34 1.35 1.34 1.35 1.34 1.34 1.35 1.34 1.34 1.35 1.34 1.35 1.34 1.34 1.35 1.34" /><path
           id="path108"
           style="fill:none;stroke:#feb24c;stroke-width:1.92;stroke-linecap:butt;stroke-linejoin:round;stroke-miterlimit:10;stroke-dasharray:none;stroke-opacity:1"
           d="m 172.44,68.42 h 1.35 1.34 1.35 1.34 1.34 1.35 1.34 1.34 1.35 1.34 1.35 1.34 1.34 1.35 1.34 1.35 1.34 1.34 1.35 1.34 1.34 1.35 1.34 1.35 1.34 1.34 1.35 1.34 1.35 1.34 1.34 1.35 1.34 1.35 1.34 1.34 1.35 1.34 1.34 1.35 1.34 1.35 1.34 1.34 1.35 1.34 1.35 1.34 1.34 1.35 1.34 1.34 1.35 1.34 1.35 1.34 1.34 1.35 1.34 1.35 1.34 1.34 1.35 1.34 1.35 1.34 1.34 1.35 1.34 1.34 1.35 1.34 1.35 1.34 1.34 1.35 1.34 1.35 1.34 1.34 1.35 1.34 1.34 1.35 1.34 1.35 1.34 1.34 1.35 1.34" /><path
           id="path110"
           style="fill:none;stroke:#e31a1c;stroke-width:1.92;stroke-linecap:butt;stroke-linejoin:round;stroke-miterlimit:10;stroke-dasharray:none;stroke-opacity:1"
           d="m 172.44,83.11 h 1.35 1.34 1.35 1.34 1.34 1.35 1.34 1.34 1.35 1.34 1.35 1.34 1.34 1.35 1.34 1.35 1.34 1.34 1.35 1.34 1.34 1.35 1.34 1.35 1.34 1.34 1.35 1.34 1.35 1.34 1.34 1.35 1.34 1.35 1.34 1.34 1.35 1.34 1.34 1.35 1.34 1.35 1.34 1.34 1.35 1.34 1.35 1.34 1.34 1.35 1.34 1.34 1.35 1.34 1.35 1.34 1.34 1.35 1.34 1.35 1.34 1.34 1.35 1.34 1.35 1.34 1.34 1.35 1.34 1.34 1.35 1.34 1.35 1.34 1.34 1.35 1.34 1.35 1.34 1.34 1.35 1.34 1.34 1.35 1.34 1.35 1.34 1.34 1.35 1.34" /><path
           id="path112"
           style="fill:#525252;fill-opacity:0.298;fill-rule:nonzero;stroke:none"
           d="m 253.08,44.91 1.34,0.38 1.34,0.78 1.35,0.77 1.34,0.77 1.35,0.77 1.34,0.77 1.34,0.77 1.35,0.77 1.34,1.16 1.34,0.77 1.35,1.15 1.34,0.77 1.35,1.16 1.34,1.16 1.34,1.15 1.35,1.16 1.34,1.15 1.35,1.16 1.34,1.16 1.34,1.54 1.35,1.15 1.34,1.55 1.34,1.15 1.35,1.54 1.34,1.54 1.35,1.55 1.34,1.54 1.34,1.54 1.35,1.93 1.34,1.54 v -15.8 l -1.34,-0.77 -1.35,-0.39 -1.34,-0.77 -1.34,-0.77 -1.35,-0.39 -1.34,-0.77 -1.35,-0.38 -1.34,-0.77 -1.34,-0.77 -1.35,-0.39 -1.34,-0.77 -1.34,-0.77 -1.35,-0.39 -1.34,-0.77 -1.35,-0.77 -1.34,-0.38 -1.34,-0.77 -1.35,-0.77 -1.34,-0.39 -1.35,-0.77 -1.34,-0.39 -1.34,-0.77 -1.35,-0.77 -1.34,-0.38 -1.34,-0.77 -1.35,-0.39 -1.34,-0.77 -1.35,-0.38 -1.34,-0.78 z" /><path
           id="path114"
           style="fill:none;stroke:#000000;stroke-width:1.92;stroke-linecap:butt;stroke-linejoin:round;stroke-miterlimit:10;stroke-dasharray:7.68, 7.68;stroke-dashoffset:0;stroke-opacity:1"
           d="m 253.08,44.91 1.34,0.38 1.34,0.78 1.35,0.77 1.34,0.38 1.35,0.77 1.34,0.77 1.34,0.77 1.35,0.77 1.34,0.78 1.34,0.77 1.35,0.77 1.34,0.77 1.35,0.77 1.34,0.77 1.34,1.16 1.35,0.77 1.34,0.77 1.35,1.15 1.34,0.77 1.34,1.16 1.35,0.77 1.34,1.16 1.34,0.77 1.35,1.15 1.34,1.16 1.35,1.16 1.34,1.15 1.34,1.16 1.35,0.77 1.34,1.15" /><path
           id="path116"
           style="fill:none;stroke:#0000a5;stroke-width:1.92;stroke-linecap:butt;stroke-linejoin:round;stroke-miterlimit:10;stroke-dasharray:none;stroke-opacity:1"
           d="m 253.08,44.91 1.34,0.38 1.34,0.39 1.35,0.39 1.34,0.38 1.35,0.39 1.34,0.38 h 1.34 l 1.35,0.39 1.34,0.38 h 1.34 1.35 l 1.34,0.39 h 1.35 1.34 l 1.34,0.38 h 1.35 1.34 1.35 1.34 l 1.34,0.39 h 1.35 1.34 1.34 1.35 1.34 1.35 1.34 1.34 1.35 1.34" /></g></g><g
       id="g118" /><g
       id="g120"><g
         clip-path="url(#clipPath126)"
         id="g122"><path
           id="path128"
           style="fill:#ffffff;fill-opacity:1;fill-rule:nonzero;stroke:#7f7f7f;stroke-width:1.07;stroke-linecap:round;stroke-linejoin:round;stroke-miterlimit:10;stroke-dasharray:none;stroke-opacity:1"
           d="M 311.39,29.88 H 432.34 V 203.3 H 311.39 Z" /><path
           id="path130"
           style="fill:#a1d99b;fill-opacity:0.298;fill-rule:nonzero;stroke:none"
           d="m 311.39,40.34 h 1.35 1.34 1.34 1.35 1.34 1.35 1.34 1.34 1.35 1.34 1.34 1.35 1.34 1.35 1.34 1.34 1.35 1.34 1.35 1.34 1.34 1.35 1.34 1.34 1.35 1.34 1.35 1.34 1.34 1.35 1.34 1.35 1.34 1.34 1.35 1.34 1.35 1.34 1.34 1.35 1.34 1.34 1.35 1.34 1.35 1.34 1.34 1.35 1.34 1.35 1.34 1.34 1.35 1.34 1.34 1.35 1.34 1.35 1.34 1.34 1.35 1.34 1.35 1.34 1.34 1.35 1.34 1.35 1.34 1.34 1.35 1.34 1.34 1.35 1.34 1.35 1.34 1.34 1.35 1.34 1.35 1.34 1.34 1.35 1.34 1.34 1.35 1.34 1.35 1.34 V 29.88 h -1.34 -1.35 -1.34 -1.35 -1.34 -1.34 -1.35 -1.34 -1.34 -1.35 -1.34 -1.35 -1.34 -1.34 -1.35 -1.34 -1.35 -1.34 -1.34 -1.35 -1.34 -1.34 -1.35 -1.34 -1.35 -1.34 -1.34 -1.35 -1.34 -1.35 -1.34 -1.34 -1.35 -1.34 -1.35 -1.34 -1.34 -1.35 -1.34 -1.34 -1.35 -1.34 -1.35 -1.34 -1.34 -1.35 -1.34 -1.35 -1.34 -1.34 -1.35 -1.34 -1.34 -1.35 -1.34 -1.35 -1.34 -1.34 -1.35 -1.34 -1.35 -1.34 -1.34 -1.35 -1.34 -1.35 -1.34 -1.34 -1.35 -1.34 -1.34 -1.35 -1.34 -1.35 -1.34 -1.34 -1.35 -1.34 -1.35 -1.34 -1.34 -1.35 -1.34 -1.34 -1.35 -1.34 -1.35 -1.34 -1.34 -1.35 z" /><path
           id="path132"
           style="fill:#ffeda0;fill-opacity:0.298;fill-rule:nonzero;stroke:none"
           d="m 311.39,68.42 h 1.35 1.34 1.34 1.35 1.34 1.35 1.34 1.34 1.35 1.34 1.34 1.35 1.34 1.35 1.34 1.34 1.35 1.34 1.35 1.34 1.34 1.35 1.34 1.34 1.35 1.34 1.35 1.34 1.34 1.35 1.34 1.35 1.34 1.34 1.35 1.34 1.35 1.34 1.34 1.35 1.34 1.34 1.35 1.34 1.35 1.34 1.34 1.35 1.34 1.35 1.34 1.34 1.35 1.34 1.34 1.35 1.34 1.35 1.34 1.34 1.35 1.34 1.35 1.34 1.34 1.35 1.34 1.35 1.34 1.34 1.35 1.34 1.34 1.35 1.34 1.35 1.34 1.34 1.35 1.34 1.35 1.34 1.34 1.35 1.34 1.34 1.35 1.34 1.35 1.34 V 40.34 h -1.34 -1.35 -1.34 -1.35 -1.34 -1.34 -1.35 -1.34 -1.34 -1.35 -1.34 -1.35 -1.34 -1.34 -1.35 -1.34 -1.35 -1.34 -1.34 -1.35 -1.34 -1.34 -1.35 -1.34 -1.35 -1.34 -1.34 -1.35 -1.34 -1.35 -1.34 -1.34 -1.35 -1.34 -1.35 -1.34 -1.34 -1.35 -1.34 -1.34 -1.35 -1.34 -1.35 -1.34 -1.34 -1.35 -1.34 -1.35 -1.34 -1.34 -1.35 -1.34 -1.34 -1.35 -1.34 -1.35 -1.34 -1.34 -1.35 -1.34 -1.35 -1.34 -1.34 -1.35 -1.34 -1.35 -1.34 -1.34 -1.35 -1.34 -1.34 -1.35 -1.34 -1.35 -1.34 -1.34 -1.35 -1.34 -1.35 -1.34 -1.34 -1.35 -1.34 -1.34 -1.35 -1.34 -1.35 -1.34 -1.34 -1.35 z" /><path
           id="path134"
           style="fill:#fc4e2a;fill-opacity:0.298;fill-rule:nonzero;stroke:none"
           d="m 311.39,83.11 h 1.35 1.34 1.34 1.35 1.34 1.35 1.34 1.34 1.35 1.34 1.34 1.35 1.34 1.35 1.34 1.34 1.35 1.34 1.35 1.34 1.34 1.35 1.34 1.34 1.35 1.34 1.35 1.34 1.34 1.35 1.34 1.35 1.34 1.34 1.35 1.34 1.35 1.34 1.34 1.35 1.34 1.34 1.35 1.34 1.35 1.34 1.34 1.35 1.34 1.35 1.34 1.34 1.35 1.34 1.34 1.35 1.34 1.35 1.34 1.34 1.35 1.34 1.35 1.34 1.34 1.35 1.34 1.35 1.34 1.34 1.35 1.34 1.34 1.35 1.34 1.35 1.34 1.34 1.35 1.34 1.35 1.34 1.34 1.35 1.34 1.34 1.35 1.34 1.35 1.34 V 68.42 h -1.34 -1.35 -1.34 -1.35 -1.34 -1.34 -1.35 -1.34 -1.34 -1.35 -1.34 -1.35 -1.34 -1.34 -1.35 -1.34 -1.35 -1.34 -1.34 -1.35 -1.34 -1.34 -1.35 -1.34 -1.35 -1.34 -1.34 -1.35 -1.34 -1.35 -1.34 -1.34 -1.35 -1.34 -1.35 -1.34 -1.34 -1.35 -1.34 -1.34 -1.35 -1.34 -1.35 -1.34 -1.34 -1.35 -1.34 -1.35 -1.34 -1.34 -1.35 -1.34 -1.34 -1.35 -1.34 -1.35 -1.34 -1.34 -1.35 -1.34 -1.35 -1.34 -1.34 -1.35 -1.34 -1.35 -1.34 -1.34 -1.35 -1.34 -1.34 -1.35 -1.34 -1.35 -1.34 -1.34 -1.35 -1.34 -1.35 -1.34 -1.34 -1.35 -1.34 -1.34 -1.35 -1.34 -1.35 -1.34 -1.34 -1.35 z" /><path
           id="path136"
           style="fill:#ce2029;fill-opacity:0.502;fill-rule:nonzero;stroke:none"
           d="m 311.39,203.3 h 1.35 1.34 1.34 1.35 1.34 1.35 1.34 1.34 1.35 1.34 1.34 1.35 1.34 1.35 1.34 1.34 1.35 1.34 1.35 1.34 1.34 1.35 1.34 1.34 1.35 1.34 1.35 1.34 1.34 1.35 1.34 1.35 1.34 1.34 1.35 1.34 1.35 1.34 1.34 1.35 1.34 1.34 1.35 1.34 1.35 1.34 1.34 1.35 1.34 1.35 1.34 1.34 1.35 1.34 1.34 1.35 1.34 1.35 1.34 1.34 1.35 1.34 1.35 1.34 1.34 1.35 1.34 1.35 1.34 1.34 1.35 1.34 1.34 1.35 1.34 1.35 1.34 1.34 1.35 1.34 1.35 1.34 1.34 1.35 1.34 1.34 1.35 1.34 1.35 1.34 V 83.11 h -1.34 -1.35 -1.34 -1.35 -1.34 -1.34 -1.35 -1.34 -1.34 -1.35 -1.34 -1.35 -1.34 -1.34 -1.35 -1.34 -1.35 -1.34 -1.34 -1.35 -1.34 -1.34 -1.35 -1.34 -1.35 -1.34 -1.34 -1.35 -1.34 -1.35 -1.34 -1.34 -1.35 -1.34 -1.35 -1.34 -1.34 -1.35 -1.34 -1.34 -1.35 -1.34 -1.35 -1.34 -1.34 -1.35 -1.34 -1.35 -1.34 -1.34 -1.35 -1.34 -1.34 -1.35 -1.34 -1.35 -1.34 -1.34 -1.35 -1.34 -1.35 -1.34 -1.34 -1.35 -1.34 -1.35 -1.34 -1.34 -1.35 -1.34 -1.34 -1.35 -1.34 -1.35 -1.34 -1.34 -1.35 -1.34 -1.35 -1.34 -1.34 -1.35 -1.34 -1.34 -1.35 -1.34 -1.35 -1.34 -1.34 -1.35 z" /><path
           id="path138"
           style="fill:#000000;fill-opacity:1;fill-rule:nonzero;stroke:none"
           d="m 311.39,30.65 1.35,1.16 1.34,0.77 1.34,1.15 1.35,1.16 1.34,1.16 1.35,1.15 1.34,1.16 1.34,1.15 1.35,1.55 1.34,1.54 1.34,1.54 1.35,1.54 1.34,1.54 1.35,1.54 1.34,1.54 1.34,1.55 1.35,1.54 1.34,1.92 1.35,1.55 1.34,1.92 1.34,1.54 1.35,1.55 1.34,1.54 1.34,1.92 1.35,1.55 1.34,1.54 1.35,1.92 1.34,1.93 1.34,1.54 1.35,1.93 1.34,1.93 1.35,1.54 1.34,1.54 1.34,1.93 1.35,1.54 1.34,1.92 1.35,1.93 1.34,1.93 1.34,1.93 1.35,1.92 1.34,1.93 1.34,1.93 1.35,1.92 1.34,1.93 1.35,1.93 1.34,2.31 1.34,1.93 1.35,2.31 1.34,1.54 1.35,1.93 1.34,1.92 1.34,1.93 1.35,1.93 1.34,1.92 1.34,1.93 1.35,1.54 1.34,1.54 1.35,1.93 1.34,1.54 V 29.88 h -1.34 -1.35 -1.34 -1.35 -1.34 -1.34 -1.35 -1.34 -1.34 -1.35 -1.34 -1.35 -1.34 -1.34 -1.35 -1.34 -1.35 -1.34 -1.34 -1.35 -1.34 -1.34 -1.35 -1.34 -1.35 -1.34 -1.34 -1.35 -1.34 -1.35 -1.34 -1.34 -1.35 -1.34 -1.35 -1.34 -1.34 -1.35 -1.34 -1.34 -1.35 -1.34 -1.35 -1.34 -1.34 -1.35 -1.34 -1.35 -1.34 -1.34 -1.35 -1.34 -1.34 -1.35 -1.34 -1.35 -1.34 -1.34 -1.35 z" /><path
           id="path140"
           style="fill:none;stroke:#387f30;stroke-width:1.92;stroke-linecap:butt;stroke-linejoin:round;stroke-miterlimit:10;stroke-dasharray:none;stroke-opacity:1"
           d="m 311.39,40.34 h 1.35 1.34 1.34 1.35 1.34 1.35 1.34 1.34 1.35 1.34 1.34 1.35 1.34 1.35 1.34 1.34 1.35 1.34 1.35 1.34 1.34 1.35 1.34 1.34 1.35 1.34 1.35 1.34 1.34 1.35 1.34 1.35 1.34 1.34 1.35 1.34 1.35 1.34 1.34 1.35 1.34 1.34 1.35 1.34 1.35 1.34 1.34 1.35 1.34 1.35 1.34 1.34 1.35 1.34 1.34 1.35 1.34 1.35 1.34 1.34 1.35 1.34 1.35 1.34 1.34 1.35 1.34 1.35 1.34 1.34 1.35 1.34 1.34 1.35 1.34 1.35 1.34 1.34 1.35 1.34 1.35 1.34 1.34 1.35 1.34 1.34 1.35 1.34 1.35 1.34" /><path
           id="path142"
           style="fill:none;stroke:#feb24c;stroke-width:1.92;stroke-linecap:butt;stroke-linejoin:round;stroke-miterlimit:10;stroke-dasharray:none;stroke-opacity:1"
           d="m 311.39,68.42 h 1.35 1.34 1.34 1.35 1.34 1.35 1.34 1.34 1.35 1.34 1.34 1.35 1.34 1.35 1.34 1.34 1.35 1.34 1.35 1.34 1.34 1.35 1.34 1.34 1.35 1.34 1.35 1.34 1.34 1.35 1.34 1.35 1.34 1.34 1.35 1.34 1.35 1.34 1.34 1.35 1.34 1.34 1.35 1.34 1.35 1.34 1.34 1.35 1.34 1.35 1.34 1.34 1.35 1.34 1.34 1.35 1.34 1.35 1.34 1.34 1.35 1.34 1.35 1.34 1.34 1.35 1.34 1.35 1.34 1.34 1.35 1.34 1.34 1.35 1.34 1.35 1.34 1.34 1.35 1.34 1.35 1.34 1.34 1.35 1.34 1.34 1.35 1.34 1.35 1.34" /><path
           id="path144"
           style="fill:none;stroke:#e31a1c;stroke-width:1.92;stroke-linecap:butt;stroke-linejoin:round;stroke-miterlimit:10;stroke-dasharray:none;stroke-opacity:1"
           d="m 311.39,83.11 h 1.35 1.34 1.34 1.35 1.34 1.35 1.34 1.34 1.35 1.34 1.34 1.35 1.34 1.35 1.34 1.34 1.35 1.34 1.35 1.34 1.34 1.35 1.34 1.34 1.35 1.34 1.35 1.34 1.34 1.35 1.34 1.35 1.34 1.34 1.35 1.34 1.35 1.34 1.34 1.35 1.34 1.34 1.35 1.34 1.35 1.34 1.34 1.35 1.34 1.35 1.34 1.34 1.35 1.34 1.34 1.35 1.34 1.35 1.34 1.34 1.35 1.34 1.35 1.34 1.34 1.35 1.34 1.35 1.34 1.34 1.35 1.34 1.34 1.35 1.34 1.35 1.34 1.34 1.35 1.34 1.35 1.34 1.34 1.35 1.34 1.34 1.35 1.34 1.35 1.34" /><path
           id="path146"
           style="fill:#525252;fill-opacity:0.298;fill-rule:nonzero;stroke:none"
           d="m 392.02,131.62 1.35,1.93 1.34,1.92 1.35,1.93 1.34,1.93 1.34,1.92 1.35,1.93 1.34,1.93 1.35,1.92 1.34,1.93 1.34,2.31 1.35,1.93 1.34,2.31 1.34,1.93 1.35,2.31 1.34,1.93 1.35,2.31 1.34,1.93 1.34,2.31 1.35,2.31 1.34,2.32 1.35,1.92 1.34,2.31 1.34,2.32 1.35,2.31 1.34,2.31 1.34,2.31 1.35,2.32 1.34,2.31 1.35,2.31 1.34,2.7 v -23.9 l -1.34,-1.15 -1.35,-1.16 -1.34,-1.15 -1.35,-1.16 -1.34,-1.54 -1.34,-1.16 -1.35,-1.15 -1.34,-1.16 -1.34,-1.54 -1.35,-1.16 -1.34,-1.15 -1.35,-1.55 -1.34,-1.15 -1.34,-1.54 -1.35,-1.16 -1.34,-1.54 -1.35,-1.16 -1.34,-1.54 -1.34,-1.15 -1.35,-1.55 -1.34,-1.54 -1.34,-1.15 -1.35,-1.54 -1.34,-1.55 -1.35,-1.54 -1.34,-1.54 -1.34,-1.16 -1.35,-1.54 -1.34,-1.54 -1.35,-1.93 z" /><path
           id="path148"
           style="fill:none;stroke:#000000;stroke-width:1.92;stroke-linecap:butt;stroke-linejoin:round;stroke-miterlimit:10;stroke-dasharray:7.68, 7.68;stroke-dashoffset:0;stroke-opacity:1"
           d="m 392.02,131.62 1.35,1.54 1.34,1.93 1.35,1.54 1.34,1.54 1.34,1.93 1.35,1.54 1.34,1.93 1.35,1.54 1.34,1.92 1.34,1.55 1.35,1.92 1.34,1.54 1.34,1.93 1.35,1.54 1.34,1.93 1.35,1.93 1.34,1.54 1.34,1.93 1.35,1.54 1.34,1.92 1.35,1.55 1.34,1.92 1.34,1.93 1.35,1.54 1.34,1.93 1.34,1.54 1.35,1.93 1.34,1.92 1.35,1.54 1.34,1.93" /><path
           id="path150"
           style="fill:none;stroke:#0000a5;stroke-width:1.92;stroke-linecap:butt;stroke-linejoin:round;stroke-miterlimit:10;stroke-dasharray:none;stroke-opacity:1"
           d="m 392.02,131.62 1.35,1.16 1.34,1.54 1.35,0.77 1.34,1.15 1.34,0.78 1.35,0.77 1.34,0.38 1.35,0.39 1.34,0.38 1.34,0.39 1.35,0.38 1.34,0.39 h 1.34 l 1.35,0.38 h 1.34 l 1.35,0.39 h 1.34 1.34 1.35 l 1.34,0.38 h 1.35 1.34 1.34 1.35 1.34 1.34 1.35 1.34 1.35 1.34" /></g></g><g
       id="g152" /><g
       id="g154"><g
         clip-path="url(#clipPath160)"
         id="g156" /></g><g
       id="g162"><g
         clip-path="url(#clipPath168)"
         id="g164"><path
           id="path170"
           style="fill:#ffffff;fill-opacity:1;fill-rule:nonzero;stroke:#7f7f7f;stroke-width:1.07;stroke-linecap:round;stroke-linejoin:round;stroke-miterlimit:10;stroke-dasharray:none;stroke-opacity:1"
           d="m 33.5,203.3 h 120.95 v 16.27 H 33.5 Z" /><text
           id="text174"
           style="font-variant:normal;font-weight:normal;font-size:8px;font-family:Helvetica;-inkscape-font-specification:Helvetica;writing-mode:lr-tb;fill:#666666;fill-opacity:1;fill-rule:nonzero;stroke:none"
           transform="matrix(1,0,0,-1,83.59,208.56)"><tspan
             id="tspan172"
             sodipodi:role="line"
             y="0"
             x="0 7.3119998 11.76 14.544 16.32">World</tspan></text></g></g><g
       id="g176"><g
         clip-path="url(#clipPath182)"
         id="g178" /></g><g
       id="g184"><g
         clip-path="url(#clipPath190)"
         id="g186" /></g><g
       id="g192" /><g
       id="g194"><g
         clip-path="url(#clipPath200)"
         id="g196" /></g><g
       id="g202"><g
         clip-path="url(#clipPath208)"
         id="g204"><path
           id="path210"
           style="fill:#ffffff;fill-opacity:1;fill-rule:nonzero;stroke:#7f7f7f;stroke-width:1.07;stroke-linecap:round;stroke-linejoin:round;stroke-miterlimit:10;stroke-dasharray:none;stroke-opacity:1"
           d="m 172.44,203.3 h 120.95 v 16.27 H 172.44 Z" /><text
           id="text214"
           style="font-variant:normal;font-weight:normal;font-size:8px;font-family:Helvetica;-inkscape-font-specification:Helvetica;writing-mode:lr-tb;fill:#666666;fill-opacity:1;fill-rule:nonzero;stroke:none"
           transform="matrix(1,0,0,-1,209.79,208.56)"><tspan
             id="tspan212"
             sodipodi:role="line"
             y="0"
             x="0 6.224 8 12.448 16.896 21.344 23.120001 25.344 30.68 35.127998 39.576 41.799999">Global South</tspan></text></g></g><g
       id="g216"><g
         clip-path="url(#clipPath222)"
         id="g218" /></g><g
       id="g224"><g
         clip-path="url(#clipPath230)"
         id="g226" /></g><g
       id="g232" /><g
       id="g234"><g
         clip-path="url(#clipPath240)"
         id="g236" /></g><g
       id="g242"><g
         clip-path="url(#clipPath248)"
         id="g244"><path
           id="path250"
           style="fill:#ffffff;fill-opacity:1;fill-rule:nonzero;stroke:#7f7f7f;stroke-width:1.07;stroke-linecap:round;stroke-linejoin:round;stroke-miterlimit:10;stroke-dasharray:none;stroke-opacity:1"
           d="m 311.39,203.3 h 120.95 v 16.27 H 311.39 Z" /><text
           id="text254"
           style="font-variant:normal;font-weight:normal;font-size:8px;font-family:Helvetica;-inkscape-font-specification:Helvetica;writing-mode:lr-tb;fill:#666666;fill-opacity:1;fill-rule:nonzero;stroke:none"
           transform="matrix(1,0,0,-1,349.25,208.56)"><tspan
             id="tspan252"
             sodipodi:role="line"
             y="0"
             x="0 6.224 8 12.448 16.896 21.344 23.120001 25.344 31.120001 35.568001 38.551998 40.776001">Global North</tspan></text></g></g><g
       id="g256"><g
         clip-path="url(#clipPath262)"
         id="g258" /></g><g
       id="g264"><g
         clip-path="url(#clipPath270)"
         id="g266" /></g><g
       id="g272" /><g
       id="g274" /><g
       id="g276" /><g
       id="g278" /><g
       id="g280" /><g
       id="g282" /><g
       id="g284" /><g
       id="g286" /><g
       id="g288"><path
         id="path290"
         style="fill:none;stroke:#636363;stroke-width:1.49;stroke-linecap:butt;stroke-linejoin:round;stroke-miterlimit:10;stroke-dasharray:none;stroke-opacity:1"
         d="M 33.5,29.88 H 154.44" /></g><g
       id="g292" /><g
       id="g294" /><g
       id="g296"><path
         id="path298"
         style="fill:none;stroke:#636363;stroke-width:1.07;stroke-linecap:butt;stroke-linejoin:round;stroke-miterlimit:10;stroke-dasharray:none;stroke-opacity:1"
         d="m 53.65,27.14 v 2.74" /><path
         id="path300"
         style="fill:none;stroke:#636363;stroke-width:1.07;stroke-linecap:butt;stroke-linejoin:round;stroke-miterlimit:10;stroke-dasharray:none;stroke-opacity:1"
         d="m 87.25,27.14 v 2.74" /><path
         id="path302"
         style="fill:none;stroke:#636363;stroke-width:1.07;stroke-linecap:butt;stroke-linejoin:round;stroke-miterlimit:10;stroke-dasharray:none;stroke-opacity:1"
         d="m 120.85,27.14 v 2.74" /><path
         id="path304"
         style="fill:none;stroke:#636363;stroke-width:1.07;stroke-linecap:butt;stroke-linejoin:round;stroke-miterlimit:10;stroke-dasharray:none;stroke-opacity:1"
         d="m 154.44,27.14 v 2.74" /></g><g
       id="g306" /><g
       id="g308"><text
         id="text312"
         style="font-variant:normal;font-weight:normal;font-size:8px;font-family:Helvetica;-inkscape-font-specification:Helvetica;writing-mode:lr-tb;fill:#636363;fill-opacity:1;fill-rule:nonzero;stroke:none"
         transform="matrix(1,0,0,-1,44.76,19.2)"><tspan
           id="tspan310"
           sodipodi:role="line"
           y="0"
           x="0 4.448 8.8959999 13.344">1975</tspan></text><text
         id="text316"
         style="font-variant:normal;font-weight:normal;font-size:8px;font-family:Helvetica;-inkscape-font-specification:Helvetica;writing-mode:lr-tb;fill:#636363;fill-opacity:1;fill-rule:nonzero;stroke:none"
         transform="matrix(1,0,0,-1,78.35,19.2)"><tspan
           id="tspan314"
           sodipodi:role="line"
           y="0"
           x="0 4.448 8.8959999 13.344">2000</tspan></text><text
         id="text320"
         style="font-variant:normal;font-weight:normal;font-size:8px;font-family:Helvetica;-inkscape-font-specification:Helvetica;writing-mode:lr-tb;fill:#636363;fill-opacity:1;fill-rule:nonzero;stroke:none"
         transform="matrix(1,0,0,-1,111.95,19.2)"><tspan
           id="tspan318"
           sodipodi:role="line"
           y="0"
           x="0 4.448 8.8959999 13.344">2025</tspan></text><text
         id="text324"
         style="font-variant:normal;font-weight:normal;font-size:8px;font-family:Helvetica;-inkscape-font-specification:Helvetica;writing-mode:lr-tb;fill:#636363;fill-opacity:1;fill-rule:nonzero;stroke:none"
         transform="matrix(1,0,0,-1,145.55,19.2)"><tspan
           id="tspan322"
           sodipodi:role="line"
           y="0"
           x="0 4.448 8.8959999 13.344">2050</tspan></text></g><g
       id="g326" /><g
       id="g328" /><g
       id="g330" /><g
       id="g332" /><g
       id="g334"><path
         id="path336"
         style="fill:none;stroke:#636363;stroke-width:1.49;stroke-linecap:butt;stroke-linejoin:round;stroke-miterlimit:10;stroke-dasharray:none;stroke-opacity:1"
         d="M 172.44,29.88 H 293.39" /></g><g
       id="g338" /><g
       id="g340" /><g
       id="g342"><path
         id="path344"
         style="fill:none;stroke:#636363;stroke-width:1.07;stroke-linecap:butt;stroke-linejoin:round;stroke-miterlimit:10;stroke-dasharray:none;stroke-opacity:1"
         d="m 192.6,27.14 v 2.74" /><path
         id="path346"
         style="fill:none;stroke:#636363;stroke-width:1.07;stroke-linecap:butt;stroke-linejoin:round;stroke-miterlimit:10;stroke-dasharray:none;stroke-opacity:1"
         d="m 226.2,27.14 v 2.74" /><path
         id="path348"
         style="fill:none;stroke:#636363;stroke-width:1.07;stroke-linecap:butt;stroke-linejoin:round;stroke-miterlimit:10;stroke-dasharray:none;stroke-opacity:1"
         d="m 259.8,27.14 v 2.74" /><path
         id="path350"
         style="fill:none;stroke:#636363;stroke-width:1.07;stroke-linecap:butt;stroke-linejoin:round;stroke-miterlimit:10;stroke-dasharray:none;stroke-opacity:1"
         d="m 293.39,27.14 v 2.74" /></g><g
       id="g352" /><g
       id="g354"><text
         id="text358"
         style="font-variant:normal;font-weight:normal;font-size:8px;font-family:Helvetica;-inkscape-font-specification:Helvetica;writing-mode:lr-tb;fill:#636363;fill-opacity:1;fill-rule:nonzero;stroke:none"
         transform="matrix(1,0,0,-1,183.71,19.2)"><tspan
           id="tspan356"
           sodipodi:role="line"
           y="0"
           x="0 4.448 8.8959999 13.344">1975</tspan></text><text
         id="text362"
         style="font-variant:normal;font-weight:normal;font-size:8px;font-family:Helvetica;-inkscape-font-specification:Helvetica;writing-mode:lr-tb;fill:#636363;fill-opacity:1;fill-rule:nonzero;stroke:none"
         transform="matrix(1,0,0,-1,217.3,19.2)"><tspan
           id="tspan360"
           sodipodi:role="line"
           y="0"
           x="0 4.448 8.8959999 13.344">2000</tspan></text><text
         id="text366"
         style="font-variant:normal;font-weight:normal;font-size:8px;font-family:Helvetica;-inkscape-font-specification:Helvetica;writing-mode:lr-tb;fill:#636363;fill-opacity:1;fill-rule:nonzero;stroke:none"
         transform="matrix(1,0,0,-1,250.9,19.2)"><tspan
           id="tspan364"
           sodipodi:role="line"
           y="0"
           x="0 4.448 8.8959999 13.344">2025</tspan></text><text
         id="text370"
         style="font-variant:normal;font-weight:normal;font-size:8px;font-family:Helvetica;-inkscape-font-specification:Helvetica;writing-mode:lr-tb;fill:#636363;fill-opacity:1;fill-rule:nonzero;stroke:none"
         transform="matrix(1,0,0,-1,284.5,19.2)"><tspan
           id="tspan368"
           sodipodi:role="line"
           y="0"
           x="0 4.448 8.8959999 13.344">2050</tspan></text></g><g
       id="g372" /><g
       id="g374" /><g
       id="g376" /><g
       id="g378" /><g
       id="g380"><path
         id="path382"
         style="fill:none;stroke:#636363;stroke-width:1.49;stroke-linecap:butt;stroke-linejoin:round;stroke-miterlimit:10;stroke-dasharray:none;stroke-opacity:1"
         d="M 311.39,29.88 H 432.34" /></g><g
       id="g384" /><g
       id="g386" /><g
       id="g388"><path
         id="path390"
         style="fill:none;stroke:#636363;stroke-width:1.07;stroke-linecap:butt;stroke-linejoin:round;stroke-miterlimit:10;stroke-dasharray:none;stroke-opacity:1"
         d="m 331.55,27.14 v 2.74" /><path
         id="path392"
         style="fill:none;stroke:#636363;stroke-width:1.07;stroke-linecap:butt;stroke-linejoin:round;stroke-miterlimit:10;stroke-dasharray:none;stroke-opacity:1"
         d="m 365.15,27.14 v 2.74" /><path
         id="path394"
         style="fill:none;stroke:#636363;stroke-width:1.07;stroke-linecap:butt;stroke-linejoin:round;stroke-miterlimit:10;stroke-dasharray:none;stroke-opacity:1"
         d="m 398.74,27.14 v 2.74" /><path
         id="path396"
         style="fill:none;stroke:#636363;stroke-width:1.07;stroke-linecap:butt;stroke-linejoin:round;stroke-miterlimit:10;stroke-dasharray:none;stroke-opacity:1"
         d="m 432.34,27.14 v 2.74" /></g><g
       id="g398" /><g
       id="g400"><text
         id="text404"
         style="font-variant:normal;font-weight:normal;font-size:8px;font-family:Helvetica;-inkscape-font-specification:Helvetica;writing-mode:lr-tb;fill:#636363;fill-opacity:1;fill-rule:nonzero;stroke:none"
         transform="matrix(1,0,0,-1,322.65,19.2)"><tspan
           id="tspan402"
           sodipodi:role="line"
           y="0"
           x="0 4.448 8.8959999 13.344">1975</tspan></text><text
         id="text408"
         style="font-variant:normal;font-weight:normal;font-size:8px;font-family:Helvetica;-inkscape-font-specification:Helvetica;writing-mode:lr-tb;fill:#636363;fill-opacity:1;fill-rule:nonzero;stroke:none"
         transform="matrix(1,0,0,-1,356.25,19.2)"><tspan
           id="tspan406"
           sodipodi:role="line"
           y="0"
           x="0 4.448 8.8959999 13.344">2000</tspan></text><text
         id="text412"
         style="font-variant:normal;font-weight:normal;font-size:8px;font-family:Helvetica;-inkscape-font-specification:Helvetica;writing-mode:lr-tb;fill:#636363;fill-opacity:1;fill-rule:nonzero;stroke:none"
         transform="matrix(1,0,0,-1,389.85,19.2)"><tspan
           id="tspan410"
           sodipodi:role="line"
           y="0"
           x="0 4.448 8.8959999 13.344">2025</tspan></text><text
         id="text416"
         style="font-variant:normal;font-weight:normal;font-size:8px;font-family:Helvetica;-inkscape-font-specification:Helvetica;writing-mode:lr-tb;fill:#636363;fill-opacity:1;fill-rule:nonzero;stroke:none"
         transform="matrix(1,0,0,-1,423.44,19.2)"><tspan
           id="tspan414"
           sodipodi:role="line"
           y="0"
           x="0 4.448 8.8959999 13.344">2050</tspan></text></g><g
       id="g418" /><g
       id="g420" /><g
       id="g422" /><g
       id="g424" /><g
       id="g426" /><g
       id="g428" /><g
       id="g430" /><g
       id="g432" /><g
       id="g434"><path
         id="path436"
         style="fill:none;stroke:#636363;stroke-width:1.49;stroke-linecap:butt;stroke-linejoin:round;stroke-miterlimit:10;stroke-dasharray:none;stroke-opacity:1"
         d="M 33.5,29.88 V 203.3" /></g><g
       id="g438" /><g
       id="g440" /><g
       id="g442"><text
         id="text446"
         style="font-variant:normal;font-weight:normal;font-size:8px;font-family:Helvetica;-inkscape-font-specification:Helvetica;writing-mode:lr-tb;fill:#636363;fill-opacity:1;fill-rule:nonzero;stroke:none"
         transform="matrix(1,0,0,-1,17.44,27.01)"><tspan
           id="tspan444"
           sodipodi:role="line"
           y="0"
           x="0 4.448 6.6719999">0.0</tspan></text><text
         id="text450"
         style="font-variant:normal;font-weight:normal;font-size:8px;font-family:Helvetica;-inkscape-font-specification:Helvetica;writing-mode:lr-tb;fill:#636363;fill-opacity:1;fill-rule:nonzero;stroke:none"
         transform="matrix(1,0,0,-1,17.44,46.28)"><tspan
           id="tspan448"
           sodipodi:role="line"
           y="0"
           x="0 4.448 6.6719999">0.5</tspan></text><text
         id="text454"
         style="font-variant:normal;font-weight:normal;font-size:8px;font-family:Helvetica;-inkscape-font-specification:Helvetica;writing-mode:lr-tb;fill:#636363;fill-opacity:1;fill-rule:nonzero;stroke:none"
         transform="matrix(1,0,0,-1,17.44,65.55)"><tspan
           id="tspan452"
           sodipodi:role="line"
           y="0"
           x="0 4.448 6.6719999">1.0</tspan></text><text
         id="text458"
         style="font-variant:normal;font-weight:normal;font-size:8px;font-family:Helvetica;-inkscape-font-specification:Helvetica;writing-mode:lr-tb;fill:#636363;fill-opacity:1;fill-rule:nonzero;stroke:none"
         transform="matrix(1,0,0,-1,17.44,84.81)"><tspan
           id="tspan456"
           sodipodi:role="line"
           y="0"
           x="0 4.448 6.6719999">1.5</tspan></text><text
         id="text462"
         style="font-variant:normal;font-weight:normal;font-size:8px;font-family:Helvetica;-inkscape-font-specification:Helvetica;writing-mode:lr-tb;fill:#636363;fill-opacity:1;fill-rule:nonzero;stroke:none"
         transform="matrix(1,0,0,-1,17.44,104.08)"><tspan
           id="tspan460"
           sodipodi:role="line"
           y="0"
           x="0 4.448 6.6719999">2.0</tspan></text><text
         id="text466"
         style="font-variant:normal;font-weight:normal;font-size:8px;font-family:Helvetica;-inkscape-font-specification:Helvetica;writing-mode:lr-tb;fill:#636363;fill-opacity:1;fill-rule:nonzero;stroke:none"
         transform="matrix(1,0,0,-1,17.44,123.35)"><tspan
           id="tspan464"
           sodipodi:role="line"
           y="0"
           x="0 4.448 6.6719999">2.5</tspan></text><text
         id="text470"
         style="font-variant:normal;font-weight:normal;font-size:8px;font-family:Helvetica;-inkscape-font-specification:Helvetica;writing-mode:lr-tb;fill:#636363;fill-opacity:1;fill-rule:nonzero;stroke:none"
         transform="matrix(1,0,0,-1,17.44,142.62)"><tspan
           id="tspan468"
           sodipodi:role="line"
           y="0"
           x="0 4.448 6.6719999">3.0</tspan></text><text
         id="text474"
         style="font-variant:normal;font-weight:normal;font-size:8px;font-family:Helvetica;-inkscape-font-specification:Helvetica;writing-mode:lr-tb;fill:#636363;fill-opacity:1;fill-rule:nonzero;stroke:none"
         transform="matrix(1,0,0,-1,17.44,161.89)"><tspan
           id="tspan472"
           sodipodi:role="line"
           y="0"
           x="0 4.448 6.6719999">3.5</tspan></text><text
         id="text478"
         style="font-variant:normal;font-weight:normal;font-size:8px;font-family:Helvetica;-inkscape-font-specification:Helvetica;writing-mode:lr-tb;fill:#636363;fill-opacity:1;fill-rule:nonzero;stroke:none"
         transform="matrix(1,0,0,-1,17.44,181.16)"><tspan
           id="tspan476"
           sodipodi:role="line"
           y="0"
           x="0 4.448 6.6719999">4.0</tspan></text><text
         id="text482"
         style="font-variant:normal;font-weight:normal;font-size:8px;font-family:Helvetica;-inkscape-font-specification:Helvetica;writing-mode:lr-tb;fill:#636363;fill-opacity:1;fill-rule:nonzero;stroke:none"
         transform="matrix(1,0,0,-1,17.44,200.43)"><tspan
           id="tspan480"
           sodipodi:role="line"
           y="0"
           x="0 4.448 6.6719999">4.5</tspan></text></g><g
       id="g484" /><g
       id="g486"><path
         id="path488"
         style="fill:none;stroke:#636363;stroke-width:1.07;stroke-linecap:butt;stroke-linejoin:round;stroke-miterlimit:10;stroke-dasharray:none;stroke-opacity:1"
         d="M 30.76,29.88 H 33.5" /><path
         id="path490"
         style="fill:none;stroke:#636363;stroke-width:1.07;stroke-linecap:butt;stroke-linejoin:round;stroke-miterlimit:10;stroke-dasharray:none;stroke-opacity:1"
         d="M 30.76,49.15 H 33.5" /><path
         id="path492"
         style="fill:none;stroke:#636363;stroke-width:1.07;stroke-linecap:butt;stroke-linejoin:round;stroke-miterlimit:10;stroke-dasharray:none;stroke-opacity:1"
         d="M 30.76,68.42 H 33.5" /><path
         id="path494"
         style="fill:none;stroke:#636363;stroke-width:1.07;stroke-linecap:butt;stroke-linejoin:round;stroke-miterlimit:10;stroke-dasharray:none;stroke-opacity:1"
         d="M 30.76,87.69 H 33.5" /><path
         id="path496"
         style="fill:none;stroke:#636363;stroke-width:1.07;stroke-linecap:butt;stroke-linejoin:round;stroke-miterlimit:10;stroke-dasharray:none;stroke-opacity:1"
         d="M 30.76,106.96 H 33.5" /><path
         id="path498"
         style="fill:none;stroke:#636363;stroke-width:1.07;stroke-linecap:butt;stroke-linejoin:round;stroke-miterlimit:10;stroke-dasharray:none;stroke-opacity:1"
         d="M 30.76,126.22 H 33.5" /><path
         id="path500"
         style="fill:none;stroke:#636363;stroke-width:1.07;stroke-linecap:butt;stroke-linejoin:round;stroke-miterlimit:10;stroke-dasharray:none;stroke-opacity:1"
         d="M 30.76,145.49 H 33.5" /><path
         id="path502"
         style="fill:none;stroke:#636363;stroke-width:1.07;stroke-linecap:butt;stroke-linejoin:round;stroke-miterlimit:10;stroke-dasharray:none;stroke-opacity:1"
         d="M 30.76,164.76 H 33.5" /><path
         id="path504"
         style="fill:none;stroke:#636363;stroke-width:1.07;stroke-linecap:butt;stroke-linejoin:round;stroke-miterlimit:10;stroke-dasharray:none;stroke-opacity:1"
         d="M 30.76,184.03 H 33.5" /><path
         id="path506"
         style="fill:none;stroke:#636363;stroke-width:1.07;stroke-linecap:butt;stroke-linejoin:round;stroke-miterlimit:10;stroke-dasharray:none;stroke-opacity:1"
         d="M 30.76,203.3 H 33.5" /></g><g
       id="g508" /><g
       id="g510" /><g
       id="g512" /><g
       id="g514" /><g
       id="g516" /><g
       id="g518" /><g
       id="g520" /><g
       id="g522" /><g
       id="g524" /><g
       id="g526" /><g
       id="g528" /><g
       id="g530"><text
         id="text534"
         style="font-variant:normal;font-weight:normal;font-size:8px;font-family:Helvetica;-inkscape-font-specification:Helvetica;writing-mode:lr-tb;fill:#636363;fill-opacity:1;fill-rule:nonzero;stroke:none"
         transform="matrix(1,0,0,-1,225.03,8.96)"><tspan
           id="tspan532"
           sodipodi:role="line"
           y="0"
           x="0 4.2160001 8.6639996 13.112">Year</tspan></text></g><g
       id="g536" /><g
       id="g538"><text
         id="text542"
         style="font-variant:normal;font-weight:normal;font-size:8px;font-family:Helvetica;-inkscape-font-specification:Helvetica;writing-mode:lr-tb;fill:#636363;fill-opacity:1;fill-rule:nonzero;stroke:none"
         transform="matrix(0,1,1,0,12.94,12.51)"><tspan
           id="tspan540"
           sodipodi:role="line"
           y="0"
           x="0 5.776 10.224 16.808001 21.256001 23.032 27.48 29.704 31.48 35.279999 39.728001 41.952 47.728001 53.952 58.400002 60.624001 65.071999 71.736 73.512001 77.512001 81.512001 83.288002 87.736 92.183998 96.183998 98.407997 101.072 105.52 107.744 112.416 114.64 116.624 121.072 122.848 125.512 127.736 131.73599 136.18401 140.632 143.29601 147.744 149.968 154.416 156.64 158.864 163.312 165.536 169.98399 173.18401 178.96001 181.18401 185.472 189.92 194.368 198.81599 203.26401 205.48801">Cumulative CO2 emissions (1 = fair share of 1.5C budget)</tspan></text></g><g
       id="g544" /><g
       id="g546" /><g
       id="g548" /><g
       id="g550" /><g
       id="g552" /><g
       id="g554" /><g
       id="g556" /><g
       id="g558" /><g
       id="g560" /><g
       id="g562" /><g
       id="g564" /><g
       id="g566" /><text
       transform="scale(1,-1)"
       id="text1404"
       y="-183.46779"
       x="435.47577"
       style="font-size:7px;line-height:1.25;font-family:sans-serif;stroke-width:0.75"
       xml:space="preserve"><tspan
         style="font-size:7px;stroke-width:0.75"
         y="-183.46779"
         x="435.47577"
         id="tspan1402"
         sodipodi:role="line">Business-as-usual</tspan></text><text
       transform="scale(1,-1)"
       xml:space="preserve"
       style="font-size:7px;line-height:1.25;font-family:sans-serif;stroke-width:0.75"
       x="435.47577"
       y="-138.46779"
       id="text1408"><tspan
         sodipodi:role="line"
         id="tspan1406"
         x="435.47577"
         y="-138.46779"
         style="font-size:7px;fill:#0000a5;fill-opacity:1;stroke-width:0.75">Net zero</tspan></text><text
       transform="scale(1,-1)"
       id="text1412"
       y="-81.467796"
       x="435.47577"
       style="font-size:7px;line-height:1.25;font-family:sans-serif;stroke-width:0.75"
       xml:space="preserve"><tspan
         style="font-size:7px;fill:#e31a1c;fill-opacity:1;stroke-width:0.75"
         y="-81.467796"
         x="435.47577"
         id="tspan1410"
         sodipodi:role="line">2 C fair share</tspan></text><text
       transform="scale(1,-1)"
       xml:space="preserve"
       style="font-size:7px;line-height:1.25;font-family:sans-serif;stroke-width:0.75"
       x="435.47577"
       y="-66.467796"
       id="text1416"><tspan
         sodipodi:role="line"
         id="tspan1414"
         x="435.47577"
         y="-66.467796"
         style="font-size:7px;fill:#feb24c;fill-opacity:1;stroke-width:0.75">1.5 C fair share</tspan></text><text
       transform="scale(1,-1)"
       id="text1420"
       y="-37.9678"
       x="435.47577"
       style="font-size:7px;line-height:1.25;font-family:sans-serif;stroke-width:0.75"
       xml:space="preserve"><tspan
         style="font-size:7px;fill:#387f30;fill-opacity:1;stroke-width:0.75"
         y="-37.9678"
         x="435.47577"
         id="tspan1418"
         sodipodi:role="line">350 ppm fair share</tspan></text><text
       transform="scale(1,-1)"
       id="text1424"
       y="-212.24295"
       x="23.653297"
       style="font-size:8.00003px;line-height:1.25;font-family:sans-serif;stroke-width:0.75"
       xml:space="preserve"><tspan
         style="font-weight:bold;font-size:8.00003px;stroke-width:0.75"
         y="-212.24295"
         x="23.653297"
         id="tspan1422"
         sodipodi:role="line">a</tspan></text><text
       transform="scale(1,-1)"
       xml:space="preserve"
       style="font-size:8.00003px;line-height:1.25;font-family:sans-serif;stroke-width:0.75"
       x="163.08218"
       y="-210.67654"
       id="text1428"><tspan
         sodipodi:role="line"
         id="tspan1426"
         x="163.08218"
         y="-210.67654"
         style="font-weight:bold;font-size:8.00003px;stroke-width:0.75">b</tspan></text><text
       transform="scale(1,-1)"
       id="text1432"
       y="-212.24686"
       x="302.07355"
       style="font-size:8.00003px;line-height:1.25;font-family:sans-serif;stroke-width:0.75"
       xml:space="preserve"><tspan
         style="font-weight:bold;font-size:8.00003px;stroke-width:0.75"
         y="-212.24686"
         x="302.07355"
         id="tspan1430"
         sodipodi:role="line">c</tspan></text></g></svg>
